 <svg
          width="100%"
          height="170"
          viewBox="0 0 480 170"
          fill="none"
          xmlns="http://www.w3.org/2000/svg"
        >
          <path
            d="M433.224 167.92H66.0321C64.9193 167.566 0.0944099 146.833 47.1587 127.693C79.2528 114.64 56.1608 105.16 52.6674 99.1848C48.6591 92.3264 40.3546 59.126 83.3386 55.2439C166.926 47.6992 97.5116 10.2397 173.525 2.62182C190.683 0.900196 209.329 0 227.61 0C284.235 0 337.273 8.65314 331.1 28.4124C325.215 47.2659 368.985 39.5861 396.507 46.6302C438.66 57.4269 395.211 90.6723 422.577 100.287C447.994 109.222 463.657 153.281 433.224 167.92Z"
            fill="#7AC5CD"
            fill-opacity="0.2"
          />
          <path
            d="M50.6038 114.316C42.4875 106.957 38.3131 96.3962 36.2426 88.829C33.9948 80.6147 33.6682 74.0601 33.6626 73.9926L33.2197 73.9645C33.2253 74.032 33.5519 80.6372 35.8163 88.9077C37.909 96.5482 42.1277 107.215 50.3436 114.665L50.6038 114.316Z"
            fill="#091E25"
          />
          <path
            d="M34.5878 72.0912C34.9864 73.9816 34.6543 75.7707 33.8017 77.0591C32.4619 76.0577 31.41 74.4542 31.0114 72.5638C30.6127 70.6734 30.9449 68.8899 31.7975 67.5958C33.1373 68.5973 34.1892 70.2008 34.5878 72.0912Z"
            fill="#091E25"
          />
          <path
            d="M32.0965 77.4828C33.4972 78.8049 34.3165 80.5378 34.4716 82.2144C32.938 82.2819 31.2494 81.6518 29.8487 80.3296C28.4536 79.0075 27.6342 77.269 27.4736 75.598C29.0072 75.5248 30.7013 76.155 32.0965 77.4828Z"
            fill="#091E25"
          />
          <path
            d="M31.4432 83.1366C33.1816 83.6936 34.6044 84.9201 35.4515 86.4167C34.1892 87.2381 32.4951 87.4744 30.7567 86.923C29.0238 86.366 27.5954 85.1395 26.7539 83.6429C28.0162 82.8215 29.7048 82.5852 31.4432 83.1366Z"
            fill="#091E25"
          />
          <path
            d="M34.1169 89.9433C35.4955 90.3878 36.5972 91.513 37.2173 92.9421C36.1764 93.831 34.809 94.1686 33.4304 93.7297C32.0574 93.2853 30.9557 92.16 30.3301 90.731C31.3764 89.842 32.7439 89.5044 34.1169 89.9433Z"
            fill="#091E25"
          />
          <path
            d="M36.47 80.227C37.5551 79.1186 38.989 78.646 40.3786 78.798C40.4506 80.2945 39.9468 81.808 38.8617 82.9164C37.7821 84.0247 36.3427 84.4973 34.953 84.3454C34.8811 82.8488 35.3849 81.3354 36.47 80.227Z"
            fill="#091E25"
          />
          <path
            d="M37.7268 85.1041C38.8064 83.9957 40.2458 83.5231 41.6299 83.675C41.7074 85.1716 41.2036 86.6851 40.1185 87.7934C39.0334 88.9018 37.5994 89.3744 36.2098 89.2225C36.1323 87.7259 36.6417 86.2125 37.7268 85.1041Z"
            fill="#091E25"
          />
          <path
            d="M45.7145 124.288C38.2183 123.174 31.8017 118.662 27.738 115.072C23.3311 111.173 20.6626 107.494 20.6404 107.454L20.3691 107.612C20.3968 107.651 23.0819 111.359 27.5221 115.28C31.6245 118.909 38.102 123.467 45.6923 124.592L45.7145 124.288Z"
            fill="#4F969E"
          />
          <path
            d="M20.4571 105.991C21.4038 106.931 21.8854 108.101 21.8744 109.187C20.7228 109.125 19.5048 108.602 18.5581 107.662C17.6114 106.717 17.1297 105.547 17.1408 104.461C18.2924 104.523 19.5104 105.046 20.4571 105.991Z"
            fill="#4F969E"
          />
          <path
            d="M21.0438 110.093C22.3559 110.312 23.4854 111.004 24.2106 111.916C23.3469 112.557 22.1234 112.844 20.8113 112.625C19.4992 112.399 18.3698 111.707 17.6445 110.796C18.5082 110.16 19.7317 109.868 21.0438 110.093Z"
            fill="#4F969E"
          />
          <path
            d="M22.7993 113.637C24.0173 113.282 25.3128 113.44 26.3647 113.98C25.9439 114.948 25.0526 115.747 23.8291 116.101C22.6111 116.455 21.3211 116.298 20.2637 115.758C20.6844 114.79 21.5813 113.991 22.7993 113.637Z"
            fill="#4F969E"
          />
          <path
            d="M26.924 116.551C27.8929 116.27 28.9614 116.495 29.8583 117.08C29.587 118.009 28.9226 118.734 27.9538 119.016C26.9905 119.297 25.922 119.066 25.0195 118.487C25.2908 117.559 25.9607 116.827 26.924 116.551Z"
            fill="#4F969E"
          />
          <path
            d="M24.6255 109.985C24.8359 108.916 25.4891 108.084 26.3528 107.628C26.9618 108.466 27.2386 109.546 27.0282 110.615C26.8179 111.679 26.1646 112.517 25.2954 112.967C24.6864 112.129 24.4096 111.054 24.6255 109.985Z"
            fill="#4F969E"
          />
          <path
            d="M27.1948 112.332C27.4052 111.263 28.064 110.431 28.9277 109.975C29.5366 110.813 29.8135 111.893 29.6031 112.962C29.3927 114.026 28.7339 114.858 27.8702 115.314C27.2612 114.476 26.9844 113.396 27.1948 112.332Z"
            fill="#4F969E"
          />
          <path
            d="M50.2268 147.087C41.579 150.423 32.0621 148.662 25.6012 146.597C18.5811 144.352 13.5541 141.28 13.5043 141.247L13.3105 141.618C13.3604 141.652 18.4317 144.752 25.4905 147.008C32.0178 149.095 41.6344 150.873 50.3873 147.497L50.2268 147.087Z"
            fill="#091E25"
          />
          <path
            d="M12.4408 139.463C14.0076 140.082 15.2145 141.291 15.8512 142.698C14.5833 143.356 12.9778 143.457 11.4055 142.838C9.83872 142.22 8.63179 141.01 7.99512 139.603C9.26294 138.945 10.8685 138.844 12.4408 139.463Z"
            fill="#091E25"
          />
          <path
            d="M15.5027 144.402C17.0363 143.856 18.6474 144.03 19.9595 144.751C19.4225 146.129 18.293 147.288 16.7595 147.834C15.2315 148.38 13.6148 148.205 12.3027 147.485C12.8453 146.107 13.9747 144.953 15.5027 144.402Z"
            fill="#091E25"
          />
          <path
            d="M19.482 147.88C20.5672 146.642 22.0398 146.023 23.4848 146.051C23.6121 147.581 23.136 149.179 22.0454 150.417C20.9547 151.655 19.4876 152.274 18.0426 152.246C17.9153 150.721 18.3914 149.117 19.482 147.88Z"
            fill="#091E25"
          />
          <path
            d="M25.0475 149.674C26.1326 148.437 27.6053 147.823 29.0502 147.846C29.1776 149.376 28.7015 150.974 27.6108 152.212C26.5257 153.45 25.053 154.068 23.608 154.04C23.4807 152.516 23.9568 150.912 25.0475 149.674Z"
            fill="#091E25"
          />
          <path
            d="M19.8103 143.879C18.8525 142.607 18.4262 141.083 18.5259 139.699C19.7882 139.845 21.0781 140.593 22.0359 141.859C22.9937 143.125 23.42 144.65 23.3148 146.039C22.0581 145.887 20.7681 145.145 19.8103 143.879Z"
            fill="#091E25"
          />
          <path
            d="M25.5902 145.712C24.6158 144.463 24.1674 142.939 24.2449 141.549C25.5072 141.678 26.8027 142.404 27.7826 143.653C28.757 144.908 29.2054 146.427 29.1279 147.817C27.8657 147.687 26.5702 146.967 25.5902 145.712Z"
            fill="#091E25"
          />
          <path
            d="M32.3608 150.169C32.6154 149.505 33.1248 149.05 33.7227 148.858C34.005 149.472 34.0549 150.192 33.8002 150.856C33.5455 151.514 33.0362 151.97 32.4383 152.161C32.1559 151.553 32.1061 150.828 32.3608 150.169Z"
            fill="#091E25"
          />
          <path
            d="M68.7837 166.987C68.7837 166.987 79.801 122.709 76.147 118.258C71.0979 112.109 66.9346 132.509 66.5249 130.777C62.6661 114.415 61.6363 93.4803 49.1907 91.2635C42.1097 90.0033 50.8239 106.831 50.2979 111.383C49.7775 115.935 37.0218 100.822 29.2709 92.9064C21.5201 84.9903 17.5173 90.0033 22.417 99.9561C27.1505 109.583 42.4696 120.104 39.3138 121.347C36.1526 122.596 16.9858 110.168 14.6384 115.479C11.7595 121.994 40.5152 130.861 37.808 132.329C35.1007 133.792 21.354 128.971 21.7305 133.95C22.1069 138.935 40.5817 138.749 40.2661 140.937C39.7512 144.488 27.5325 136.459 26.9955 141.365C26.4474 146.389 43.073 145.472 42.7851 149.388C42.619 151.639 39.0536 148.246 38.5277 151.363C37.3263 158.469 59.2446 167.133 59.2446 167.133L68.7837 166.987Z"
            fill="#7AC5CD"
          />
          <path
            d="M77.1836 167.256C77.1836 167.256 66.7033 150.923 61.6542 147.834C56.2784 144.549 60.3753 154.389 60.3753 154.389C60.3753 154.389 49.3857 141.105 46.3352 143.806C43.2791 146.501 46.0528 149.629 46.0528 149.629C46.0528 149.629 36.1871 146.659 34.4154 150.338C31.6916 155.992 47.9296 160.679 47.9296 160.679C47.9296 160.679 40.9594 160.606 42.2438 164.421C44.176 170.176 77.1836 167.256 77.1836 167.256Z"
            fill="#7AC5CD"
          />
          <path
            d="M34.4141 150.338C36.1857 146.659 46.0514 149.63 46.0514 149.63C46.0514 149.63 43.2777 146.501 46.3338 143.806C49.3843 141.106 58.176 149.185 58.176 149.185C58.176 149.185 57.2514 142.524 63.8673 148.392C68.5954 152.583 77.1822 167.257 77.1822 167.257L34.4141 150.338Z"
            fill="#4F969E"
          />
          <path
            d="M64.4603 126.24L64.9309 125.914C56.3939 112.776 53.7863 97.1749 53.1053 86.4063C52.3634 74.715 53.6645 66.0281 53.6755 65.9381L53.0942 65.7693C53.0776 65.8537 51.771 74.6025 52.5129 86.3613C53.1994 97.2255 55.8292 112.962 64.4603 126.24Z"
            fill="#4F969E"
          />
          <path
            d="M55.358 63.8904C55.3746 66.5347 54.4722 68.7121 53.0383 70.023C51.5767 68.1382 50.641 65.5895 50.6244 62.9508C50.6023 60.3121 51.5047 58.1291 52.9441 56.8182C54.4057 58.703 55.3358 61.2517 55.358 63.8904Z"
            fill="#4F969E"
          />
          <path
            d="M50.7358 69.8266C52.1864 72.1615 52.7843 74.7777 52.5518 77.0282C50.5531 76.4487 48.5435 74.8902 47.0874 72.5553C45.6313 70.2204 45.0334 67.6043 45.2715 65.3538C47.2701 65.9333 49.2798 67.4917 50.7358 69.8266Z"
            fill="#4F969E"
          />
          <path
            d="M48.3996 76.9151C50.4978 78.3948 52.0093 80.6171 52.7013 82.9351C50.8632 83.4584 48.621 83.0251 46.5283 81.5454C44.4356 80.0657 42.9186 77.8434 42.2266 75.5254C44.0646 75.0021 46.3068 75.4354 48.3996 76.9151Z"
            fill="#4F969E"
          />
          <path
            d="M51.134 89.2858C52.0475 89.8372 52.7395 90.7262 53.0938 91.6826C52.3464 91.9639 51.3997 91.8626 50.4862 91.3057C49.5727 90.7543 48.8807 89.8653 48.5264 88.9089C49.2738 88.6276 50.2205 88.7288 51.134 89.2858Z"
            fill="#4F969E"
          />
          <path
            d="M51.8762 93.8721C52.7897 94.4235 53.4817 95.3125 53.836 96.2689C53.0886 96.5502 52.1474 96.4433 51.234 95.892C50.3205 95.3406 49.6229 94.4516 49.2686 93.4952C50.016 93.2139 50.9627 93.3152 51.8762 93.8721Z"
            fill="#4F969E"
          />
          <path
            d="M55.6462 75.3176C57.3293 74.3443 59.3057 74.3556 61.0552 75.1601C60.7618 77.1405 59.7099 78.8903 58.0213 79.8636C56.3383 80.837 54.3618 80.8257 52.6123 80.0212C52.9057 78.0407 53.9576 76.291 55.6462 75.3176Z"
            fill="#4F969E"
          />
          <path
            d="M55.9786 82.2211C57.6671 81.2478 59.6436 81.259 61.3931 82.0636C61.0997 84.044 60.0478 85.7994 58.3592 86.7671C56.6706 87.7404 54.6997 87.7292 52.9502 86.9246C53.2436 84.9442 54.2955 83.1944 55.9786 82.2211Z"
            fill="#4F969E"
          />
          <path
            d="M55.6467 92.1068C56.7429 91.471 58.0273 91.4823 59.1678 92.0055C58.9796 93.2939 58.2931 94.4304 57.1969 95.0662C56.0952 95.6963 54.8107 95.6907 53.6758 95.1674C53.864 93.879 54.5505 92.7369 55.6467 92.1068Z"
            fill="#4F969E"
          />
          <path
            d="M443.146 61.772C443.146 61.772 439.907 68.9398 437.725 71.9667C435.544 74.9936 433.468 77.8911 431.73 86.2967C429.986 94.7023 430.285 95.5462 429.809 97.7179C429.332 99.8897 426.232 108.683 426.215 110.298C426.199 111.907 419.954 121.089 418.354 125.388C416.754 129.686 413.919 135.824 414.08 138.953L414.788 138.767C414.788 138.767 415.37 131.481 420.308 124.116C425.247 116.751 424.538 115.362 430.146 111.575C435.749 107.795 439.375 97.341 439.375 97.341C439.375 97.341 445.078 85.9873 444.812 80.0853C444.546 74.1891 446.058 68.8666 443.146 61.772Z"
            fill="#091E25"
          />
          <path
            d="M435.555 50.7446C435.555 50.7446 435.366 55.4538 433.872 58.25C432.377 61.0463 431.092 62.7454 430.821 65.7723C430.55 68.7992 429.609 76.6028 425.44 80.4117C421.271 84.2207 420.739 95.6363 417.567 99.0908C414.395 102.545 413.98 105.026 414.566 110.951C415.153 116.87 417.141 125.078 412.54 135.791L411.499 133.124C411.499 133.124 414.793 124.313 413.996 119.154C413.199 113.995 410.425 106.191 411.438 102.455C412.451 98.7138 408.681 97.9824 410.951 92.3281C413.227 86.6681 412.291 84.7045 415.386 79.8153C415.386 79.8153 415.707 79.5847 416.521 75.4494C417.329 71.3085 423.89 63.7243 426.912 61.1363C429.935 58.5482 434.292 54.4017 435.555 50.7446Z"
            fill="#091E25"
          />
          <path
            d="M423.241 74.0608C423.241 74.0608 419.626 80.3565 419.576 84.413C419.521 88.4639 419.953 91.7665 418.12 97.314C416.288 102.867 419.925 106.378 418.879 109.439C417.832 112.505 417.749 116.134 417.783 118.885C417.816 121.636 413.636 130.745 412.999 135.353C412.363 139.966 413.176 139.983 413.176 139.983C413.176 139.983 413.868 133.896 414.832 131.882C415.79 129.867 418.713 122.925 419.399 120.241C420.08 117.557 421.929 115.836 423.529 111.284C425.124 106.738 427.394 102.906 427.222 96.4532C427.045 89.9999 429.603 83.1922 423.241 74.0608Z"
            fill="#7AC5CD"
          />
          <path
            d="M415.579 135.752C415.579 135.752 417.268 127.762 424.388 126.963C431.507 126.165 435.687 127.594 440.714 121.759C445.741 115.919 448.664 106.647 450.27 105.055C450.27 105.055 447.745 103.733 443.543 107.722C439.341 111.716 436.39 114.743 433.96 117.067C431.53 119.391 429.553 117.877 426.984 119.407C424.836 120.69 422.051 124.398 420.828 126.345C420.429 126.975 419.959 127.554 419.416 128.061C418.923 128.528 418.336 129.09 417.96 129.507C417.207 130.345 415.031 135.785 415.031 135.785L415.579 135.752Z"
            fill="#7AC5CD"
          />
          <path
            d="M413.072 134.345C413.072 134.345 415.58 124.572 413.903 119.784C412.22 115.002 406.96 111.463 407.17 108.459C407.386 105.454 410.758 97.3299 408.006 91.2874C408.006 91.2874 406.96 96.6773 405.93 97.8757C404.895 99.0797 397.814 103.918 399.071 110.304C400.322 116.695 407.209 118.192 408.909 120.071C410.603 121.95 412.889 121.95 412.906 123.199C412.923 124.454 413.371 129 412.607 133.49L413.072 134.345Z"
            fill="#7AC5CD"
          />
          <path
            d="M415.812 127.803L419.338 117.49C419.338 117.49 421.409 109.191 422.61 102.271C423.812 95.3504 423.241 74.0608 423.241 74.0608C423.241 74.0608 419.626 80.3565 419.576 84.413C419.521 88.4639 419.953 91.7665 418.12 97.314C416.288 102.867 419.925 106.378 418.879 109.439C417.832 112.505 417.749 116.134 417.783 118.885C417.816 121.636 413.636 130.745 412.999 135.353C412.65 137.879 412.739 139.027 412.888 139.544C412.324 135.51 415.812 127.803 415.812 127.803Z"
            fill="#4F969E"
          />
          <path
            d="M433.174 121.659C430.029 122.295 427.217 122.081 423.485 124.899C419.754 127.724 417.561 130.74 417.561 130.74C417.561 130.74 415.884 133.783 415.192 135.392C415.092 135.64 415.031 135.786 415.031 135.786L415.579 135.752C415.579 135.752 417.268 127.763 424.388 126.964C431.507 126.165 435.687 127.594 440.714 121.76C445.741 115.92 448.664 106.648 450.27 105.056C450.27 105.056 444.922 109.281 441.617 113.028C438.311 116.77 436.318 121.017 433.174 121.659Z"
            fill="#4F969E"
          />
          <path
            d="M405.93 97.8757C404.895 99.0797 397.814 103.918 399.071 110.304C400.322 116.695 407.209 118.192 408.909 120.071C410.603 121.95 412.889 121.95 412.906 123.199C412.923 124.454 413.371 129 412.607 133.49L412.812 133.861C413.183 132.111 413.698 129.444 413.864 127.419C414.141 124.128 413.615 122.766 412.574 120.105C411.533 117.438 405.072 112.009 403.45 109.156C401.833 106.304 406.573 101.538 407.624 99.2316C408.682 96.9305 408.006 91.2874 408.006 91.2874C408.006 91.2874 406.96 96.6773 405.93 97.8757Z"
            fill="#4F969E"
          />
          <path
            d="M422.733 129.624L423.84 126.901C424.698 124.904 426.891 123.953 428.745 124.774C433.412 126.839 435.439 132.6 433.274 137.641L431.696 141.321C431.004 142.936 431.242 144.708 432.178 145.963C433.025 147.099 433.163 148.68 432.576 150.047L431.74 151.988C430.838 154.093 429.083 155.645 426.996 156.292C425.783 156.664 424.704 157.592 424.134 158.92L422.954 161.671C421.648 164.709 418.309 166.155 415.491 164.912L413.886 164.197C411.073 162.948 409.85 159.471 411.156 156.433C413.266 152.799 413.1 150.087 412.347 148.247C411.25 145.541 411.262 142.429 412.452 139.661L412.618 139.273C413.875 136.347 416.3 134.164 419.184 133.231C420.463 132.82 421.792 131.813 422.733 129.624Z"
            fill="#7AC5CD"
          />
          <path
            d="M402.808 168.002C405.072 165.015 417.49 149.036 425.584 146.369C434.52 143.432 426.099 155.107 426.099 155.107C426.099 155.107 441.949 137.491 447.768 139.083C453.1 140.535 447.768 151.455 447.768 151.455C447.768 151.455 453.775 145.407 461.061 145.407C468.147 145.407 456.106 166.854 455.458 168.002H402.808Z"
            fill="#4F969E"
          />
          <path
            d="M450.581 133.423C444.103 143.707 439.381 155.123 436.679 167.259L436.23 167.135C438.927 155.258 443.621 143.859 450.082 133.591C451.588 131.206 453.21 128.37 456.028 127.442C456.078 127.425 456.1 127.509 456.051 127.526C453.476 128.511 451.992 131.195 450.581 133.423Z"
            fill="#091E25"
          />
          <path
            d="M438.24 167.681C445.476 157.683 454.273 148.434 464.737 140.394C464.842 140.315 464.986 140.501 464.881 140.585C454.954 148.333 446.174 157.487 438.788 167.833L438.24 167.681Z"
            fill="#091E25"
          />
          <path
            d="M451.173 127.047C451.344 127.3 451.981 127.947 452.169 128.802C452.418 129.613 452.219 130.625 452.197 130.592C452.153 130.608 452.939 129.933 453.182 128.859C453.504 127.829 453.277 126.4 452.883 125.927C452.202 124.853 451.007 124.746 450.774 125.264C450.525 125.781 450.841 126.484 451.173 127.047Z"
            fill="#091E25"
          />
          <path
            d="M452.723 136.224C452.485 136.049 451.854 135.391 451.018 135.183C450.226 134.913 449.23 135.093 449.257 135.115C449.241 135.166 449.922 134.378 450.985 134.148C452.003 133.844 453.404 134.103 453.864 134.513C454.904 135.228 454.988 136.443 454.473 136.668C453.958 136.91 453.277 136.578 452.723 136.224Z"
            fill="#091E25"
          />
          <path
            d="M450.386 140.246C450.143 140.072 449.517 139.408 448.681 139.206C447.89 138.93 446.888 139.116 446.921 139.138C446.899 139.183 447.58 138.401 448.643 138.17C449.667 137.867 451.067 138.12 451.527 138.536C452.568 139.251 452.651 140.466 452.136 140.691C451.621 140.927 450.935 140.601 450.386 140.246Z"
            fill="#091E25"
          />
          <path
            d="M458.73 149.575C458.487 149.4 457.861 148.736 457.019 148.534C456.233 148.258 455.231 148.444 455.264 148.466C455.242 148.511 455.923 147.729 456.986 147.498C458.005 147.195 459.411 147.448 459.865 147.864C460.906 148.579 460.989 149.794 460.474 150.019C459.965 150.261 459.278 149.929 458.73 149.575Z"
            fill="#091E25"
          />
          <path
            d="M462.987 145.761C462.749 145.586 462.118 144.922 461.282 144.72C460.49 144.444 459.488 144.63 459.521 144.652C459.505 144.697 460.186 143.91 461.249 143.685C462.267 143.381 463.668 143.634 464.128 144.045C465.168 144.765 465.251 145.98 464.737 146.205C464.222 146.442 463.541 146.115 462.987 145.761Z"
            fill="#091E25"
          />
          <path
            d="M447.907 131.599C448.106 131.818 448.837 132.358 449.158 133.174C449.529 133.934 449.49 134.963 449.463 134.935C449.418 134.963 450.094 134.164 450.171 133.067C450.321 131.998 449.878 130.62 449.418 130.215C448.577 129.269 447.381 129.354 447.232 129.9C447.071 130.451 447.486 131.092 447.907 131.599Z"
            fill="#091E25"
          />
          <path
            d="M444.463 136.161C444.751 136.319 445.764 136.6 446.274 137.371C446.849 138.052 446.921 139.222 446.883 139.199C446.833 139.25 447.602 138.069 447.575 136.808C447.641 135.548 446.905 134.203 446.257 133.956C445.056 133.264 443.517 133.883 443.389 134.558C443.245 135.244 443.865 135.779 444.463 136.161Z"
            fill="#091E25"
          />
          <path
            d="M440.847 143.071C441.157 143.172 442.198 143.279 442.829 143.949C443.51 144.528 443.775 145.665 443.731 145.648C443.687 145.71 444.257 144.416 444.014 143.178C443.875 141.923 442.928 140.725 442.247 140.59C440.946 140.112 439.535 140.984 439.524 141.676C439.49 142.373 440.188 142.795 440.847 143.071Z"
            fill="#091E25"
          />
          <path
            d="M451.555 147.881C451.782 148.028 452.59 148.315 452.961 148.967C453.387 149.558 453.382 150.514 453.354 150.492C453.304 150.531 454.002 149.614 454.046 148.59C454.173 147.566 453.653 146.43 453.138 146.188C452.197 145.558 450.912 145.974 450.768 146.514C450.613 147.066 451.084 147.538 451.555 147.881Z"
            fill="#091E25"
          />
          <path
            d="M457.13 128.668C456.997 128.556 456.654 128.134 456.167 127.976C455.707 127.779 455.109 127.841 455.131 127.858C455.115 127.886 455.552 127.447 456.189 127.363C456.809 127.228 457.623 127.442 457.877 127.706C458.464 128.173 458.459 128.893 458.143 129.006C457.833 129.124 457.44 128.899 457.13 128.668Z"
            fill="#091E25"
          />
          <path
            d="M455.829 125.731C455.84 125.911 455.956 126.44 455.785 126.929C455.657 127.419 455.242 127.863 455.242 127.835C455.214 127.835 455.818 127.745 456.277 127.284C456.754 126.873 457.091 126.08 457.036 125.72C457.03 124.96 456.466 124.521 456.189 124.707C455.901 124.887 455.84 125.337 455.829 125.731Z"
            fill="#091E25"
          />
          <path
            d="M466.06 141.872C465.922 141.76 465.579 141.343 465.097 141.18C464.637 140.983 464.04 141.051 464.056 141.062C464.04 141.09 464.477 140.657 465.119 140.567C465.734 140.432 466.553 140.646 466.808 140.91C467.389 141.383 467.389 142.103 467.073 142.215C466.758 142.334 466.37 142.109 466.06 141.872Z"
            fill="#091E25"
          />
          <path
            d="M464.494 138.913C464.511 139.093 464.671 139.61 464.538 140.111C464.455 140.606 464.073 141.085 464.073 141.062C464.046 141.056 464.638 140.921 465.059 140.426C465.507 139.971 465.773 139.16 465.695 138.8C465.623 138.046 465.025 137.653 464.76 137.861C464.494 138.063 464.466 138.519 464.494 138.913Z"
            fill="#091E25"
          />
          <path
            d="M463.404 158.047C456.788 158.784 450.631 161.749 444.696 164.641C440.699 166.593 440.904 167.15 440.09 167.437C439.957 167.488 439.824 167.342 439.885 167.212C440.201 166.582 441.02 166.155 441.591 165.789C442.26 165.367 442.958 164.996 443.661 164.647C445.173 163.904 446.717 163.235 448.256 162.554C451.384 161.17 454.568 159.87 457.873 158.992C459.689 158.508 461.532 158.16 463.398 157.991C463.431 157.985 463.437 158.042 463.404 158.047Z"
            fill="#091E25"
          />
          <path
            d="M457.44 155.961C457.484 156.236 457.766 157.041 457.589 157.828C457.49 158.611 456.925 159.381 456.925 159.342C456.875 159.336 457.794 159.089 458.42 158.284C459.09 157.547 459.455 156.259 459.305 155.702C459.15 154.532 458.193 153.963 457.794 154.306C457.39 154.638 457.379 155.353 457.44 155.961Z"
            fill="#091E25"
          />
          <path
            d="M451.616 158.082C451.654 158.357 451.937 159.156 451.765 159.95C451.66 160.732 451.101 161.502 451.095 161.463C451.051 161.457 451.97 161.21 452.596 160.405C453.26 159.668 453.631 158.38 453.481 157.823C453.326 156.653 452.363 156.084 451.97 156.428C451.566 156.76 451.555 157.474 451.616 158.082Z"
            fill="#091E25"
          />
          <path
            d="M445.693 160.766C445.737 161.042 446.019 161.841 445.848 162.634C445.742 163.41 445.183 164.181 445.178 164.142C445.128 164.142 446.052 163.889 446.673 163.09C447.342 162.353 447.708 161.064 447.564 160.507C447.403 159.337 446.446 158.763 446.052 159.106C445.643 159.444 445.632 160.153 445.693 160.766Z"
            fill="#091E25"
          />
          <path
            d="M459.179 161.497C459.057 161.267 458.83 160.518 458.266 160.035C457.762 159.517 456.926 159.269 456.942 159.297C456.909 159.326 457.729 158.988 458.625 159.224C459.522 159.393 460.502 160.13 460.702 160.625C461.228 161.576 460.834 162.538 460.353 162.516C459.871 162.499 459.467 161.976 459.179 161.497Z"
            fill="#091E25"
          />
          <path
            d="M453.122 163.674C453 163.449 452.767 162.695 452.208 162.211C451.699 161.693 450.863 161.446 450.885 161.474C450.846 161.508 451.666 161.17 452.568 161.406C453.46 161.569 454.439 162.312 454.639 162.802C455.165 163.758 454.772 164.72 454.29 164.692C453.808 164.675 453.41 164.158 453.122 163.674Z"
            fill="#091E25"
          />
          <path
            d="M463.795 159.252C463.69 159.123 463.447 158.684 463.031 158.453C462.649 158.2 462.09 158.155 462.107 158.172C462.09 158.194 462.555 157.874 463.153 157.902C463.735 157.885 464.449 158.217 464.631 158.498C465.091 159.027 464.969 159.685 464.665 159.73C464.36 159.786 464.039 159.516 463.795 159.252Z"
            fill="#091E25"
          />
          <path
            d="M463.099 156.354C463.071 156.518 463.093 157.024 462.855 157.44C462.661 157.862 462.207 158.194 462.213 158.172C462.185 158.16 462.75 158.189 463.243 157.845C463.746 157.553 464.184 156.889 464.195 156.546C464.317 155.854 463.874 155.359 463.586 155.482C463.298 155.595 463.171 156 463.099 156.354Z"
            fill="#091E25"
          />
          <path
            d="M230.256 137.269H179.859C181.099 149.478 187.416 157.276 198.931 157.276C206.854 157.276 213.292 153.507 217.876 147.464L227.532 152.747C221.342 162.058 211.189 167.471 199.053 167.471C179.615 167.471 166.488 153.63 166.488 132.87C166.488 111.85 179.244 97.7563 198.56 97.7563C217.749 97.7563 230.505 111.349 230.505 131.733C230.505 133.37 230.505 135.762 230.256 137.269ZM179.859 128.464H217.506C216.387 115.631 209.456 107.951 198.56 107.951C187.659 107.951 180.977 115.755 179.859 128.464Z"
            fill="#091E25"
            stroke="#091E25"
            stroke-width="2"
            stroke-miterlimit="22.9256"
          />
          <path
            d="M240.78 132.616C240.78 111.726 254.649 97.7563 275.449 97.7563C284.119 97.7563 291.421 100.53 297.489 105.312L290.308 114.117C286.095 110.595 281.517 108.834 275.571 108.834C262.571 108.834 253.901 118.393 253.901 132.616C253.901 146.834 262.571 156.399 275.698 156.399C282.258 156.399 288.077 154.261 292.29 149.731L299.593 158.413C293.403 164.45 284.733 167.471 275.078 167.471C254.521 167.471 240.78 153.507 240.78 132.616Z"
            fill="#091E25"
            stroke="#091E25"
            stroke-width="2"
            stroke-miterlimit="22.9256"
          />
          <path
            d="M351.225 154.13V164.448C346.519 166.586 340.944 167.47 334.877 167.47C323.488 167.47 315.809 159.542 315.809 147.716V109.587H304.543V99.0154H315.809V79.3855H328.438V99.0154H350.234V109.587H328.438V145.072C328.438 151.868 332.651 156.397 338.841 156.397C343.048 156.397 347.139 155.767 351.225 154.13Z"
            fill="#091E25"
            stroke="#091E25"
            stroke-width="2"
            stroke-miterlimit="22.9256"
          />
          <path
            d="M414.742 123.93V166.211H402.485L402.236 154.384C397.652 162.689 388.987 167.471 379.697 167.471C366.449 167.471 357.408 159.414 357.408 147.34C357.408 134.754 368.431 126.45 385.023 126.45C390.349 126.45 396.417 127.08 402.114 128.335V125.319C402.114 114.624 395.299 107.951 384.16 107.951C376.974 107.951 371.653 110.218 367.191 114.494L361.621 106.82C368.182 100.907 376.232 97.7563 387.255 97.7563C403.72 97.7563 414.742 108.204 414.742 123.93ZM402.114 137.146C396.91 136.015 391.462 135.385 386.634 135.385C376.974 135.385 370.662 140.037 370.662 146.958C370.662 153.754 375.241 158.16 383.291 158.16C392.453 158.16 401.987 150.485 402.114 137.146Z"
            fill="#091E25"
            stroke="#091E25"
            stroke-width="2"
            stroke-miterlimit="22.9256"
          />
          <path
            d="M137.373 166.483L137.112 67.1407L149.076 67.1069L149.337 166.455L137.373 166.483Z"
            fill="#091E25"
            stroke="#091E25"
            stroke-width="2"
            stroke-miterlimit="22.9256"
          />
          <path
            d="M68.5161 166.489L68.2559 67.1407L80.2143 67.1069L80.4801 166.455L68.5161 166.489Z"
            fill="#091E25"
            stroke="#091E25"
            stroke-width="2"
            stroke-miterlimit="22.9256"
          />
          <path
            d="M140.068 136.926H42.7285V124.768H140.068V136.926Z"
            fill="#091E25"
            stroke="#091E25"
            stroke-width="2"
            stroke-miterlimit="22.9256"
          />
          <path
            d="M198.677 75.141C198.837 75.1466 199.275 75.2929 199.911 76.5194C200.725 78.0835 201.916 82.8095 201.916 82.8095L198.361 84.1542L197.907 83.164L197.154 75.5742C197.154 75.5742 198.632 75.141 198.677 75.141Z"
            fill="#4F969E"
            stroke="#091E25"
            stroke-width="0.209888"
            stroke-miterlimit="10"
          />
          <path
            d="M193.982 74.4581C195.001 74.4581 197.514 74.7619 198.677 75.1389C198.677 75.1389 199.535 82.6218 197.907 88.3099C197.542 89.5871 198.206 93.5929 198.206 93.5929L187.682 93.4523C187.682 93.4523 188.927 83.7695 188.457 82.2054C187.992 80.6414 187.981 75.1895 187.981 75.1895C187.981 75.1895 188.047 75.1783 190.345 74.7732C191.413 74.5875 192.897 74.4581 193.982 74.4581Z"
            fill="#7AC5CD"
            stroke="#091E25"
            stroke-width="0.209888"
            stroke-miterlimit="10"
          />
          <path
            d="M192.754 107.486C192.754 107.486 192.992 110.22 193.418 110.974C193.844 111.734 193.396 113.016 193.374 113.196C193.351 113.371 192.471 113.624 191.076 113.472C189.675 113.32 189.698 112.994 189.814 112.459C189.925 111.931 190.666 111.25 190.711 110.749C190.755 110.243 190.284 108.425 190.284 108.425L192.754 107.486Z"
            fill="#EDBC8E"
            stroke="#091E25"
            stroke-width="0.209888"
            stroke-miterlimit="10"
          />
          <path
            d="M197.022 91.3375C197.022 91.3375 204.285 90.9268 205.913 91.9282C207.535 92.9241 204.756 97.8245 204.756 97.8245C204.756 97.8245 199.701 97.5882 189.797 98.1677C187.449 98.3084 187.25 91.9564 187.687 91.4275C188.125 90.9043 197.022 91.3375 197.022 91.3375Z"
            fill="#FEFEFE"
            stroke="#091E25"
            stroke-width="0.209888"
            stroke-miterlimit="10"
          />
          <path
            d="M190.899 113.685C189.459 113.528 189.636 112.808 189.753 112.262C189.825 111.924 190.24 111.519 190.483 111.137C190.616 111.244 190.821 111.429 191.447 111.615C192.1 111.812 192.986 111.424 193.556 111.182C193.755 111.947 193.766 112.92 193.744 113.067C193.722 113.252 192.338 113.837 190.899 113.685Z"
            fill="#091E25"
          />
          <path
            d="M191.696 96.6213C191.983 98.8549 193.423 109.967 193.423 109.967L190.084 110.389C190.084 110.389 185.982 95.8786 186.192 93.6619C186.403 91.4451 187.942 91.2595 187.942 91.2595C187.942 91.2595 190.926 90.7081 191.696 96.6213Z"
            fill="#FEFEFE"
            stroke="#091E25"
            stroke-width="0.209888"
            stroke-miterlimit="10"
          />
          <path
            d="M187.865 76.0239C188.845 75.647 189.332 84.6602 189.465 88.3679C191.204 88.5367 194.243 88.3679 195.001 88.3116C195.356 88.2835 196.175 87.9797 196.529 87.9346C196.889 87.884 197.222 87.8615 197.399 87.8896C197.465 87.9009 199.281 88.6604 199.436 88.8236C199.63 89.0261 200.15 89.5438 200.062 89.7688C199.973 89.9939 199.06 89.1443 199.06 89.1443L198.617 88.8911C199.17 89.4425 200.228 90.1683 200.078 90.4383C199.929 90.6971 198.971 89.9545 198.29 89.4537C198.877 89.9882 199.602 90.9503 199.436 91.1022C199.281 91.2372 198.456 90.1233 197.576 89.8026C197.249 89.6844 196.917 90.0107 196.662 90.0501C196.474 90.0839 196.181 90.1458 195.992 90.0895L195.04 89.8138C194.714 89.8419 194.702 90.0389 194.376 90.112C193.994 90.1964 193.368 90.2808 192.881 90.4046C190.08 91.0966 189.144 91.4229 188.286 91.4173C185.689 91.4173 185.54 76.9072 187.865 76.0239Z"
            fill="#EDBC8E"
            stroke="#091E25"
            stroke-width="0.209888"
            stroke-miterlimit="10"
          />
          <path
            d="M185.993 84.4866C185.81 80.6833 185.838 76.0023 187.936 75.2033C188.761 74.8883 190.217 76.7843 189.957 84.5598C188.839 84.6554 187.194 84.7286 185.993 84.4866Z"
            fill="#4F969E"
            stroke="#091E25"
            stroke-width="0.209888"
            stroke-miterlimit="10"
          />
          <path
            d="M202.509 109.821C202.509 109.821 202.221 110.772 202.741 111.396C203.262 112.027 205.426 112.64 205.709 112.983C205.997 113.321 205.974 113.607 205.974 113.607L199.896 113.439L199.962 111.576L200.244 110.232L202.509 109.821Z"
            fill="#EDBC8E"
            stroke="#091E25"
            stroke-width="0.209888"
            stroke-miterlimit="10"
          />
          <path
            d="M203.116 111.711C203.116 111.711 201.555 112.352 200.802 111.975C200.044 111.593 200.072 111.486 199.85 111.632C199.634 111.773 199.557 113.517 199.557 113.517L206.388 113.725C206.865 113.714 207.103 113.359 206.721 113.05C206.455 112.842 206.145 112.701 205.973 112.6C205.436 112.29 203.116 111.711 203.116 111.711Z"
            fill="#091E25"
          />
          <path
            d="M202.281 93.0877C202.746 92.0806 203.82 90.7753 205.697 91.563C207.49 92.3169 207.972 94.1623 207.407 96.0527C206.837 97.9431 203.117 109.061 202.984 110.585L200.011 110.608C200.011 110.608 200.553 101.803 200.686 99.676C200.814 97.6281 201.467 94.8262 202.281 93.0877Z"
            fill="#FEFEFE"
            stroke="#091E25"
            stroke-width="0.209888"
            stroke-miterlimit="10"
          />
          <path
            d="M207.103 82.8488H197.165C196.905 82.8488 196.667 83.0119 196.567 83.2595L193.506 90.8718H188.025C187.875 90.8718 187.748 91.0012 187.748 91.1531C187.748 91.3106 187.875 91.44 188.025 91.44H203.621C204.053 91.44 204.44 91.1812 204.617 90.7817L207.695 83.7827C207.889 83.3439 207.574 82.8488 207.103 82.8488Z"
            fill="#091E25"
          />
          <path
            d="M201.754 87.2825C201.688 87.6257 201.394 87.8507 201.101 87.7944C200.808 87.7326 200.625 87.4062 200.691 87.0687C200.758 86.7255 201.051 86.4948 201.345 86.5567C201.638 86.6129 201.821 86.9393 201.754 87.2825Z"
            fill="white"
          />
          <path
            d="M196.346 65.3171C196.047 65.2158 195.748 65.0977 195.466 64.957C195.145 64.7995 194.724 64.6138 194.464 64.5745C193.91 64.4844 192.958 64.5463 192.426 65.1258C191.773 65.846 190.61 65.2552 190.843 69.0417C191.109 73.3232 193.45 72.8563 193.511 72.7831C193.567 72.71 195.598 70.0431 195.598 70.0431C195.598 70.0431 196.313 71.6241 196.313 71.5622C196.313 71.506 199.945 66.5493 196.346 65.3171Z"
            fill="#091E25"
          />
          <path
            d="M194.564 73.0981L194.768 74.6284C194.768 74.6284 195.222 76.8339 194.636 77.2615C194.054 77.6835 192.155 74.5665 192.155 74.5665L192.36 70.6901L194.564 73.0981Z"
            fill="#EDBC8E"
          />
          <path
            d="M192.294 71.9447C192.776 73.2669 193.922 74.0827 194.735 74.3977L194.564 73.0981L192.36 70.6901L192.294 71.9447Z"
            fill="#E3AB76"
          />
          <path
            d="M194.564 73.0981L194.768 74.6284C194.768 74.6284 195.222 76.8339 194.636 77.2615C194.054 77.6835 192.155 74.5665 192.155 74.5665L192.36 70.6901L194.564 73.0981Z"
            stroke="#091E25"
            stroke-width="0.209888"
            stroke-miterlimit="10"
          />
          <path
            d="M194.447 66.4652C195.682 66.2627 196.789 67.2754 196.756 68.5301C196.745 69.0758 196.701 69.7622 196.59 70.4936C196.319 72.2603 195.134 73.8187 194.348 73.6781C193.567 73.543 191.591 72.0183 191.939 69.5034C192.155 67.9506 193.146 66.679 194.447 66.4652Z"
            fill="#EDBC8E"
            stroke="#091E25"
            stroke-width="0.209888"
            stroke-miterlimit="10"
          />
          <path
            d="M192.481 69.8017C192.415 70.1899 192.11 70.46 191.8 70.4037C191.485 70.3475 191.285 69.9874 191.352 69.5992C191.418 69.211 191.728 68.9409 192.038 68.9972C192.348 69.0534 192.547 69.4135 192.481 69.8017Z"
            fill="#EDBC8E"
          />
          <path
            d="M192.038 68.9974C192.038 68.9974 192.985 69.2393 193.339 68.6148C193.688 67.9959 194.95 66.6568 196.55 67.2138C198.15 67.7708 195.139 65.8635 195.011 65.8635C194.884 65.8635 193.35 65.8523 193.35 65.8523C193.35 65.8523 192.166 66.8425 192.121 66.955C192.077 67.0619 191.739 68.2491 191.739 68.2491L192.038 68.9974Z"
            fill="#091E25"
          />
          <path
            d="M193.771 71.5839L195.498 71.9158C195.498 71.9158 195.332 72.5797 194.574 72.4559C193.638 72.304 193.771 71.5839 193.771 71.5839Z"
            fill="white"
          />
          <path
            d="M237.641 123.247C237.707 123.478 237.74 123.557 237.829 123.709C238.366 124.71 239.623 126.139 239.623 126.139L240.597 123.917C240.597 123.917 240.436 123.219 240.165 122.218C239.224 122.465 238.333 122.611 237.641 123.247Z"
            fill="#E5BF82"
            stroke="#091E25"
            stroke-width="0.209888"
            stroke-miterlimit="10"
          />
          <path
            d="M243.211 121.317C243.211 121.317 237.791 123.692 237.613 123.647C237.503 123.613 235.393 120.029 235.371 116.653C235.36 115.095 236.955 113.215 238.732 113.592C239.623 113.778 239.612 114.031 240.935 115.984C242.258 117.936 243.211 121.317 243.211 121.317Z"
            fill="#4F969E"
            stroke="black"
            stroke-width="0.209888"
            stroke-miterlimit="10"
          />
          <path
            d="M247.833 163.828L247.706 165.994C247.656 166.27 247.474 166.945 247.474 167.198C247.474 168.132 251.853 166.399 250.873 165.983C250.784 165.949 250.319 165.662 250.286 165.347C250.242 164.852 250.131 163.856 250.131 163.856L247.833 163.828Z"
            fill="#E5BF82"
            stroke="black"
            stroke-width="0.209888"
            stroke-miterlimit="10"
          />
          <path
            d="M250.862 165.977C250.862 165.977 249.832 166.263 249.306 166.337C248.78 166.404 248.082 165.802 247.712 165.965C247.302 166.145 247.318 167.76 247.318 167.76C247.318 167.76 252.833 168.221 254.383 167.743C254.997 167.558 252.966 166.646 250.862 165.977Z"
            fill="#091E25"
          />
          <path
            d="M238.87 163.828L238.742 165.994C238.698 166.27 238.51 166.945 238.51 167.198C238.51 168.132 242.889 166.399 241.909 165.983C241.82 165.949 241.217 165.448 241.184 165.133C241.14 164.638 241.167 163.856 241.167 163.856L238.87 163.828Z"
            fill="#E5BF82"
            stroke="black"
            stroke-width="0.209888"
            stroke-miterlimit="10"
          />
          <path
            d="M241.899 165.977C241.899 165.977 240.869 166.263 240.343 166.337C239.817 166.404 239.119 165.802 238.749 165.965C238.339 166.145 238.322 167.76 238.322 167.76C238.322 167.76 243.864 168.295 245.42 167.743C246.029 167.529 244.003 166.646 241.899 165.977Z"
            fill="#091E25"
          />
          <path
            d="M240.209 124.446L244.068 118.955C244.084 118.904 244.118 118.808 244.173 118.656C244.367 118.111 244.771 116.974 245.125 115.849L245.131 115.838C245.241 115.444 245.474 114.752 245.701 114.088C245.95 113.351 246.266 112.428 246.277 112.276C246.266 112.248 246.249 112.197 246.227 112.136C246.083 111.764 245.889 110.875 245.823 110.487C245.779 110.24 245.74 109.643 246.028 109.643C246.476 109.643 246.266 110.24 246.471 110.611C246.548 110.363 246.703 109.868 246.786 109.367L246.858 108.197C246.875 108.113 246.781 107.466 247.102 107.466H247.118C247.401 107.488 247.395 108.175 247.511 109.334C247.55 109.199 247.589 109.041 247.617 108.889C247.611 108.81 247.672 108.462 247.711 108.282C247.655 107.955 247.689 107.449 248.026 107.494C248.198 107.522 248.181 108.231 248.181 108.231C248.181 108.327 248.17 109.081 248.176 109.227C248.209 108.974 248.347 107.899 248.613 107.899C248.829 107.899 248.851 108.192 248.846 108.417C248.84 108.552 248.702 109.722 248.696 109.857C248.801 109.677 248.923 108.653 249.028 108.653C249.455 108.653 249.3 110.11 249.139 110.493C249.128 110.532 249.111 110.605 249.095 110.695C249.039 110.954 248.951 111.393 248.724 111.781C248.458 112.248 248.082 112.996 248.026 113.109C247.988 113.34 247.855 114.178 247.694 115.23C247.622 115.68 247.55 116.175 247.467 116.687C247.45 116.794 247.367 117.149 247.063 118.471C246.648 120.277 246.603 120.356 246.587 120.389C246.404 120.716 242.246 126.454 242.069 126.702L241.964 126.843L240.209 124.446Z"
            fill="#E5BF82"
            stroke="#091E25"
            stroke-width="0.209888"
            stroke-miterlimit="10"
          />
          <path
            d="M247.386 111.635C247.386 111.635 247.075 110.818 246.516 110.818C246.516 110.818 246.826 110.706 247.098 110.92C247.364 111.134 247.386 111.635 247.386 111.635Z"
            fill="#E3AB76"
          />
          <path
            d="M239.28 110.059L238.781 113.255C238.781 113.255 240.675 114.796 241.776 114.47C242.701 114.2 242.07 112.968 242.07 112.968C242.07 112.968 241.577 111.263 241.727 110.369C241.876 109.48 239.28 110.059 239.28 110.059Z"
            fill="#E5BF82"
          />
          <path
            d="M239.634 111.028C240.11 111.253 241.046 111.568 241.777 111.641C241.71 111.191 241.666 110.718 241.727 110.37C241.799 109.959 241.278 109.863 240.702 109.874C239.95 109.942 239.28 110.06 239.28 110.06L239.186 110.673C239.324 110.831 239.479 110.949 239.634 111.028Z"
            fill="#E3AB76"
          />
          <path
            d="M239.28 110.059L238.781 113.255C238.781 113.255 240.675 114.796 241.776 114.47C242.701 114.2 242.07 112.968 242.07 112.968C242.07 112.968 241.577 111.263 241.727 110.369C241.876 109.48 239.28 110.059 239.28 110.059Z"
            stroke="#091E25"
            stroke-width="0.209888"
            stroke-miterlimit="10"
          />
          <path
            d="M236.888 106.38C236.81 106.38 237.635 109.947 238.92 110.56C240.193 111.173 242.103 110.853 242.457 109.891C242.856 108.833 241.411 105.193 239.612 104.731C237.812 104.264 236.888 106.38 236.888 106.38Z"
            fill="#E5BF82"
            stroke="black"
            stroke-width="0.209888"
            stroke-miterlimit="10"
          />
          <path
            d="M238.372 103.099C237.347 103.701 236.877 104.59 236.722 104.95C236.24 105.181 235.664 105.682 235.382 107.032C235.039 108.686 236.257 109.963 237.547 110.346C238.837 110.734 239.042 111.601 239.042 111.601L239.185 110.667C239.185 110.667 238.898 109.851 238.466 109.446C238.034 109.041 238.671 108.444 238.726 107.96C238.77 107.589 238.499 106.869 238.56 106.256C238.56 106.256 239.274 105.153 239.983 104.877C241.19 104.41 239.678 102.334 238.372 103.099Z"
            fill="#091E25"
          />
          <path
            d="M238.914 108.585C239.08 108.996 239.013 109.406 238.759 109.496C238.51 109.586 238.166 109.333 238 108.917C237.834 108.506 237.901 108.095 238.155 108.005C238.404 107.91 238.748 108.174 238.914 108.585Z"
            fill="#E5BF82"
          />
          <path
            d="M243.675 124.536L251.121 123.303V123.298C251.16 123.292 251.199 123.281 251.237 123.27C252.511 122.808 253.037 121.227 249.936 118.926C247.163 116.861 247.152 121.025 247.152 121.025C247.152 121.025 247.55 121.407 248.109 121.857C246.471 122.55 244.339 123.495 244.339 123.495L243.918 124.361L243.675 124.536Z"
            fill="#E5BF82"
            stroke="#091E25"
            stroke-width="0.209888"
            stroke-miterlimit="10"
          />
          <path
            d="M239.867 129.717C239.867 129.717 239.125 133.368 239.424 136.136C239.729 138.899 239.751 148.722 239.751 148.722L238.594 164.447L241.334 164.504C241.334 164.504 244.584 148.79 244.523 149.195C244.462 149.6 245.614 138.134 245.614 138.134L241.738 129.374L239.867 129.717Z"
            fill="#FEFEFE"
            stroke="black"
            stroke-width="0.209888"
            stroke-miterlimit="10"
          />
          <path
            d="M240.591 129.549C240.591 129.549 240.104 132.829 240.707 134.275C241.316 135.715 245.9 149.848 245.961 151.002C246.022 152.155 247.545 164.893 247.545 164.893L250.734 164.797L251.42 150.636L249.981 132.84L248.58 128.339L240.591 129.549Z"
            fill="#FEFEFE"
            stroke="black"
            stroke-width="0.209888"
            stroke-miterlimit="10"
          />
          <path
            d="M249.062 124.361C248.641 122.049 245.613 114.853 245.369 113.531C245.253 112.884 243.614 112.867 242.058 112.951C240.414 113.041 238.781 113.255 238.781 113.255C238.781 113.255 237.325 113.497 236.683 114.104C236.046 114.718 235.874 116.406 236.793 119.607C237.519 122.133 238.421 123.523 238.869 125.363C238.958 125.981 239.035 126.595 239.141 127.304C239.301 130.06 239.135 133.695 239.135 133.695C239.135 133.695 247.063 135.366 250.031 132.829C250.031 132.829 249.488 126.73 249.062 124.361Z"
            fill="#7AC5CD"
            stroke="black"
            stroke-width="0.209888"
            stroke-miterlimit="10"
          />
          <path
            d="M251.083 119.388C251.083 119.388 247.972 121.999 247.789 121.999C247.673 121.999 243.354 118.769 242.352 116.114C241.804 114.645 242.961 113.002 244.279 113.008C245.198 113.013 245.602 113.255 247.418 114.808C249.234 116.367 251.083 119.388 251.083 119.388Z"
            fill="#4F969E"
            stroke="black"
            stroke-width="0.209888"
            stroke-miterlimit="10"
          />
          <path
            d="M241.018 109.142L242.069 108.337C242.069 108.337 242.352 108.771 241.898 109.142C241.344 109.586 241.018 109.142 241.018 109.142Z"
            fill="white"
          />
          <path
            d="M15.1201 167.994H464.88"
            stroke="#091E25"
            stroke-width="3.11834"
            stroke-miterlimit="22.9256"
          />
          <path
            d="M480 167.994H470.062"
            stroke="#091E25"
            stroke-width="3.11834"
            stroke-miterlimit="22.9256"
          />
          <path
            d="M9.93217 167.994H0"
            stroke="#091E25"
            stroke-width="3.11834"
            stroke-miterlimit="22.9256"
          />
          <path
            d="M69.9624 129.782L67.3161 127.728C67.3161 127.728 66.8123 124.122 66.1424 120.92C65.3008 121.162 64.5368 121.832 63.6953 122.068L64.9631 129.236C67.1666 130.389 69.3036 131.897 71.5458 133.157C72.5922 133.731 72.6309 134.339 73.1126 134.84C73.5943 135.34 73.9818 136.274 74.2531 136.241C74.5299 136.207 73.6496 135.155 73.8545 134.975C74.0648 134.795 74.9894 136.252 75.2219 136.207C75.6482 136.117 74.3251 134.553 74.5188 134.502C74.7126 134.446 75.9749 136.049 76.1853 135.701C76.4012 135.357 74.7071 134.181 74.8898 134.03C75.078 133.878 76.368 135.267 76.8053 135.008C77.0434 134.873 74.3085 132.921 74.2918 132.55C74.2697 132.173 75.7202 132.252 75.7756 131.92C75.8199 131.61 73.3617 132.049 72.8967 132.004L72.5313 131.751C71.3797 130.851 70.6988 130.339 69.9624 129.782Z"
            fill="#EDBC8E"
            stroke="#091E25"
            stroke-width="0.209888"
            stroke-miterlimit="10"
          />
          <path
            d="M64.6917 109.426C64.7581 107.811 64.5256 106.213 63.8169 104.711C63.2079 103.417 61.7021 102.68 60.3235 102.68C55.9554 102.674 55.4017 108.559 52.6225 110.832C51.7754 111.53 50.8232 112.092 50.0204 112.841C47.0529 115.603 48.3872 120.723 51.1111 123.142C53.0045 124.825 55.9775 125.781 58.3083 124.464C59.5263 123.784 60.4509 122.642 61.1041 121.393C62.0398 119.615 62.6432 117.572 63.3076 115.682C64.0107 113.668 64.6031 111.575 64.6917 109.426Z"
            fill="#091E25"
          />
          <path
            d="M65.4054 117.251C64.0434 113.043 62.2441 113.111 62.2441 113.111L63.6947 122.068C64.5362 121.831 65.6379 121.314 66.4794 121.072C66.1971 119.738 65.7431 118.287 65.4054 117.251Z"
            fill="#4F969E"
            stroke="#091E25"
            stroke-width="0.209888"
            stroke-miterlimit="10"
          />
          <path
            d="M51.0381 161.451C51.0381 161.451 50.7336 163.629 50.2021 164.326C50.025 164.563 49.7038 164.861 49.4879 165.288C49.1558 165.947 49.3385 166.937 49.5876 167.477C49.7094 167.758 49.5765 167.753 49.8644 167.848C50.7059 168.113 51.6083 167.663 51.9682 166.836C52.1731 166.374 52.3502 165.761 52.3834 164.985C52.472 163.01 53.0755 162.008 53.0755 162.008L51.0381 161.451Z"
            fill="#EDBC8E"
            stroke="#091E25"
            stroke-width="0.209888"
            stroke-miterlimit="10"
          />
          <path
            d="M60.3012 162.447C60.3012 162.447 60.4894 164.895 60.3399 165.694C60.2569 166.121 59.7974 166.999 60.0077 167.398C60.2181 167.804 60.4562 167.899 60.4562 167.899L65.9261 167.995C66.225 167.995 66.0257 167.804 65.7877 167.624C65.3946 167.325 65.0735 167.134 63.8223 166.515C63.7392 166.476 63.4403 166.279 63.3351 166.211C63.0583 166.043 62.787 165.778 62.5489 165.508C62.1558 165.064 62.1226 162.909 62.1226 162.909L60.3012 162.447Z"
            fill="#EDBC8E"
            stroke="#091E25"
            stroke-width="0.209888"
            stroke-miterlimit="10"
          />
          <path
            d="M64.5748 129.865C64.5748 129.865 65.2613 133.842 64.8073 136.453C64.3589 139.064 62.1886 163.245 62.1886 163.245L59.7803 163.386C59.7803 163.386 59.271 153.281 59.3651 151.875C59.4537 150.474 60.1679 148.122 60.1679 148.122L59.9298 139.964L62.9693 129.251L64.5748 129.865Z"
            fill="#FEFEFE"
            stroke="#091E25"
            stroke-width="0.209888"
            stroke-miterlimit="10"
          />
          <path
            d="M57.489 129.027C57.489 129.027 55.5901 131.936 55.1416 134.344C54.6876 136.752 55.4738 144.156 54.5991 147.312C54.1285 149.017 52.3458 151.661 52.0745 153.867C51.8032 156.072 50.7402 161.856 50.7402 161.856L53.1485 162.345L58.7513 147.903L63.1416 134.844L64.271 128.121L57.489 129.027Z"
            fill="#FEFEFE"
            stroke="#091E25"
            stroke-width="0.209888"
            stroke-miterlimit="10"
          />
          <path
            d="M59.0284 112.469C59.0284 112.469 56.5149 112.306 55.5184 113.409C54.5274 114.517 57.7218 123.249 57.9045 124.65C58.0872 126.056 56.9855 129.792 56.9855 129.792C56.9855 129.792 62.8872 131.002 64.5758 129.865C64.5758 129.865 64.753 119.761 64.5758 118.759C64.3931 117.752 62.8872 113.673 62.5274 113.274C62.162 112.869 59.0284 112.469 59.0284 112.469Z"
            fill="#7AC5CD"
            stroke="#091E25"
            stroke-width="0.209888"
            stroke-miterlimit="10"
          />
          <path
            d="M59.8637 109.049C59.8637 109.049 59.8471 109.128 59.825 109.252C59.7142 109.871 59.2824 111.913 58.989 112.47C58.6402 113.151 60.1959 115.311 61.6962 115.052C62.1447 114.968 61.3198 113.061 61.3585 112.858C61.436 112.47 61.5357 111.947 61.6409 111.401C61.7018 111.097 61.7627 110.788 61.818 110.495C61.9786 109.668 62.1115 108.993 62.1115 108.993L59.8637 109.049Z"
            fill="#EDBC8E"
          />
          <path
            d="M59.8252 109.248C59.8474 109.124 59.864 109.046 59.864 109.046L62.1117 108.989C62.1117 108.989 61.9789 109.665 61.8183 110.492C61.7629 110.784 61.702 111.088 61.6411 111.392C61.2979 111.341 60.9325 111.172 60.5726 110.846C60.174 110.492 59.9138 110.07 59.7588 109.614C59.7865 109.468 59.8086 109.344 59.8252 109.248Z"
            fill="#E3AB76"
          />
          <path
            d="M59.8637 109.049C59.8637 109.049 59.8471 109.128 59.825 109.252C59.7142 109.871 59.2824 111.913 58.989 112.47C58.6402 113.151 60.1959 115.311 61.6962 115.052C62.1447 114.968 61.3198 113.061 61.3585 112.858C61.436 112.47 61.5357 111.947 61.6409 111.401C61.7018 111.097 61.7627 110.788 61.818 110.495C61.9786 109.668 62.1115 108.993 62.1115 108.993L59.8637 109.049Z"
            stroke="#091E25"
            stroke-width="0.209888"
            stroke-miterlimit="10"
          />
          <path
            d="M61.3757 103.845C61.3757 103.845 60.3182 103.721 59.6539 104.599C58.9895 105.471 58.2753 108.177 59.9196 109.645C61.5694 111.119 63.2027 109.454 63.4407 107.687C63.6843 105.921 63.7784 103.783 61.3757 103.845Z"
            fill="#EDBC8E"
            stroke="#091E25"
            stroke-width="0.209888"
            stroke-miterlimit="10"
          />
          <path
            d="M63.9332 107.66C63.7339 108.054 63.4017 108.268 63.1913 108.144C62.9809 108.02 62.9699 107.604 63.1692 107.216C63.363 106.827 63.6951 106.608 63.9055 106.732C64.1159 106.856 64.127 107.272 63.9332 107.66Z"
            fill="#EDBC8E"
          />
          <path
            d="M61.4918 103.558C61.4918 103.558 60.0801 106.129 59.0669 106.247C58.0538 106.365 57.9209 107.732 57.9209 107.732C57.9209 107.732 58.2808 104.582 59.2828 103.98C60.2849 103.372 61.4918 103.558 61.4918 103.558Z"
            fill="#091E25"
          />
          <path
            d="M52.1346 166.403C50.8225 166.645 49.9478 165.863 49.4938 165.278C49.1616 165.942 48.9955 166.932 49.2391 167.478C49.455 167.956 50.0917 167.945 50.59 167.962C51.1104 167.984 51.5201 167.686 51.7803 167.219C51.9021 167 52.0294 166.73 52.1346 166.403Z"
            fill="#091E25"
            stroke="#091E25"
            stroke-width="0.209888"
            stroke-miterlimit="10"
          />
          <path
            d="M63.3294 166.212C61.8844 166.594 60.8159 166.335 60.218 166.088C60.063 166.532 59.8637 167.095 59.9688 167.416C60.1017 167.809 60.2899 167.899 60.456 167.899C61.7792 167.939 65.2948 167.984 66.3024 168.001C66.4408 168.001 66.5183 167.832 66.4297 167.725C66.1806 167.421 63.4401 166.279 63.3294 166.212Z"
            fill="#091E25"
            stroke="#091E25"
            stroke-width="0.209888"
            stroke-miterlimit="10"
          />
          <path
            d="M59.3327 106.894C59.4158 107.35 59.2497 107.772 58.9618 107.828C58.6739 107.89 58.3749 107.569 58.2919 107.114C58.2144 106.658 58.3749 106.236 58.6628 106.174C58.9507 106.118 59.2497 106.438 59.3327 106.894Z"
            fill="#EDBC8E"
          />
          <path
            d="M60.9825 108.475L62.2614 108.537C62.2614 108.537 62.2116 109.026 61.6469 109.021C60.9604 109.01 60.9825 108.475 60.9825 108.475Z"
            fill="white"
          />
          <path
            d="M68.036 119.25C68.1246 118.985 66.8678 118.771 66.8014 118.507C66.7349 118.243 68.3903 118.22 68.4512 117.984C68.5564 117.556 66.6353 117.894 66.674 117.691C66.7128 117.494 68.6782 117.044 68.4678 116.695C68.2519 116.352 66.4747 117.382 66.4194 117.145C66.364 116.909 68.1578 116.341 68.1246 115.829C68.1079 115.553 65.1848 117.196 64.8415 117.05C64.5038 116.898 65.2069 115.609 64.9412 115.418C64.6699 115.221 63.8948 118.04 63.7066 118.136C63.5183 118.226 59.5654 120.521 58.1592 120.887C57.9875 120.409 57.6221 119.762 57.4727 119.306C56.681 119.88 56.0941 120.167 55.2803 120.684C55.8727 122.187 56.7086 123.835 57.1183 124.021C58.3751 124.595 63.2138 120.516 64.1827 119.818C65.146 119.12 65.6996 119.345 66.3585 119.126C67.0118 118.906 67.9474 119.508 68.036 119.25Z"
            fill="#EDBC8E"
            stroke="#091E25"
            stroke-width="0.209888"
            stroke-miterlimit="10"
          />
          <path
            d="M55.1077 121.404C55.1077 121.404 54.0281 116.543 54.2164 115.13C54.4046 113.718 56.0544 112.407 57.1949 112.891C58.3409 113.381 58.8558 120.171 58.8558 120.171L55.1077 121.404Z"
            fill="#4F969E"
            stroke="#091E25"
            stroke-width="0.209888"
            stroke-miterlimit="10"
          />
          <path
            d="M416.105 116.633C416.105 116.633 415.884 116.115 415.735 115.873C415.674 115.766 415.53 115.586 415.375 115.418C415.258 115.136 415.126 114.866 415.048 114.787C414.993 114.731 414.81 114.804 414.788 115.046C414.788 115.08 414.793 115.125 414.799 115.176C414.649 115.496 414.35 116.368 414.55 116.633C414.777 116.942 414.533 117.477 415.663 117.798L416.105 116.633Z"
            fill="#FFB27D"
            stroke="#091E25"
            stroke-width="0.209888"
            stroke-miterlimit="22.9256"
          />
          <path
            d="M428.646 113.364C428.646 113.364 422.872 118.265 420.618 117.809C418.858 117.455 416.073 116.554 416.073 116.554C416.073 116.554 415.342 117.269 415.547 118.119C415.547 118.119 419.096 121.511 421.62 121.534C425.568 121.567 427.433 119.542 427.433 119.542L428.646 113.364Z"
            fill="#4F969E"
            stroke="#091E25"
            stroke-width="0.209888"
            stroke-miterlimit="22.9256"
          />
          <path
            d="M438.772 165.036C438.772 165.036 438.605 167.781 438.079 167.82C438.013 167.826 435.428 167.826 435.428 167.826L432.128 167.809C432.128 167.809 432.15 166.999 433.113 166.83C434.077 166.656 435.693 165.969 436.275 164.675C436.889 163.314 438.772 165.036 438.772 165.036Z"
            fill="#091E25"
          />
          <path
            d="M438.959 165.226C438.959 165.226 437.957 165.563 437.177 165.563C436.302 165.563 435.51 165.321 435.51 165.321C435.51 165.321 435.322 163.465 434.281 159.38C433.739 157.237 432.958 154.48 431.851 151.059C428.795 141.596 427.865 136.065 427.776 135.536C427.771 135.514 427.771 135.497 427.771 135.497L427.782 135.491L437.188 131.294C437.188 131.294 436.025 144.336 437.509 149.337C437.714 150.041 437.896 150.856 438.046 151.74C438.982 157.175 438.959 165.226 438.959 165.226Z"
            fill="#FEFEFE"
            stroke="#091E25"
            stroke-width="0.209888"
            stroke-miterlimit="22.9256"
          />
          <path
            d="M431.424 165.036C431.424 165.036 431.258 167.781 430.732 167.82C430.665 167.826 428.08 167.826 428.08 167.826L424.78 167.809C424.78 167.809 424.802 166.999 425.766 166.83C426.729 166.656 428.346 165.969 428.927 164.675C429.542 163.314 431.424 165.036 431.424 165.036Z"
            fill="#091E25"
          />
          <path
            d="M426.093 131.605C426.093 131.605 425.972 140.056 427.411 150.431C428.845 160.805 428.358 165.205 428.358 165.205C428.358 165.205 429.349 165.531 429.747 165.565C430.76 165.65 431.807 165.323 431.807 165.323C431.807 165.323 433.866 154.948 433.274 149.755C432.682 144.562 436.092 131.932 436.092 131.932L426.093 131.605Z"
            fill="#FEFEFE"
            stroke="#091E25"
            stroke-width="0.209888"
            stroke-miterlimit="22.9256"
          />
          <path
            d="M432.765 111.829L430.927 113.055L429.255 112.572C428.95 112.133 428.867 111.277 428.862 110.535C428.856 109.803 428.928 109.179 428.928 109.179L431.403 108.071L432.327 107.654C432.327 107.671 432.255 108.425 432.25 108.537C432.073 110.495 432.765 111.829 432.765 111.829Z"
            fill="#E5BF82"
          />
          <path
            d="M432.062 108.573C431.558 109.434 429.797 110.194 428.862 110.537C428.856 109.805 428.928 109.181 428.928 109.181L431.403 108.072C431.951 108.061 432.289 108.185 432.062 108.573Z"
            fill="#E3AB76"
          />
          <path
            d="M432.765 111.829L430.927 113.055L429.255 112.572C428.95 112.133 428.867 111.277 428.862 110.535C428.856 109.803 428.928 109.179 428.928 109.179L431.403 108.071L432.327 107.654C432.327 107.671 432.255 108.425 432.25 108.537C432.073 110.495 432.765 111.829 432.765 111.829V111.829Z"
            stroke="#091E25"
            stroke-width="0.209888"
            stroke-miterlimit="22.9256"
          />
          <path
            d="M426.049 133.952C428.336 136.196 436.984 135.82 437.521 133.35C438.052 130.88 436.939 112.319 433.031 111.149C432.222 110.907 427.893 112.33 427.893 112.33C427.893 112.33 427.212 114.136 426.764 116.437C426.681 116.887 426.426 121.63 426.238 126.069C426.149 128.14 426.077 130.154 426.038 131.622C426.005 133.001 426 133.907 426.049 133.952Z"
            fill="#7AC5CD"
            stroke="#091E25"
            stroke-width="0.209888"
            stroke-miterlimit="22.9256"
          />
          <path
            d="M427.992 109.027C427.992 109.027 431.983 110.292 432.72 107.755C433.456 105.212 434.469 103.67 431.95 102.753C429.437 101.836 428.656 102.658 428.208 103.445C427.759 104.233 426.973 108.633 427.992 109.027Z"
            fill="#E5BF82"
            stroke="#091E25"
            stroke-width="0.209888"
            stroke-miterlimit="22.9256"
          />
          <path
            d="M428.363 103.198C428.363 103.198 428.618 106.152 429.221 106.022C429.825 105.899 430.483 105.623 430.395 106.512C430.306 107.401 430.982 108.931 431.845 108.926C433.705 108.92 435.726 104.07 435.217 103.153C433.75 100.497 426.242 99.963 428.363 103.198Z"
            fill="#091E25"
          />
          <path
            d="M428.95 111.215C429.005 111.193 431.923 109.859 432.266 109.978C432.61 110.09 433.03 111.148 433.03 111.148L427.893 112.329C427.893 112.329 428.297 111.497 428.95 111.215Z"
            fill="#4F969E"
            stroke="#091E25"
            stroke-width="0.209888"
            stroke-miterlimit="22.9256"
          />
          <path
            d="M426.037 131.621C435.056 125.089 434.303 116.374 434.303 116.374C431.009 118.264 427.737 122.445 426.236 126.068C426.148 128.138 426.076 130.153 426.037 131.621Z"
            fill="#4F969E"
          />
          <path
            d="M417.136 128.646C416.499 128.499 416.073 128.01 415.984 127.926C415.984 127.926 415.713 127.942 416.028 128.533C416.056 128.578 416.111 128.708 416.156 128.798C416.178 128.831 416.15 128.876 416.111 128.876C415.746 128.905 415.375 128.758 414.666 128.91C414.572 128.927 414.539 129.169 414.545 129.27C414.55 129.439 414.539 129.63 414.733 129.895C414.849 130.047 415.165 130.21 415.873 130.502C416.145 130.609 416.914 130.525 417.639 130.277L418.215 130.002L418.038 128.916L417.894 128.944C417.661 128.995 417.374 128.708 417.136 128.646Z"
            fill="#FFB27D"
            stroke="#091E25"
            stroke-width="0.209888"
            stroke-miterlimit="22.9256"
          />
          <path
            d="M431.508 112.329C431.508 112.329 439.613 113.899 429.122 125.826C427.444 127.733 418.381 130.215 418.381 130.215C418.381 130.215 417.462 129.421 417.927 128.774C417.927 128.774 424.167 124.172 425.54 123.441C426.16 123.109 427.937 116.093 428.945 114.399C429.952 112.711 431.508 112.329 431.508 112.329Z"
            fill="#7AC5CD"
            stroke="#091E25"
            stroke-width="0.209888"
            stroke-miterlimit="22.9256"
          />
          <path
            d="M427.549 107.548L428.214 107.733C428.214 107.733 428.064 108.161 427.588 108.105C427.565 107.93 427.554 107.745 427.549 107.548Z"
            fill="white"
          />
          <path
            d="M341.901 110.462C342.05 110.63 342.067 110.822 341.995 111.024C341.857 111.401 341.419 111.823 340.904 112.239C340.838 112.296 340.783 112.341 340.733 112.386C340.716 112.403 340.705 112.414 340.688 112.425C340.683 112.431 340.672 112.442 340.661 112.453C340.185 112.898 340.362 113.005 339.504 113.91C338.524 114.951 337.848 114.968 337.655 114.872C337.494 114.794 337.826 114.242 338.192 113.623C338.208 113.595 338.225 113.567 338.241 113.533C338.291 113.455 338.341 113.37 338.385 113.286C338.817 112.543 338.706 112.194 338.607 111.086C338.524 110.191 337.223 106.062 337.223 106.062L339.105 105.735C339.105 105.735 339.67 109.021 340.295 109.528C340.627 109.792 340.998 109.798 341.32 110C341.342 110.011 341.364 110.023 341.386 110.04C341.569 110.163 341.757 110.287 341.901 110.462Z"
            fill="#E5BF82"
          />
          <path
            d="M335.34 102.163L337.544 108.183C337.544 108.183 338.142 108.239 338.712 108.071C339.238 107.919 339.847 107.514 339.847 107.514C339.847 107.514 339.232 101.055 338.092 97.347C337.798 96.3905 337.472 95.6254 337.106 95.1921C335.34 93.0711 333.657 97.5608 333.657 97.5608L335.34 102.163Z"
            fill="#FEFEFE"
            stroke="#091E25"
            stroke-width="0.209888"
            stroke-miterlimit="22.9256"
          />
          <path
            d="M341.901 110.462C342.051 110.631 342.067 110.823 341.995 111.025C341.829 111.402 341.397 111.818 340.905 112.235C340.838 112.291 340.783 112.342 340.733 112.387C340.716 112.404 340.705 112.415 340.689 112.426C340.683 112.432 340.672 112.443 340.661 112.454C340.185 112.899 340.362 113.006 339.504 113.911C338.524 114.952 337.849 114.969 337.655 114.873C337.494 114.795 337.826 114.243 338.192 113.624C338.38 113.557 339.266 113.191 339.936 112.319C340.506 111.582 340.888 110.637 341.276 110.063C341.32 110.052 341.348 110.046 341.386 110.041C341.569 110.164 341.757 110.288 341.901 110.462Z"
            fill="#091E25"
          />
          <path
            d="M326.754 109.275C326.638 109.861 325.813 109.765 324.888 109.534C323.964 109.309 324.185 109.579 322.873 109.433C321.555 109.287 321.157 108.786 321.118 108.589C321.079 108.415 321.732 108.347 322.43 108.268C322.513 108.257 322.602 108.246 322.69 108.235C323.476 108.133 324.052 107.621 324.766 107.194C325.442 106.794 326.455 105.157 326.455 105.157L328.254 105.303C328.254 105.303 327.313 106.766 326.942 107.396C326.732 107.773 326.743 108.268 326.77 108.645C326.781 108.853 326.798 109.067 326.754 109.275Z"
            fill="#E5BF82"
          />
          <path
            d="M324.888 109.534C323.964 109.309 324.185 109.579 322.873 109.432C321.555 109.286 321.157 108.785 321.118 108.589C321.079 108.414 321.732 108.347 322.43 108.268L322.436 108.279C322.436 108.279 323.222 108.847 324.318 108.875C325.209 108.898 326.15 108.639 326.77 108.645C326.781 108.853 326.798 109.067 326.754 109.275C326.638 109.86 325.813 109.764 324.888 109.534Z"
            fill="#091E25"
          />
          <path
            d="M335.369 90.2416C336.327 89.9265 338.829 90.2359 341.548 90.731C342.295 90.8717 343.048 90.5229 343.447 89.859L350.278 89.3132C350.278 89.3132 352.532 94.3937 351.297 97.6344C351.12 98.107 350.721 98.4052 350.107 98.4165C350.107 98.4165 345.977 98.4221 344.659 98.4221C341.26 98.4221 337.467 96.0534 336.975 95.9522C336.172 95.789 335.851 97.4206 335.048 99.1366C334.251 100.853 327.507 106.726 327.507 106.726C327.507 106.726 326.467 106.738 326.04 106.574C325.581 106.4 325.409 106.175 325.409 106.175C325.409 106.175 332.878 91.0574 335.369 90.2416Z"
            fill="#FEFEFE"
            stroke="#091E25"
            stroke-width="0.209888"
            stroke-miterlimit="22.9256"
          />
          <path
            d="M344.166 69.4751C344.67 69.1656 345.168 69.1206 345.467 69.1319C345.677 69.1375 345.888 69.1206 346.098 69.0925C348.706 68.6987 350.278 72.547 350.367 73.7116C350.538 75.844 351.651 76.1703 353.212 77.5093C356.351 80.1874 355.432 83.3043 353.722 84.4633C352.692 85.1554 350.876 84.4633 350.876 84.4633C350.848 84.4802 345.915 81.6615 343.485 80.2999C339.836 79.7767 342.699 70.364 344.166 69.4751Z"
            fill="#091E25"
          />
          <path
            d="M345.522 79.1407C345.511 79.1463 346.718 79.5682 347.526 79.2025C348.285 78.8593 348.86 77.5934 348.849 77.5878C348.5 77.5766 348.124 77.2671 347.831 75.2529L347.681 75.3092L345.212 76.2094C345.212 76.2094 345.389 77.0196 345.505 77.7847C345.605 78.4317 345.655 79.0506 345.522 79.1407Z"
            fill="#E5BF82"
            stroke="#091E25"
            stroke-width="0.209888"
            stroke-miterlimit="22.9256"
          />
          <path
            d="M342.725 87.8339C342.786 90.6077 342.875 89.8706 343.451 90.377C343.633 90.5345 344.137 90.6302 344.807 90.6752C346.911 90.8159 350.604 90.467 350.742 90.0676C351.224 88.706 350.886 88.2784 351.285 86.1911C351.329 85.966 351.384 85.7241 351.44 85.4653C351.777 84.0306 352.11 83.5411 350.908 81.2344C349.823 79.1471 348.699 77.4479 348.594 77.5098C345.737 79.2371 345.505 77.7855 345.505 77.7855C345.505 77.7855 342.559 78.2975 342.216 79.5859C341.867 80.8743 340.732 88.6948 340.732 88.6948C340.732 88.6948 341.563 89.5162 342.255 88.8129C342.388 88.6779 342.554 88.3234 342.725 87.8339Z"
            fill="#7AC5CD"
            stroke="#091E25"
            stroke-width="0.209888"
            stroke-miterlimit="22.9256"
          />
          <path
            d="M344.808 90.675C346.911 90.8156 350.604 90.4668 350.743 90.0673C351.224 88.7058 350.887 88.2782 351.285 86.1909L350.272 83.2877C350.272 83.2877 350.444 86.5172 349.508 87.3667C348.567 88.2163 345.671 89.0096 345.212 89.7185C344.996 90.0617 344.852 90.3993 344.808 90.675Z"
            fill="#4F969E"
          />
          <path
            d="M347.216 89.3195C347.216 89.3195 345.14 88.8468 344.808 89.0381C344.476 89.2238 343.656 89.9046 343.557 90.1409C343.452 90.3772 344.299 89.9608 344.576 89.8877C344.753 89.8371 345.223 90.0002 345.456 90.0846C346.43 90.4109 347.034 90.2422 347.034 90.2422L347.216 89.3195Z"
            fill="#FFB27D"
            stroke="#091E25"
            stroke-width="0.209888"
            stroke-miterlimit="22.9256"
          />
          <path
            d="M348.599 77.5093C348.599 77.5093 351.384 77.6837 352.347 79.0452C353.704 80.9694 356.395 89.1612 354.855 90.2527C353.117 91.4848 346.95 90.579 346.95 90.579C346.95 90.579 346.745 89.6057 347.033 89.1331C347.315 88.6605 351.954 87.8953 352.17 87.6815C352.386 87.4621 349.491 83.4393 349.491 82.7867C349.491 82.134 348.599 77.5093 348.599 77.5093Z"
            fill="#7AC5CD"
            stroke="#091E25"
            stroke-width="0.209888"
            stroke-miterlimit="22.9256"
          />
          <path
            d="M334.023 90.5056L347.216 90.5V90.793L334.145 90.7986L334.023 90.5056Z"
            fill="#223861"
          />
          <path
            d="M344.133 90.7989H334.146L331.134 83.2091L341.11 83.2035L344.133 90.7989Z"
            fill="#091E25"
          />
          <path
            d="M336.665 87.0008C336.587 86.7363 336.742 86.5167 337.002 86.5167C337.268 86.5167 337.54 86.7363 337.617 87.0008C337.689 87.271 337.54 87.485 337.274 87.485C337.014 87.485 336.737 87.271 336.665 87.0008Z"
            fill="white"
          />
          <path
            d="M345.278 76.2205C345.278 76.2205 345.378 76.6537 345.522 77.4639C346.939 77.2051 347.548 76.0911 347.748 75.3147L345.278 76.2205Z"
            fill="#E3AB76"
          />
          <path
            d="M344.841 77.0144C344.841 77.0144 348.224 76.5531 347.908 74.4151C347.592 72.2771 347.819 70.7749 345.644 70.9831C343.468 71.1857 343.169 72.0633 343.103 72.806C343.042 73.543 343.95 77.0763 344.841 77.0144Z"
            fill="#E5BF82"
            stroke="#091E25"
            stroke-width="0.209888"
            stroke-miterlimit="22.9256"
          />
          <path
            d="M343.23 71.6368C343.23 71.6368 345.395 73.5328 346.868 73.6847C348.346 73.8366 348.9 73.3528 348.9 73.3528C348.9 73.3528 348.03 72.6214 347.51 71.4399C347.355 71.091 347.028 70.8547 346.657 70.821C345.606 70.7253 343.607 70.6859 343.23 71.6368Z"
            fill="#091E25"
          />
          <path
            d="M344.581 71.462C344.581 71.462 343.855 72.1765 343.628 72.7054C343.407 73.2174 343.346 74.4326 343.518 74.9165C343.518 74.9165 342.388 72.6885 343.031 71.6027C343.706 70.4549 344.581 71.462 344.581 71.462Z"
            fill="#091E25"
          />
          <path
            d="M343.967 75.9352C344.033 76.0816 344.1 76.2223 344.172 76.3518C344.277 76.3574 344.41 76.3293 344.565 76.2617C345.091 76.0253 344.931 75.5299 344.931 75.5299L343.967 75.9352Z"
            fill="#FEFEFE"
          />
        </svg>