<svg width="100%" height="100%" viewBox="0 0 20 20" fill="none" xmlns="http://www.w3.org/2000/svg">
<path d="M1.00001 8C0.716677 8 0.479177 7.9 0.28751 7.7C0.0958433 7.5 0.0166766 7.26667 0.0500099 7C0.166677 5.9 0.454177 4.84583 0.91251 3.8375C1.37084 2.82917 1.97501 1.925 2.72501 1.125C2.90834 0.941667 3.14168 0.85 3.42501 0.85C3.70834 0.85 3.95001 0.95 4.15001 1.15C4.33334 1.33333 4.42501 1.55833 4.42501 1.825C4.42501 2.09167 4.33334 2.33333 4.15001 2.55C3.56668 3.18333 3.09584 3.87083 2.73751 4.6125C2.37918 5.35417 2.15001 6.15 2.05001 7C2.01668 7.28333 1.90418 7.52083 1.71251 7.7125C1.52084 7.90417 1.28334 8 1.00001 8ZM19 8C18.7333 8 18.5 7.90417 18.3 7.7125C18.1 7.52083 17.9833 7.28333 17.95 7C17.85 6.15 17.6208 5.35417 17.2625 4.6125C16.9042 3.87083 16.4333 3.18333 15.85 2.55C15.6667 2.33333 15.575 2.09167 15.575 1.825C15.575 1.55833 15.675 1.33333 15.875 1.15C16.075 0.95 16.3125 0.85 16.5875 0.85C16.8625 0.85 17.0917 0.941667 17.275 1.125C18.025 1.925 18.6292 2.82917 19.0875 3.8375C19.5458 4.84583 19.8333 5.9 19.95 7C19.9833 7.26667 19.9042 7.5 19.7125 7.7C19.5208 7.9 19.2833 8 19 8ZM3.00001 17C2.71668 17 2.47918 16.9042 2.28751 16.7125C2.09584 16.5208 2.00001 16.2833 2.00001 16C2.00001 15.7167 2.09584 15.4792 2.28751 15.2875C2.47918 15.0958 2.71668 15 3.00001 15H4.00001V8C4.00001 6.61667 4.41668 5.3875 5.25001 4.3125C6.08334 3.2375 7.16668 2.53333 8.50001 2.2V1.5C8.50001 1.08333 8.64584 0.729167 8.93751 0.4375C9.22918 0.145833 9.58334 0 10 0C10.4167 0 10.7708 0.145833 11.0625 0.4375C11.3542 0.729167 11.5 1.08333 11.5 1.5V2.2C12.8333 2.53333 13.9167 3.2375 14.75 4.3125C15.5833 5.3875 16 6.61667 16 8V15H17C17.2833 15 17.5208 15.0958 17.7125 15.2875C17.9042 15.4792 18 15.7167 18 16C18 16.2833 17.9042 16.5208 17.7125 16.7125C17.5208 16.9042 17.2833 17 17 17H3.00001ZM10 20C9.45001 20 8.97918 19.8042 8.58751 19.4125C8.19584 19.0208 8.00001 18.55 8.00001 18H12C12 18.55 11.8042 19.0208 11.4125 19.4125C11.0208 19.8042 10.55 20 10 20Z" fill="var(--mainBlue)"/>
</svg>
