<svg width="16" height="16" viewBox="0 0 16 16" fill="none" xmlns="http://www.w3.org/2000/svg">
<path d="M8.00008 4.66667C9.84008 4.66667 11.3334 6.16 11.3334 8C11.3334 8.43333 11.2467 8.84 11.0934 9.22L13.0401 11.1667C14.0467 10.3267 14.8401 9.24 15.3267 8C14.1734 5.07333 11.3267 3 7.99341 3C7.06008 3 6.16675 3.16667 5.34008 3.46667L6.78008 4.90667C7.16008 4.75333 7.56675 4.66667 8.00008 4.66667ZM1.33341 2.84667L2.85342 4.36667L3.16008 4.67333C2.05341 5.53333 1.18675 6.68 0.666748 8C1.82008 10.9267 4.66675 13 8.00008 13C9.03341 13 10.0201 12.8 10.9201 12.44L11.2001 12.72L13.1534 14.6667L14.0001 13.82L2.18008 2L1.33341 2.84667ZM5.02008 6.53333L6.05341 7.56667C6.02008 7.70667 6.00008 7.85333 6.00008 8C6.00008 9.10667 6.89341 10 8.00008 10C8.14675 10 8.29341 9.98 8.43341 9.94667L9.46675 10.98C9.02008 11.2 8.52675 11.3333 8.00008 11.3333C6.16008 11.3333 4.66675 9.84 4.66675 8C4.66675 7.47333 4.80008 6.98 5.02008 6.53333ZM7.89341 6.01333L9.99341 8.11333L10.0067 8.00667C10.0067 6.9 9.11341 6.00667 8.00675 6.00667L7.89341 6.01333Z" fill="#8E8E8E"/>
</svg>
