<svg class="svgenv" viewBox="0 0 416 186" fill="none" xmlns="http://www.w3.org/2000/svg">
    <path d="M415 1L412.868 25.0124L400.466 18.848L415 1Z" fill="#F4F4F4" stroke="#091E25"
        stroke-linejoin="round" />
    <path d="M415 1L395.753 17.518L385 16.4587L415 1Z" fill="#F4F4F4" stroke="#091E25"
        stroke-linejoin="round" />
    <path d="M415 1L400.465 18.848L398.553 26L395.753 17.518L415 1Z" fill="#BCBCBC" stroke="#091E25"
        stroke-linejoin="round" />
    <path
        d="M137.145 105C112.714 74.0496 62.3075 14.1301 15.6043 41.8423C-30.5476 69.2214 41.0462 146.855 113.862 40.3605C125.476 23.3786 148.492 2.83379 173.309 12.4652C211.247 27.1829 233.951 70.7365 290.651 69.954C330.417 69.4129 365.626 46.1876 395 24.2693"
        stroke="#BCBCBC" stroke-width="2" stroke-miterlimit="25.08" stroke-dasharray="4 10" />
    <path
        d="M85.2238 101.624L82.0941 118.176C81.6217 120.127 77.3699 148.361 79.6308 148.886L125.717 131.901L155.884 163.912C158.145 164.438 168.698 139.731 169.162 137.796L175.573 122.787L139.467 75.3584L85.2238 101.624Z"
        fill="#00BBBB" stroke="#091E25" stroke-width="1.36" stroke-linejoin="round" />
    <path
        d="M99.5314 75.0083L80.5166 154.223L156.019 171.917L175.017 92.7024C150.552 86.9573 124.603 80.8869 99.5314 75V75.0083Z"
        fill="white" stroke="#091E25" stroke-width="1.36" stroke-linejoin="round" />
    <path
        d="M124.746 139.805L150.096 124.63L175.404 123.412L163.071 178.821L157.495 177.503L145.819 174.768L123.953 143.082C123.781 142.818 123.665 142.521 123.611 142.211C123.558 141.901 123.569 141.583 123.643 141.277C123.717 140.971 123.853 140.683 124.043 140.43C124.232 140.177 124.471 139.965 124.746 139.805Z"
        fill="#00BBBB" />
    <path d="M167.019 162.502L133.79 134.352L132.879 134.902L165.864 167.305L167.019 162.502Z"
        fill="#009999" />
    <path
        d="M124.746 139.805L150.096 124.63L175.404 123.412L163.071 178.821L157.495 177.503L145.819 174.768L123.953 143.082C123.781 142.818 123.665 142.521 123.611 142.211C123.558 141.901 123.569 141.583 123.643 141.277C123.717 140.971 123.853 140.683 124.043 140.43C124.232 140.177 124.471 139.964 124.746 139.805V139.805Z"
        stroke="#091E25" stroke-width="1.36" stroke-linejoin="round" />
    <path
        d="M123.016 139.355L107.25 114.556L85.1303 102.174L71 157.207L76.1122 158.45L88.1504 161.251L122.198 142.673C122.484 142.518 122.735 142.306 122.934 142.05C123.134 141.795 123.278 141.501 123.357 141.188C123.436 140.875 123.449 140.549 123.395 140.23C123.341 139.912 123.22 139.608 123.042 139.338L123.016 139.355Z"
        fill="#00BBBB" />
    <path d="M74.9152 140.915L117.391 130.517L117.956 131.409L73.7764 145.718L74.9152 140.915Z"
        fill="#009999" />
    <path
        d="M123.016 139.355L107.25 114.556L85.1303 102.174L71 157.207L76.1122 158.45L88.1504 161.251L122.198 142.673C122.484 142.518 122.735 142.306 122.934 142.05C123.134 141.795 123.278 141.501 123.357 141.188C123.436 140.875 123.449 140.549 123.395 140.23C123.341 139.912 123.22 139.608 123.042 139.338L123.016 139.355Z"
        stroke="#091E25" stroke-width="1.36" stroke-linejoin="round" />
    <path
        d="M165.863 167.306L163.104 178.821L71 157.233L73.9779 145.651L126.155 129.475L165.863 167.306Z"
        fill="#00BBBB" stroke="#091E25" stroke-width="1.36" stroke-linejoin="round" />
    <path
        d="M168.268 162.594L135.587 149.737L146.385 185L199 169.257L188.202 134.002L168.268 162.594Z"
        fill="white" stroke="#091E25" stroke-width="0.9" stroke-linejoin="round" />
    <path d="M135.587 149.737L146.385 185L163.367 160.669L135.587 149.737Z" fill="white"
        stroke="#091E25" stroke-width="0.9" stroke-linejoin="round" />
    <path d="M188.202 134.002L199 169.257L171.212 158.325L188.202 134.002Z" fill="white"
        stroke="#091E25" stroke-width="0.9" stroke-linejoin="round" />
    <path
        d="M135.587 149.737L139.586 151.504L168.462 163.545L185.857 137.663L188.202 134.002L135.587 149.737Z"
        fill="white" stroke="#091E25" stroke-width="0.9" stroke-linejoin="round" />
</svg>