<svg width="100%" height="100%" viewBox="0 0 24 24" fill="none" xmlns="http://www.w3.org/2000/svg">
<path d="M12 9.4C13.2151 9.4 14.2 8.41503 14.2 7.2C14.2 5.98497 13.2151 5 12 5C10.785 5 9.80005 5.98497 9.80005 7.2C9.80005 8.41503 10.785 9.4 12 9.4Z" fill="#FFBE00"/>
<path d="M22.9998 6.32819C23.0009 6.50091 22.967 6.67208 22.9004 6.83152C22.8338 6.99097 22.7357 7.13543 22.612 7.25634L16.4451 13.4182C16.3151 13.5384 16.2113 13.684 16.1401 13.8459C16.069 14.0077 16.032 14.1825 16.0314 14.3593V20H7.98986V14.3721C7.99262 14.1973 7.95966 14.0236 7.89298 13.8619C7.8263 13.7001 7.7273 13.5535 7.602 13.4311L1.40926 7.26923C1.28009 7.14865 1.17711 7.00291 1.10672 6.84104C1.03632 6.67917 1 6.50462 1 6.32819C1 6.15176 1.03632 5.9772 1.10672 5.81534C1.17711 5.65347 1.28009 5.50773 1.40926 5.38715C1.53353 5.26062 1.68261 5.16098 1.84722 5.09444C2.01182 5.0279 2.18841 4.9959 2.36596 5.00042C2.71875 5.00339 3.0568 5.14191 3.30974 5.38715L8.48114 10.5435C8.6043 10.6724 8.75288 10.7744 8.91754 10.8432C9.0822 10.912 9.25935 10.946 9.43785 10.9432H14.5963C14.7748 10.946 14.952 10.912 15.1166 10.8432C15.2813 10.7744 15.4299 10.6724 15.553 10.5435L20.7244 5.38715C20.9791 5.14595 21.317 5.01147 21.6682 5.01147C22.0195 5.01147 22.3573 5.14595 22.612 5.38715C22.7373 5.50956 22.8363 5.65612 22.903 5.8179C22.9696 5.97968 23.0026 6.1533 22.9998 6.32819Z" fill="#FFBE00"/>
</svg>
