<svg width="16" height="16" viewBox="0 0 16 16" fill="none" xmlns="http://www.w3.org/2000/svg">
<path d="M7.99722 1.70355C10.0516 1.70355 10.2937 1.70355 11.1024 1.75078C11.5884 1.75746 12.0696 1.84731 12.5252 2.01643C12.8614 2.14326 13.1643 2.34517 13.4107 2.60677C13.6697 2.85537 13.8712 3.1576 14.001 3.49229C14.1715 3.94751 14.2614 4.42895 14.2667 4.91502C14.3021 5.72379 14.308 5.96583 14.308 8.01432C14.308 10.0628 14.308 10.3108 14.2667 11.1195C14.2607 11.6055 14.1708 12.0868 14.001 12.5423C13.8748 12.8746 13.6796 13.1763 13.4283 13.4277C13.1769 13.679 12.8752 13.8742 12.5429 14.0004C12.0862 14.1635 11.605 14.2473 11.1201 14.2484C10.3114 14.2838 10.0693 14.2897 8.01493 14.2897C5.96054 14.2897 5.7244 14.2897 4.91563 14.2484C4.42956 14.2431 3.94812 14.1532 3.4929 13.9827C3.15821 13.8528 2.85598 13.6513 2.60738 13.3924C2.34578 13.1459 2.14388 12.8431 2.01704 12.5068C1.85119 12.0626 1.76138 11.5936 1.75139 11.1195C1.71597 10.3108 1.70416 10.0687 1.70416 8.01432C1.70416 5.95993 1.70416 5.72379 1.75139 4.91502C1.75665 4.42895 1.84654 3.94751 2.01704 3.49229C2.14324 3.16 2.33845 2.85823 2.58979 2.60689C2.84113 2.35555 3.14289 2.16034 3.47519 2.03414C3.93041 1.86364 4.41185 1.77375 4.89792 1.76849C5.70669 1.73306 5.94873 1.72126 7.99722 1.72126M7.99722 0.339854C5.91331 0.339854 5.63585 0.339854 4.83298 0.387081C4.19747 0.398352 3.56855 0.518146 2.9734 0.741288C2.46175 0.937547 1.9971 1.23921 1.60961 1.62671C1.22211 2.0142 0.920447 2.47885 0.724188 2.9905C0.501046 3.58565 0.381252 4.21457 0.369981 4.85008C0.334561 5.67066 0.322754 5.93041 0.322754 8.01432C0.322754 10.0982 0.322754 10.3757 0.369981 11.1786C0.381389 11.816 0.501167 12.4468 0.724188 13.0441C0.918315 13.555 1.22035 14.0182 1.6097 14.4018C1.99677 14.7813 2.46223 15.0715 2.9734 15.2519C3.56891 15.4746 4.1974 15.5963 4.83298 15.612C5.65356 15.6475 5.91331 15.6593 7.99722 15.6593C10.0811 15.6593 10.3586 15.6593 11.1615 15.612C11.7989 15.5962 12.4294 15.4745 13.0269 15.2519C13.5362 15.0544 13.9987 14.7528 14.3849 14.3666C14.7712 13.9804 15.0727 13.5179 15.2703 13.0086C15.4928 12.411 15.6145 11.7806 15.6304 11.1431C15.6658 10.3285 15.6776 10.0628 15.6776 7.9789C15.6776 5.89499 15.6776 5.61753 15.6304 4.81466C15.607 4.18405 15.4793 3.56167 15.2525 2.97279C15.0617 2.45838 14.7593 1.99266 14.367 1.60909C13.9834 1.21974 13.5202 0.917705 13.0092 0.723577C12.412 0.500556 11.7812 0.380778 11.1438 0.369371C10.3291 0.33395 10.0634 0.322144 7.97951 0.322144" fill="white"/>
<path d="M7.99696 4.03626C7.21676 4.03626 6.45409 4.26769 5.80546 4.70127C5.15683 5.13485 4.65138 5.75109 4.35308 6.47201C4.05478 7.19293 3.97703 7.98614 4.12967 8.75127C4.28231 9.51639 4.65848 10.219 5.21058 10.7703C5.76268 11.3216 6.46589 11.6967 7.23125 11.8482C7.9966 11.9997 8.78969 11.9208 9.51016 11.6214C10.2306 11.322 10.8461 10.8156 11.2787 10.1663C11.7113 9.51707 11.9416 8.75405 11.9405 7.97385C11.9405 7.45626 11.8384 6.94375 11.6402 6.46564C11.4419 5.98752 11.1513 5.55318 10.7851 5.18746C10.4188 4.82175 9.98404 4.53183 9.50562 4.33429C9.02721 4.13676 8.51455 4.03548 7.99696 4.03626ZM7.99696 10.53C7.49023 10.53 6.99487 10.3798 6.57354 10.0982C6.1522 9.81672 5.82381 9.41658 5.6299 8.94842C5.43598 8.48026 5.38524 7.96511 5.4841 7.46811C5.58296 6.97111 5.82697 6.51459 6.18529 6.15628C6.5436 5.79796 7.00012 5.55395 7.49712 5.45509C7.99412 5.35623 8.50927 5.40697 8.97743 5.60088C9.44559 5.7948 9.84573 6.12319 10.1273 6.54453C10.4088 6.96586 10.5591 7.46121 10.5591 7.96795C10.5598 8.30463 10.4941 8.63814 10.3656 8.94934C10.2371 9.26054 10.0484 9.54329 9.81037 9.78136C9.5723 10.0194 9.28955 10.2081 8.97835 10.3366C8.66715 10.4651 8.33364 10.5308 7.99696 10.53Z" fill="white"/>
<path d="M13.015 3.89994C13.015 4.08208 12.961 4.26014 12.8598 4.41158C12.7586 4.56303 12.6147 4.68107 12.4465 4.75077C12.2782 4.82048 12.093 4.83872 11.9144 4.80318C11.7357 4.76765 11.5716 4.67994 11.4428 4.55114C11.314 4.42235 11.2263 4.25825 11.1908 4.07961C11.1553 3.90096 11.1735 3.71579 11.2432 3.54751C11.3129 3.37923 11.4309 3.2354 11.5824 3.13421C11.7338 3.03302 11.9119 2.979 12.094 2.979C12.3383 2.979 12.5725 3.07603 12.7452 3.24874C12.9179 3.42145 13.015 3.65569 13.015 3.89994Z" fill="white"/>
</svg>
