<svg
    width="28"
    height="28"
    viewBox="0 0 28 28"
    fill="none"
    xmlns="http://www.w3.org/2000/svg"
>
    <path
        d="M22.9998 0H5.00021C2.23867 0 0 2.23867 0 5.00021V22.9998C0 25.7613 2.23867 28 5.00021 28H22.9998C25.7613 28 28 25.7613 28 22.9998V5.00021C28 2.23867 25.7613 0 22.9998 0Z"
        fill="#00BBBB"
    />
    <path
        d="M10.55 10.8806H7.65137V20.2376H10.55V10.8806Z"
        fill="white"
    />
    <path
        d="M9.08603 9.65146C9.42887 9.65497 9.76501 9.55652 10.0518 9.3686C10.3386 9.18069 10.563 8.91179 10.6966 8.59605C10.8303 8.28031 10.8671 7.93198 10.8023 7.59529C10.7376 7.25861 10.5743 6.94875 10.3331 6.70507C10.0919 6.46139 9.78376 6.29488 9.44776 6.22669C9.11175 6.15851 8.76306 6.19171 8.44597 6.32209C8.12887 6.45247 7.85767 6.67415 7.66682 6.95897C7.47596 7.24379 7.37405 7.5789 7.37403 7.92176C7.37246 8.37792 7.55176 8.81611 7.87266 9.14032C8.19355 9.46454 8.62987 9.64834 9.08603 9.65146Z"
        fill="white"
    />
    <path
        d="M15.177 15.3492C15.177 14.0327 15.7673 13.2475 16.948 13.2475C18.1287 13.2475 18.5302 14.0032 18.5302 15.3492V20.2608H21.411V14.3574C21.411 11.8543 19.9883 10.6382 18.0047 10.6382C17.441 10.6309 16.8849 10.7695 16.3904 11.0405C15.896 11.3115 15.48 11.7057 15.1829 12.1849V10.8803H12.3965V20.2372H15.1711L15.177 15.3492Z"
        fill="white"
    />
</svg>