<svg width="15" height="15" viewBox="0 0 15 15" fill="none" xmlns="http://www.w3.org/2000/svg">
<path d="M3.54947 4.88049H0.650879V14.2374H3.54947V4.88049Z" fill="white"/>
<path d="M2.08554 3.65158C2.42838 3.6551 2.76452 3.55664 3.05129 3.36873C3.33806 3.18081 3.56252 2.91191 3.69615 2.59617C3.82979 2.28043 3.86658 1.9321 3.80185 1.59542C3.73713 1.25873 3.5738 0.94887 3.33262 0.705191C3.09143 0.461512 2.78327 0.295006 2.44727 0.226817C2.11126 0.158628 1.76257 0.191832 1.44548 0.322212C1.12838 0.452593 0.857186 0.674269 0.666329 0.959089C0.475472 1.24391 0.373563 1.57902 0.373545 1.92188C0.371973 2.37804 0.551275 2.81623 0.87217 3.14045C1.19306 3.46466 1.62939 3.64846 2.08554 3.65158V3.65158Z" fill="white"/>
<path d="M8.17773 9.34903C8.17773 8.03257 8.76808 7.24741 9.94877 7.24741C11.1295 7.24741 11.5309 8.00305 11.5309 9.34903V14.2607H14.4118V8.35726C14.4118 5.8542 12.989 4.63809 11.0055 4.63809C10.4417 4.63079 9.8856 4.76937 9.39117 5.04038C8.89674 5.31138 8.48077 5.70561 8.18364 6.18479V4.88013H5.39722V14.2371H8.17183L8.17773 9.34903Z" fill="white"/>
</svg>
