<svg width="112" height="30" viewBox="0 0 112 30" fill="none" xmlns="http://www.w3.org/2000/svg">
<path d="M56.4637 20.9378H41.2885C41.6657 24.5921 43.5518 26.9016 47.0336 26.9016C49.4129 26.9016 51.357 25.7615 52.7497 23.9782L55.6513 25.5568C53.7943 28.3341 50.7186 29.942 47.0627 29.942C41.2015 29.942 37.2554 25.82 37.2554 19.6223C37.2554 13.3369 41.0854 9.15637 46.9176 9.15637C52.6917 9.15637 56.5217 13.2199 56.5217 19.3007C56.5217 19.7977 56.5217 20.4993 56.4637 20.9378ZM41.2885 18.3067H52.6337C52.2855 14.477 50.1963 12.1967 46.9176 12.1967C43.6388 12.1967 41.6077 14.5355 41.2885 18.3067Z" fill="white"/>
<path d="M59.6265 19.5637C59.6265 13.3368 63.8047 9.15625 70.0721 9.15625C72.6835 9.15625 74.8887 9.97481 76.7167 11.4073L74.5405 14.0384C73.2638 12.986 71.9001 12.4597 70.1011 12.4597C66.184 12.4597 63.5726 15.3247 63.5726 19.5637C63.5726 23.8027 66.184 26.6676 70.1301 26.6676C72.1032 26.6676 73.8441 26.0245 75.1208 24.6797L77.326 27.2816C75.469 29.0941 72.8576 30.0003 69.956 30.0003C63.7757 29.9711 59.6265 25.7906 59.6265 19.5637Z" fill="white"/>
<path d="M92.8782 25.9943V29.0639C91.4565 29.7071 89.7736 29.9702 87.9456 29.9702C84.5217 29.9702 82.2005 27.6022 82.2005 24.0648V12.6927H78.8057V9.53535H82.2005V3.68848H86.0015V9.53535H92.5591V12.6927H86.0015V23.2755C86.0015 25.2927 87.2782 26.6667 89.1352 26.6667C90.4119 26.6667 91.6596 26.462 92.8782 25.9943Z" fill="white"/>
<path d="M112 16.9618V29.5911H108.315L108.228 26.0537C106.835 28.5386 104.253 29.9711 101.438 29.9711C97.4633 29.9711 94.7358 27.5739 94.7358 23.9488C94.7358 20.2068 98.0436 17.7219 103.063 17.7219C104.659 17.7219 106.487 17.8973 108.199 18.2774V17.3711C108.199 14.1846 106.139 12.1966 102.802 12.1966C100.626 12.1966 99.0302 12.869 97.6954 14.1553L96.0125 11.875C97.9856 10.121 100.423 9.15625 103.731 9.15625C108.692 9.15625 112 12.2843 112 16.9618ZM108.199 20.9085C106.632 20.5576 105.007 20.3822 103.528 20.3822C100.626 20.3822 98.711 21.7855 98.711 23.8319C98.711 25.8491 100.104 27.1646 102.512 27.1646C105.298 27.1938 108.17 24.8843 108.199 20.9085Z" fill="white"/>
<path d="M32.0235 0.000973419L28.4255 0.0106201L28.505 29.6543L32.103 29.6446L32.0235 0.000973419Z" fill="white"/>
<path d="M11.2759 0.000983442L7.67798 0.0106201L7.75754 29.6543L11.3555 29.6446L11.2759 0.000983442Z" fill="white"/>
<path d="M29.3058 17.2236H0V20.849H29.3058V17.2236Z" fill="white"/>
</svg>
