<svg width="100%" height="100%" viewBox="0 0 12 18" fill="none" xmlns="http://www.w3.org/2000/svg">
<path d="M8.15 18C8.01667 18 7.8875 17.975 7.7625 17.925C7.6375 17.875 7.525 17.8 7.425 17.7L1.4 11.425C1.28333 11.3083 1.1875 11.15 1.1125 10.95C1.0375 10.75 1 10.5667 1 10.4C1 10.0167 1.1375 9.6875 1.4125 9.4125C1.6875 9.1375 2.01667 9 2.4 9H4.5C5.38333 9 6.14583 8.7125 6.7875 8.1375C7.42917 7.5625 7.81667 6.85 7.95 6H1C0.716667 6 0.479167 5.90417 0.2875 5.7125C0.0958333 5.52083 0 5.28333 0 5C0 4.71667 0.0958333 4.47917 0.2875 4.2875C0.479167 4.09583 0.716667 4 1 4H7.65C7.36667 3.41667 6.94583 2.9375 6.3875 2.5625C5.82917 2.1875 5.2 2 4.5 2H1C0.716667 2 0.479167 1.90417 0.2875 1.7125C0.0958333 1.52083 0 1.28333 0 1C0 0.716667 0.0958333 0.479167 0.2875 0.2875C0.479167 0.0958333 0.716667 0 1 0H11C11.2833 0 11.5208 0.0958333 11.7125 0.2875C11.9042 0.479167 12 0.716667 12 1C12 1.28333 11.9042 1.52083 11.7125 1.7125C11.5208 1.90417 11.2833 2 11 2H8.75C8.98333 2.28333 9.19167 2.59167 9.375 2.925C9.55833 3.25833 9.7 3.61667 9.8 4H11C11.2833 4 11.5208 4.09583 11.7125 4.2875C11.9042 4.47917 12 4.71667 12 5C12 5.28333 11.9042 5.52083 11.7125 5.7125C11.5208 5.90417 11.2833 6 11 6H9.975C9.84167 7.41667 9.25833 8.60417 8.225 9.5625C7.19167 10.5208 5.95 11 4.5 11H3.775L8.875 16.3C9.175 16.6167 9.2375 16.9792 9.0625 17.3875C8.8875 17.7958 8.58333 18 8.15 18Z" fill="var(--mainBlue)"/>
</svg>
