<svg width="100%" height="100%" viewBox="0 0 640 610" fill="none" xmlns="http://www.w3.org/2000/svg">
<rect width="640" height="610" fill="#FAFAFA"/>
<path d="M212.715 50.4145L246 50.4145V40H212.715V50.4145Z" fill="var(--lightGray2)"/>
<path d="M194.193 63.5351L210.98 63.2561L219.277 63.1631H227.478L226.995 63.6281V53.2136L227.478 53.6785L210.884 53.5855L202.587 53.4925L194.289 53.3995L194.482 53.2136L194.193 63.5351ZM194.193 63.5351L194 53.1206V52.9346H194.193L202.49 52.8416L210.787 52.7486L227.381 52.6557H227.864V53.1206V63.5351V64H227.381H218.988L210.594 63.907L194.193 63.5351Z" fill="var(--lightGray2)"/>
<path d="M67.8833 60V239.718H184.088V60H67.8833ZM179.862 235.369H72.2095V64.3488H179.862V235.369Z" fill="var(--lightGray2)"/>
<path d="M179.862 64.3488H72.2095V235.369H179.862V64.3488Z" fill="white"/>
<path d="M72.174 151.989H179.826V147.64H72.174V151.989Z" fill="var(--lightGray2)"/>
<path d="M60 252L192 252V239.661L60 239.661V252Z" fill="#BCBCBC"/>
<path d="M72.2095 64.3488H179.862V174.991H72.2095V64.3488ZM175.838 68.2931H76.2339V170.946H175.938V68.2931H175.838Z" fill="#BCBCBC"/>
<path d="M145.453 64.3488H143.341V171.047H145.453V64.3488Z" fill="#BCBCBC"/>
<path d="M108.63 64.3488H106.517V171.047H108.63V64.3488Z" fill="#BCBCBC"/>
<path d="M455.909 60V239.718H572.114V60H455.909ZM567.787 235.369H460.135V64.3488H567.787V235.369Z" fill="var(--lightGray2)"/>
<path d="M567.888 64.3488H460.235V235.369H567.888V64.3488Z" fill="white"/>
<path d="M460.174 151.989H567.826V147.64H460.174V151.989Z" fill="var(--lightGray2)"/>
<path d="M448 252L580 252V239.661L448 239.661V252Z" fill="#BCBCBC"/>
<path d="M460.235 64.3488H567.888V174.991H460.235V64.3488ZM563.864 68.2931H464.159V170.946H563.864V68.2931Z" fill="#BCBCBC"/>
<path d="M533.479 64.3488H531.367V171.047H533.479V64.3488Z" fill="#BCBCBC"/>
<path d="M496.656 64.3488H494.543V171.047H496.656V64.3488Z" fill="#BCBCBC"/>
<path d="M396 109.708L244 109.708V102.95L396 102.95V109.708Z" fill="var(--lightGray2)"/>
<path d="M252.511 109.708H259.189V132H252.511V109.708Z" fill="var(--lightGray2)"/>
<path d="M252.511 109.708H259.189V116.567H252.511V109.708Z" fill="var(--lightGray2)"/>
<path d="M380.889 109.708H387.567V132H380.889V109.708Z" fill="var(--lightGray2)"/>
<path d="M380.889 109.708H387.567V116.567H380.889V109.708Z" fill="var(--lightGray2)"/>
<path d="M272.356 102.943V59.9735H283.021V102.943H272.356Z" fill="#BCBCBC"/>
<path d="M272.409 62.4416V57.7008H283.074V62.4416H272.409Z" fill="var(--lightGray2)"/>
<path d="M272.395 70.122V68.4073H283.06V70.122H272.395Z" fill="var(--lightGray2)"/>
<path d="M272.344 97.3453V92.6045H284.404V97.3453H272.344Z" fill="var(--lightGray2)"/>
<path d="M283.09 102.913V52.7815H290.565V102.913H283.09Z" fill="var(--lightGray2)"/>
<path d="M284.579 76.7289V57.463H289.064V76.7289H284.579Z" fill="var(--lightGray2)"/>
<path d="M338.47 102.957L303.24 67.7141L308.495 62.3338L343.726 97.5763L338.47 102.957Z" fill="#BCBCBC"/>
<path d="M331.312 93.543L317.773 79.9991L320.926 76.7709L334.465 90.3148L331.312 93.543Z" fill="var(--lightGray2)"/>
<path d="M290.596 103.018V64.8893H303.254V103.018H290.596Z" fill="var(--darkGray)"/>
<path d="M290.573 98.9046V95.3742H303.232V98.9046H290.573Z" fill="#BCBCBC"/>
<path d="M290.528 93.1008V91.6887H303.186V93.1008H290.528Z" fill="#BCBCBC"/>
<path d="M263.642 102.949V67.1407H272.413V102.949H263.642Z" fill="var(--darkGray)"/>
<path d="M263.61 99.1484V95.8198H272.381V99.1484H263.61Z" fill="#BCBCBC"/>
<path d="M263.62 77.8549V74.5262H272.392V77.8549H263.62Z" fill="#BCBCBC"/>
<path d="M263.558 81.448V80.1367H272.329V81.448H263.558Z" fill="#BCBCBC"/>
<path d="M365.34 57.0548C357.864 64.5191 356.568 75.9172 358.163 86.004C358.163 86.2058 358.562 86.2058 358.562 86.004C358.562 83.6841 358.462 81.465 358.462 79.145C358.462 79.0441 358.562 78.9433 358.562 78.8424C360.555 77.4302 362.349 75.8163 363.446 73.5972C364.742 71.0755 365.14 68.3521 366.137 65.7295C366.237 65.5278 365.938 65.5278 365.838 65.7295C361.253 69.159 359.858 72.7903 358.562 77.632C358.662 75.1103 358.861 72.5886 359.359 70.0668C360.356 65.4269 362.25 60.787 365.539 57.3574C365.639 57.1557 365.439 56.954 365.34 57.0548Z" fill="var(--darkGray)"/>
<path d="M366.735 57.9627C368.031 57.9627 368.828 60.0809 369.825 60.6861C370.323 60.9887 370.921 60.9887 371.22 60.4844C372.217 59.0722 370.822 57.3574 369.526 56.3488C370.423 56.7522 371.22 57.3574 372.217 57.5592C372.815 57.66 373.314 57.4583 373.413 56.8531C373.812 54.9366 371.519 54.1297 369.825 54.0288C370.622 53.4236 372.915 52.0114 371.719 51.2045C370.523 50.4984 367.832 52.6166 366.935 53.3227C365.639 54.3314 364.144 55.9453 364.044 57.5592C364.044 59.4757 365.738 58.3661 366.735 57.9627Z" fill="var(--lightGray2)"/>
<path d="M366.336 58.2653C368.031 57.4583 371.12 58.5679 371.419 57.9627C371.918 56.6514 369.426 55.8444 368.031 55.6427C369.326 55.3401 371.718 54.7349 371.619 53.5245C371.519 52.0114 367.931 53.3227 366.137 54.7349C363.844 56.5505 363.844 58.2653 364.243 58.5679C364.741 59.0722 366.037 58.3661 366.336 58.2653Z" fill="var(--lightGray2)"/>
<path d="M348.296 56.3487C356.07 63.5104 357.765 74.9085 356.569 84.9954C356.569 85.1971 356.17 85.1971 356.17 84.9954C356.07 82.6754 356.07 80.4563 355.971 78.1363C355.971 78.0354 355.871 77.9346 355.871 77.8337C353.877 76.5224 351.984 74.9085 350.788 72.6894C349.492 70.2686 348.894 67.4443 347.797 64.9226C347.698 64.7208 347.997 64.7208 348.096 64.8217C352.781 68.0495 354.376 71.6807 355.871 76.5224C355.672 74.0007 355.472 71.479 354.775 68.9573C353.578 64.3173 351.485 59.8791 348.096 56.5505C347.897 56.4496 348.096 56.2479 348.296 56.3487Z" fill="var(--darkGray)"/>
<path d="M346.9 57.2566C345.605 57.3574 344.907 59.4757 343.91 60.0809C343.412 60.3835 342.914 60.3835 342.515 59.8791C341.518 58.467 342.814 56.7522 344.01 55.7435C343.113 56.147 342.415 56.8531 341.418 57.0548C340.82 57.1557 340.322 56.954 340.222 56.3487C339.724 54.4322 342.016 53.5244 343.711 53.4236C342.914 52.9192 340.621 51.5071 341.717 50.7001C342.914 49.8932 345.605 52.0114 346.502 52.6166C347.797 53.6253 349.392 55.1383 349.492 56.7522C349.592 58.7696 347.897 57.66 346.9 57.2566Z" fill="var(--lightGray2)"/>
<path d="M347.299 57.5592C345.605 56.8531 342.515 58.0635 342.216 57.4583C341.618 56.147 344.11 55.2392 345.505 55.0375C344.209 54.7349 341.817 54.3314 341.817 53.0201C341.817 51.5071 345.505 52.7175 347.399 54.0288C349.791 55.7435 349.791 57.4583 349.492 57.7609C348.894 58.2653 347.498 57.66 347.299 57.5592Z" fill="var(--lightGray2)"/>
<path d="M356.17 75.1103C356.768 78.8424 357.466 82.7763 358.562 86.4075C358.662 86.7101 359.16 86.6093 359.06 86.3067C358.562 82.8771 357.665 79.4476 357.067 75.9172C356.569 72.3868 356.27 68.8564 356.469 65.326C356.768 59.4757 358.363 53.2218 362.15 48.6828C362.25 48.5819 362.051 48.3802 361.951 48.481C354.376 57.3575 355.572 68.3521 355.572 69.2599C354.476 65.5278 353.379 61.3922 349.392 57.5592C349.193 57.3575 349.093 57.4583 349.093 57.7609C349.791 64.62 351.685 68.1504 355.572 71.7816C355.871 72.992 355.971 74.1016 356.17 75.1103Z" fill="var(--darkGray)"/>
<path d="M362.35 49.6914C363.745 49.0862 365.539 50.801 366.934 50.9019C367.632 51.0027 368.13 50.7001 368.33 49.8932C368.629 47.9767 366.336 46.8671 364.542 46.4637C365.639 46.3628 366.835 46.6654 367.931 46.3628C368.629 46.1611 369.028 45.6567 368.828 44.9506C368.33 42.7315 365.439 43.0341 363.745 43.8411C364.243 42.8324 365.838 40.1089 364.243 40.0081C362.649 39.8063 360.954 43.4376 360.356 44.648C359.559 46.3628 358.761 48.7836 359.559 50.4984C360.356 52.7175 361.452 50.5993 362.35 49.6914Z" fill="var(--lightGray2)"/>
<path d="M362.051 50.2967C363.346 48.6828 367.234 48.1784 367.134 47.3715C367.034 45.7576 364.044 46.1611 362.549 46.6654C363.645 45.6567 365.938 43.8411 365.24 42.6307C364.443 41.1176 361.353 44.2446 360.157 46.6654C358.662 49.6914 359.559 51.5071 360.057 51.6079C360.855 51.8097 361.851 50.4984 362.051 50.2967Z" fill="var(--lightGray2)"/>
<path d="M351.186 77.2285L347.897 102.95H368.131C367.732 100.63 363.944 77.2285 363.944 77.2285H351.186Z" fill="var(--lightGray2)"/>
<path d="M620 354H472V362.946H620V354Z" fill="var(--lightGray2)"/>
<path d="M606.831 362.946H485.169V387.672H606.831V362.946Z" fill="var(--lightGray2)"/>
<path d="M606.831 367.871L485.169 370.283V362.946H606.831V367.871Z" fill="var(--darkGray)"/>
<path d="M587.989 368.172H504.011V382.546H587.989V368.172Z" stroke="#BCBCBC" stroke-miterlimit="10"/>
<path d="M559.828 373.299H532.172V377.42H559.828V373.299Z" fill="#BCBCBC"/>
<path d="M484.257 530H480.205L491.956 387.672H502.188L484.257 530Z" fill="var(--lightGray2)"/>
<path d="M502.188 387.672L500.972 397.221H491.146L491.956 387.672H502.188Z" fill="var(--darkGray)"/>
<path d="M607.844 530H611.795L600.145 387.672H589.812L607.844 530Z" fill="var(--lightGray2)"/>
<path d="M589.812 387.672L591.028 397.221H600.854L600.145 387.672H589.812Z" fill="var(--darkGray)"/>
<rect x="80" y="145" width="480" height="299.065" rx="8" fill="var(--lightGray2)"/>
<rect x="84" y="148.988" width="472" height="291.09" rx="4" fill="#3A3A3A"/>
<rect x="104" y="168.925" width="432" height="251.215" rx="4" fill="white"/>
<path d="M536 289.603V420.14H104V228.738C123.081 232.35 137.297 237.635 147.124 243.976C177.94 263.883 216.198 307.66 299.297 321.489C387.643 336.198 443.17 288.017 536 289.603Z" fill="#EAF6F7"/>
<path d="M536 360.327V420.14H104V382.862C114.876 377.597 128.233 373.49 145.025 371.068C227.933 359.169 316.088 393.393 377.625 400.132C428.954 405.608 485.053 395.499 536 360.327Z" fill="#D7EEF0"/>
<circle cx="340" cy="231" r="16" fill="var(--lightGray1)"/>
<circle cx="292" cy="258" r="12" fill="var(--lightGray1)"/>
<path d="M335.77 274.089C333.183 275.737 330.285 276.973 327.077 277.695C318.903 279.652 310.728 278.107 304.209 274.089C297.793 270.071 292.826 263.683 290.86 255.75C286.928 239.678 296.862 223.503 312.901 219.588C328.94 215.673 345.186 225.46 349.118 241.532C352.326 254.411 346.531 267.392 335.77 274.089Z" fill="var(--lightGray2)"/>
<path d="M329.147 245.241C329.147 250.29 325.111 254.308 320.041 254.308C314.97 254.308 310.935 250.29 310.935 245.241C310.935 240.193 314.97 236.175 320.041 236.175C325.111 236.175 329.147 240.193 329.147 245.241Z" fill="white"/>
<path d="M335.77 270.277V273.986C333.183 275.634 330.285 276.87 327.078 277.591C318.903 279.549 310.728 278.004 304.209 273.986V270.277C304.209 261.622 311.245 254.617 319.938 254.617C328.733 254.617 335.77 261.622 335.77 270.277Z" fill="white"/>
<rect x="290" y="290.502" width="60" height="0.996885" rx="0.498442" fill="var(--lightGray2)"/>
<rect x="270.5" y="299.5" width="99" height="11" rx="1.5" fill="white" stroke="var(--lightGray2)"/>
<rect x="270.5" y="315.5" width="99" height="11" rx="1.5" fill="white" stroke="var(--lightGray2)"/>
<rect x="270.5" y="331.5" width="99" height="11" rx="1.5" fill="white" stroke="var(--lightGray2)"/>
<rect x="270.5" y="347.5" width="99" height="11" rx="1.5" fill="white" stroke="var(--lightGray2)"/>
<rect x="270" y="363" width="100" height="12" rx="2" fill="var(--mainBlack)"/>
<rect x="70" y="444.065" width="500" height="19.9377" fill="#BCBCBC"/>
<rect x="60" y="464.003" width="520" height="0.996885" fill="var(--mainBlack)"/>
<path d="M601.285 290.414H568V280H601.285V290.414Z" fill="var(--lightGray2)"/>
<path d="M619.807 303.535L603.02 303.256L594.723 303.163H586.522L587.005 303.628V293.214L586.522 293.678L603.116 293.586L611.413 293.493L619.711 293.4L619.518 293.214L619.807 303.535ZM619.807 303.535L620 293.121V292.935H619.807L611.51 292.842L603.213 292.749L586.619 292.656H586.136V293.121V303.535V304H586.619H595.012L603.406 303.907L619.807 303.535Z" fill="var(--lightGray2)"/>
<path d="M98.1643 446.618L96.4208 459.997L75.0139 570H68.9115L85.7657 459.997L87.1218 446.618H98.1643Z" fill="var(--mainBlue)"/>
<path opacity="0.3" d="M98.1643 446.618L96.4208 459.997L75.0139 570H68.9115L85.7657 459.997L87.1218 446.618H98.1643Z" fill="var(--mainBlack)"/>
<path d="M156.089 570H149.89L128.483 459.997L126.836 446.618H137.782L139.138 459.997L156.089 570Z" fill="var(--mainBlue)"/>
<path opacity="0.3" d="M156.089 570H149.89L128.483 459.997L126.836 446.618H137.782L139.138 459.997L156.089 570Z" fill="var(--mainBlack)"/>
<path d="M146.071 538.423H77.782V535.252H146.071V538.423Z" fill="var(--mainBlue)"/>
<path opacity="0.3" d="M146.071 538.423H77.782V535.252H146.071V538.423Z" fill="var(--mainBlack)"/>
<path opacity="0.3" d="M85.7657 459.501H96.4208L98.1643 446.618H87.1218L85.7657 459.501Z" fill="var(--mainBlack)"/>
<path opacity="0.3" d="M139.138 459.501H128.483L126.836 446.618H137.782L139.138 459.501Z" fill="var(--mainBlack)"/>
<path d="M144.965 450.628H79.9692V437.745H144.965V450.628Z" fill="var(--mainBlue)"/>
<path opacity="0.3" d="M144.965 450.628H79.9692V437.745H144.965V450.628Z" fill="var(--mainBlack)"/>
<path d="M184.082 568.513C181.758 568.513 121.218 548.495 119.474 546.315C119.281 546.116 120.927 540.468 123.349 532.738V532.539C124.802 527.683 143.303 490.025 143.303 490.025L182.436 504.692L164.032 539.477C164.032 539.477 171.103 545.621 177.205 551.468C180.983 555.036 184.179 558.207 184.76 559.198C186.504 561.874 186.407 568.513 184.082 568.513Z" fill="#AD6359"/>
<path d="M119.474 546.315C121.218 548.495 181.854 568.613 184.082 568.513C186.31 568.513 186.407 561.874 184.76 559.198C184.082 558.207 180.886 555.036 177.205 551.468C174.88 549.288 172.459 547.008 170.231 545.026C177.689 553.549 181.661 565.639 124.124 530.855C123.736 531.647 123.543 532.242 123.349 532.639L123.252 532.837C120.927 540.368 119.281 546.017 119.474 546.315Z" fill="var(--mainBlue)"/>
<path d="M168.1 537.99L124.802 525.801C124.802 525.801 158.51 449.393 157.348 445.627C156.573 443.05 103.395 444.141 87.5092 430.266C71.0424 415.797 82.9566 386.463 82.9566 386.463L127.611 385.175C127.611 385.175 127.03 394.689 128.773 396.175C129.936 397.166 191.153 401.229 203.358 423.924C214.401 444.438 168.1 537.99 168.1 537.99Z" fill="#3A3A3A"/>
<path d="M157.348 445.627C157.542 446.222 156.767 448.997 155.314 453.06L188.345 492.601C199.193 465.646 209.267 434.627 203.455 423.725C191.25 401.031 130.033 396.968 128.87 395.977C127.127 394.49 127.708 384.977 127.708 384.977L99.3268 385.769L147.759 443.843C153.377 444.537 157.154 444.933 157.348 445.627Z" fill="var(--mainBlack)"/>
<path d="M168.972 528.675C167.809 528.08 166.647 527.783 165.485 527.386C164.225 526.99 162.966 526.593 161.707 526.197C159.189 525.404 156.767 524.71 154.249 524.116C149.212 522.828 144.175 521.539 139.138 520.35C136.522 519.755 130.807 518.368 130.517 518.467C130.323 518.467 130.323 518.764 130.517 518.863C135.457 520.548 140.397 521.936 145.337 523.323C150.277 524.71 155.217 526.098 160.254 527.287C161.61 527.584 163.063 527.882 164.419 528.179C165.872 528.476 167.325 528.972 168.875 529.071C168.972 529.071 169.166 528.774 168.972 528.675Z" fill="var(--mainBlack)"/>
<path d="M85.572 395.085C85.6689 393.599 85.7657 392.013 85.9594 390.526C85.9594 390.328 86.25 390.328 86.25 390.526C85.7657 396.671 85.2814 403.013 86.5406 409.158C87.703 414.905 90.6089 419.861 94.8709 423.726C103.879 431.951 116.375 434.131 127.998 435.915C134.682 436.906 141.269 437.6 147.952 438.194C151.246 438.492 154.539 438.591 157.832 438.789C161.126 438.888 164.322 438.888 167.616 438.987C168.681 438.987 169.553 439.483 169.456 440.672C169.359 441.366 168.972 442.158 168.681 442.753C168.391 443.546 168.003 444.339 167.712 445.231C166.453 448.303 165.194 451.276 164.032 454.348C161.416 460.591 158.801 466.835 156.186 473.078C150.955 485.466 145.434 497.755 139.719 509.944C139.041 511.431 138.266 513.016 137.588 514.503C137.588 514.602 137.394 514.503 137.491 514.404C142.915 502.115 148.243 489.727 153.57 477.34C156.186 471.195 158.801 465.051 161.416 458.907C162.676 455.835 164.032 452.762 165.291 449.69C165.969 448.105 166.55 446.618 167.228 445.032C167.519 444.24 167.906 443.447 168.197 442.753C168.487 442.158 169.456 440.573 168.681 439.978C168.197 439.582 167.228 439.78 166.647 439.78C165.775 439.78 164.903 439.78 164.032 439.78C162.385 439.78 160.738 439.78 159.092 439.681C155.798 439.582 152.408 439.483 149.115 439.185C142.625 438.789 136.135 438.095 129.645 437.203C118.118 435.618 105.623 433.735 96.227 426.104C92.0619 422.734 88.7685 418.374 87.1218 413.221C85.0877 407.275 85.1845 401.031 85.572 395.085Z" fill="var(--mainBlack)"/>
<path d="M279.687 508.259C278.137 509.944 221.666 540.071 218.856 539.774C218.566 539.774 215.757 534.621 212.076 527.485L211.979 527.386C209.654 522.827 188.441 484.971 188.441 484.971L223.603 465.745L245.3 502.611C245.3 502.611 254.599 501.818 262.833 501.421C267.966 501.223 272.422 501.124 273.584 501.322C276.684 501.818 281.237 506.575 279.687 508.259Z" fill="#AD6359"/>
<path d="M211.592 526.593C211.689 526.891 211.882 527.089 211.979 527.188L212.076 527.287C215.757 534.422 218.469 539.576 218.856 539.576C221.666 539.873 278.137 509.746 279.687 508.061C281.237 506.377 276.684 501.62 273.681 501.025C272.519 500.827 268.063 500.926 262.929 501.124C259.442 501.223 255.665 501.521 252.565 501.719C263.898 501.818 278.234 506.872 211.592 526.593Z" fill="var(--mainBlue)"/>
<path d="M245.01 496.466L202.68 519.359C202.68 519.359 167.615 450.582 163.838 446.222C158.801 440.375 95.2582 450.285 79.8568 431.356C63.8743 411.734 76.6603 386.661 76.6603 386.661L125.189 385.472C125.189 385.472 125.48 391.022 122.864 399.049C122.864 399.049 178.27 394.391 194.253 409.554C206.458 421.248 245.01 496.466 245.01 496.466Z" fill="#3A3A3A"/>
<path d="M113.953 404.302C116.375 402.518 118.893 400.833 121.605 399.247C122.961 398.454 125.674 397.166 127.417 396.671C128.87 396.274 129.451 396.175 128.095 396.869C127.32 397.265 125.867 397.959 124.608 398.653C124.899 398.653 125.092 398.653 125.383 398.653C126.352 398.554 127.32 398.554 128.289 398.454C130.129 398.355 132.067 398.355 133.907 398.256C137.685 398.157 141.462 398.454 145.24 398.554C145.337 398.554 145.337 398.752 145.24 398.752C141.462 398.752 137.685 399.049 133.907 399.049C132.067 399.049 130.129 399.148 128.289 399.247C127.417 399.247 126.449 399.346 125.577 399.346C124.802 399.346 124.027 399.446 123.252 399.446C122.865 399.644 122.477 399.842 122.187 399.941C119.474 401.328 116.762 402.815 114.147 404.401C114.05 404.401 113.953 404.302 113.953 404.302Z" fill="var(--mainBlack)"/>
<path d="M126.158 383.589C125.674 385.968 125.383 388.346 124.802 390.625C124.608 391.716 124.318 392.806 124.027 393.797C123.736 394.689 123.349 395.68 122.38 395.977C121.315 396.274 120.927 395.283 120.927 394.292C120.927 393.202 121.218 392.112 121.315 391.121C121.508 389.932 121.702 388.643 121.799 387.454C121.896 386.86 121.993 386.265 121.993 385.67C121.993 385.472 122.09 384.382 122.09 383.986C122.09 383.986 122.09 384.085 122.187 383.986C122.187 383.986 122.283 383.986 122.283 383.886C122.283 383.787 122.283 383.787 122.187 383.688H122.09C121.896 383.787 121.896 384.085 121.799 384.382C121.605 384.977 121.508 385.571 121.315 386.166C121.024 387.256 120.83 388.445 120.637 389.535C120.443 390.625 120.249 391.815 120.056 392.905C119.862 393.797 119.668 394.689 119.959 395.481C120.249 396.373 121.024 396.869 121.799 396.869C121.799 396.968 121.702 397.067 121.702 397.067C121.605 397.265 121.605 397.563 121.508 397.761C121.412 397.959 121.412 398.256 121.315 398.454C121.315 398.554 121.315 398.653 121.315 398.851C121.315 398.95 121.315 399.148 121.315 399.247C121.315 399.446 121.605 399.545 121.702 399.346C121.799 399.247 121.799 399.148 121.896 399.049C121.993 398.95 121.993 398.752 121.993 398.653C122.09 398.454 122.09 398.157 122.187 397.959C122.187 397.761 122.283 397.463 122.283 397.265C122.283 397.166 122.283 396.968 122.283 396.869C122.768 396.77 123.155 396.572 123.543 396.274C124.221 395.68 124.511 394.887 124.802 394.094C125.092 393.103 125.286 392.112 125.48 391.121C125.964 388.643 126.449 386.067 126.545 383.589C126.545 383.391 126.255 383.292 126.158 383.589Z" fill="var(--mainBlack)"/>
<path d="M102.911 390.824C102.814 392.013 102.717 393.202 102.523 394.292C102.329 395.382 102.136 396.572 101.845 397.662C101.554 398.752 101.167 399.842 100.586 400.734C100.005 401.626 99.3266 402.419 98.5517 403.112C97.0019 404.5 95.2583 405.689 93.4179 406.482C92.4493 406.878 91.4806 407.275 90.512 407.572C90.0277 407.77 89.4465 407.869 88.9622 407.968C88.4779 408.067 88.0904 408.067 87.703 408.365C87.5092 408.464 87.6061 408.761 87.7998 408.86C88.4779 409.157 89.4465 408.959 90.1245 408.761C90.9963 408.662 91.7712 408.464 92.643 408.166C94.2897 407.671 95.8395 406.779 97.2925 405.887C98.6485 404.896 100.102 403.707 101.07 402.319C102.136 400.833 102.62 399.148 102.911 397.463C103.298 395.382 103.492 393.103 103.201 390.923C103.104 390.625 102.911 390.625 102.911 390.824Z" fill="var(--mainBlack)"/>
<path d="M236.098 488.637C234.936 489.034 233.773 489.628 232.708 490.223C231.545 490.818 230.383 491.412 229.221 492.007C226.896 493.196 224.668 494.385 222.343 495.674C217.791 498.25 213.238 500.827 208.782 503.503C206.458 504.89 201.421 507.863 201.227 508.16C201.13 508.259 201.324 508.557 201.421 508.458C206.07 506.178 210.623 503.8 215.176 501.322C219.728 498.845 224.281 496.367 228.736 493.691C229.996 492.998 231.158 492.205 232.417 491.412C233.676 490.619 235.033 489.926 236.195 488.935C236.389 488.935 236.292 488.637 236.098 488.637Z" fill="var(--mainBlack)"/>
<path d="M76.8543 398.157C76.8543 397.959 77.1449 397.959 77.1449 398.157C77.3386 408.959 79.179 420.951 87.5093 428.482C96.6145 436.708 109.401 437.501 120.927 437.104C127.514 436.906 134.198 436.609 140.784 436.609C147.468 436.708 154.152 436.807 160.835 437.501C163.547 437.798 165.775 438.69 167.712 440.672C169.553 442.555 170.909 444.933 172.362 447.213C175.849 452.762 179.142 458.411 182.436 464.159C188.926 475.457 194.931 487.052 200.452 498.845C201.13 500.331 201.809 501.818 202.487 503.304C202.487 503.404 202.39 503.503 202.39 503.404C196.772 491.511 190.669 479.916 184.276 468.421C181.08 462.673 177.786 457.024 174.299 451.474C172.653 448.798 171.103 446.123 169.359 443.645C167.809 441.465 165.872 439.384 163.16 438.591C161.513 438.095 159.867 438.095 158.22 437.996C156.476 437.897 154.83 437.798 153.086 437.699C149.793 437.501 146.499 437.402 143.109 437.402C136.425 437.302 129.742 437.6 123.058 437.798C111.435 438.294 98.7455 438.194 88.9623 430.861C84.7003 427.69 81.6006 423.329 79.7602 418.275C77.8229 413.221 77.048 407.671 76.8543 402.319C76.8543 400.833 76.8543 399.545 76.8543 398.157Z" fill="var(--mainBlack)"/>
<path d="M147.371 443.744C149.696 443.744 152.117 443.744 154.442 443.843C156.379 443.843 158.413 443.843 160.351 444.24C162.191 444.636 163.547 444.834 165.097 446.816C166.937 449.294 177.399 468.817 181.758 477.34C183.017 479.718 184.179 482.097 185.342 484.574C186.601 487.052 187.666 489.628 188.829 492.106C188.829 492.205 188.732 492.304 188.732 492.205C187.666 490.124 186.504 488.142 185.342 486.061C184.276 483.979 183.114 481.898 182.048 479.817C179.917 475.655 177.689 471.394 175.558 467.231C173.427 463.069 170.812 459.006 168.584 454.943C166.744 451.474 164.225 446.717 162.482 446.023C160.448 445.231 157.251 444.438 155.12 444.339C152.505 444.24 149.889 444.14 147.274 443.942C147.177 443.843 147.177 443.744 147.371 443.744Z" fill="var(--mainBlack)"/>
<path d="M112.403 338.2C116.569 357.129 125.383 379.823 129.064 383.49C133.81 388.148 163.16 394.292 164.71 394.49C168.584 394.887 174.106 369.616 171.781 369.517C165.388 369.418 145.143 365.85 143.787 364.462C142.334 362.976 132.745 350.489 122.865 336.417C116.181 326.705 109.885 326.506 112.403 338.2Z" fill="#AD6359"/>
<path d="M162.579 394.094C162.966 394.292 168.778 397.364 172.459 398.355C175.171 399.148 182.92 401.229 184.082 398.355C184.857 396.373 180.402 394.589 177.302 393.202C175.655 392.508 173.621 390.725 174.105 389.634C174.977 387.751 179.142 389.634 181.951 391.319C187.279 394.49 194.447 400.337 197.74 397.563C198.999 396.472 197.546 394.589 195.415 392.707C198.806 394.887 202.487 396.77 203.939 395.581C204.714 394.986 204.811 394.094 204.327 393.103C205.392 393.499 206.361 393.4 206.942 392.707C208.105 391.517 207.523 389.733 206.264 387.95C206.652 387.95 207.039 387.751 207.233 387.256C209.558 383.589 197.837 372.985 193.769 371.994C181.758 369.021 169.165 369.517 169.165 369.517C164.613 373.481 162.579 394.094 162.579 394.094Z" fill="#AD6359"/>
<path d="M180.305 382.895C183.114 383.391 185.923 384.481 188.344 386.067C191.347 388.148 193.381 390.526 195.9 393.004C195.997 393.103 195.9 393.202 195.803 393.103C194.544 391.914 189.604 387.652 188.248 386.661C185.826 384.778 183.211 383.49 180.305 382.895C180.208 382.895 180.208 382.895 180.305 382.895Z" fill="var(--mainBlack)"/>
<path d="M182.532 377.643C185.729 378.535 188.925 379.427 191.831 381.013C195.028 382.697 197.546 385.373 199.968 388.049C201.421 389.634 202.874 391.22 204.327 392.905C204.424 393.004 204.327 393.103 204.23 393.004C201.712 390.328 199.193 387.652 196.481 385.076C193.962 382.697 191.153 380.814 187.957 379.625C186.213 378.832 184.373 378.238 182.532 377.643C182.436 377.742 182.436 377.643 182.532 377.643Z" fill="var(--mainBlack)"/>
<path d="M185.923 373.084C189.023 373.778 191.638 374.274 194.35 375.958C197.934 378.238 201.421 381.904 202.583 383.292C203.94 384.778 205.199 386.265 206.458 387.851C206.555 387.95 206.361 388.049 206.361 387.95C203.455 384.58 200.356 381.409 197.062 378.436C195.512 377.048 193.769 375.76 191.832 374.967C189.894 374.075 187.86 373.679 185.923 373.084Z" fill="var(--mainBlack)"/>
<path d="M169.069 366.643L159.382 397.86C159.382 397.86 133.229 390.13 128.483 384.878C123.736 379.625 115.019 352.372 112.403 339.191C109.885 326.011 116.375 326.308 122.283 334.633C128.289 342.957 143.109 363.174 143.981 363.571C144.756 364.066 169.069 366.643 169.069 366.643Z" fill="var(--mainBlue)"/>
<path d="M157.057 365.553C157.251 365.454 157.445 365.454 157.735 365.354C157.057 365.255 156.282 365.156 155.604 365.057C154.829 365.255 154.055 365.454 153.183 365.354C152.408 365.255 151.827 364.958 151.246 364.562C150.761 364.562 150.374 364.463 149.889 364.363C150.471 364.958 151.052 365.354 151.73 365.652C153.473 366.544 155.314 366.048 157.057 365.553ZM139.428 380.22C142.431 378.931 145.821 378.832 148.824 380.418C150.18 381.112 151.439 382.202 152.408 383.391C153.473 384.778 153.958 386.265 154.248 387.95C154.539 389.734 154.829 391.815 156.476 392.905C157.639 393.797 159.188 393.995 160.544 393.896L160.254 394.689C158.22 394.887 156.186 394.292 154.829 392.409C153.764 390.923 153.667 389.04 153.28 387.355C152.892 385.67 152.02 384.085 150.858 382.895C148.34 380.418 144.659 379.526 141.269 380.418C137.685 381.409 134.876 384.085 133.132 387.355C133.035 387.553 132.938 387.851 132.841 388.049C132.648 387.95 132.357 387.751 132.163 387.652C133.713 384.382 136.135 381.706 139.428 380.22ZM131.098 381.112C131.485 382.796 131.001 384.58 130.129 386.067C130.129 386.067 130.032 386.166 130.032 386.265C129.839 386.067 129.645 385.968 129.451 385.769C129.935 384.977 130.323 384.184 130.42 383.292C130.807 381.112 129.645 379.229 128.289 377.742C126.545 375.76 124.414 374.274 122.38 372.688C122.186 372.192 121.993 371.697 121.799 371.201C123.93 372.985 126.352 374.571 128.289 376.553C129.548 377.841 130.71 379.328 131.098 381.112ZM116.956 351.777C119.184 349.895 122.477 350.489 124.802 351.877C127.804 353.76 129.257 357.228 130.614 360.399C132.163 363.67 134.197 367.336 137.878 368.328C141.172 369.219 143.981 366.94 144.853 363.868C145.046 363.868 145.337 363.967 145.627 363.967C145.046 366.147 143.593 368.129 141.462 369.021C138.266 370.31 134.876 368.228 132.841 365.751C130.517 362.877 129.548 359.21 127.611 356.039C125.867 353.264 123.058 350.985 119.765 351.48C118.021 351.777 116.956 352.868 116.278 354.354C116.181 353.958 116.084 353.561 115.987 353.264C116.084 352.669 116.471 352.174 116.956 351.777ZM112.694 340.282C114.728 340.876 116.762 341.372 118.796 342.065C122.864 343.354 126.836 344.741 130.807 346.426C131.098 346.822 131.388 347.219 131.679 347.714C131.195 347.516 130.71 347.318 130.226 347.12C126.158 345.435 121.993 343.948 117.828 342.66C116.084 342.165 114.437 341.669 112.694 341.174C112.694 340.777 112.597 340.48 112.694 340.282C112.597 340.282 112.597 340.282 112.694 340.282Z" fill="white"/>
<path d="M156.864 383.986C158.026 380.319 159.285 376.652 160.254 372.886C160.835 370.805 161.416 368.625 161.998 366.544C161.998 366.445 161.901 366.445 161.901 366.445C160.545 370.111 159.285 373.778 158.123 377.445C156.961 381.112 155.798 384.778 154.636 388.544C153.958 390.625 153.474 392.806 152.892 394.887C152.892 394.887 152.989 394.986 152.989 394.887C154.442 391.418 155.701 387.751 156.864 383.986Z" fill="var(--mainBlack)"/>
<path opacity="0.1" d="M112.403 339.192C114.922 352.372 123.736 379.625 128.483 384.878C133.229 390.13 159.382 397.86 159.382 397.86L162.772 386.86C148.049 368.724 125.867 342.363 114.437 328.786C112.21 329.182 111.047 332.353 112.403 339.192Z" fill="var(--mainBlack)"/>
<path d="M131.582 395.977L71.2363 395.184C71.2363 395.184 87.8 343.849 100.586 330.669C106.398 324.723 111.919 325.813 116.472 329.876C117.634 330.867 131.292 350.588 132.357 357.129C133.229 362.976 128.677 368.724 128.677 368.724L131.582 395.977Z" fill="var(--mainBlue)"/>
<path d="M129.354 395.878H130.129C130.517 394.689 130.807 393.599 131.195 392.409L131.001 390.526C130.42 392.409 129.936 394.193 129.354 395.878Z" fill="white"/>
<path d="M78.5976 394.887C77.9196 394.887 77.2415 395.085 76.6603 395.283L83.2471 395.382C81.6973 394.986 80.2443 394.788 78.5976 394.887Z" fill="white"/>
<path d="M117.925 342.561C121.024 343.453 124.027 344.543 127.03 345.732C126.836 345.336 126.642 345.039 126.352 344.642C123.833 343.75 121.315 342.858 118.796 342.065C116.762 341.471 114.728 340.876 112.694 340.282C110.757 339.687 108.819 339.092 107.076 338.002C104.17 336.218 101.845 332.651 103.201 329.083C103.298 328.786 103.492 328.389 103.686 328.092C103.298 328.389 102.814 328.687 102.426 328.984C102.233 329.38 102.136 329.876 102.136 330.272C101.651 333.741 103.879 336.813 106.592 338.498C108.238 339.489 110.079 340.183 111.919 340.777C113.856 341.471 115.89 341.966 117.925 342.561Z" fill="white"/>
<path d="M127.514 356.039C128.967 358.417 129.936 361.291 131.389 363.67C131.486 363.372 131.679 362.976 131.776 362.679C131.389 361.886 131.001 361.093 130.614 360.399C129.161 357.327 127.805 353.759 124.802 351.877C122.477 350.489 119.184 349.895 116.956 351.777C115.6 352.967 115.116 354.751 114.825 356.435C114.534 358.318 114.534 360.3 114.922 362.183C115.6 365.85 117.731 368.724 120.443 371.102C123.058 373.382 125.964 375.265 128.289 377.841C128.87 378.436 129.451 379.229 129.839 380.022L129.645 378.238C129.258 377.742 128.773 377.247 128.289 376.751C125.867 374.274 122.962 372.49 120.443 370.21C119.184 369.021 118.021 367.733 117.15 366.246C116.084 364.463 115.6 362.48 115.406 360.399C115.212 357.129 115.697 352.075 119.668 351.48C123.058 350.985 125.867 353.264 127.514 356.039Z" fill="white"/>
<path d="M107.56 344.642C109.982 347.516 109.497 351.777 107.657 354.751C105.817 357.724 103.007 359.607 100.102 361.291C97.4862 362.877 94.7741 364.264 92.5462 366.445C91.4807 367.436 90.6089 368.625 89.9309 369.913C89.2528 371.4 88.6716 373.183 89.4466 374.67C90.1246 375.958 91.4807 376.751 92.8368 376.949C94.4835 377.247 96.1302 376.652 97.68 375.958C99.5204 375.066 101.167 373.877 103.104 373.183C105.042 372.49 107.076 372.093 109.11 372.688C112.016 373.481 114.631 377.148 112.791 380.121C110.95 382.995 106.398 383.292 105.526 387.058C104.654 390.625 108.722 392.211 111.435 392.806C114.825 393.499 118.506 393.301 121.799 392.211C124.996 391.121 128.289 389.139 130.129 386.166C130.226 385.968 130.323 385.769 130.42 385.571L130.226 383.986C129.742 385.67 128.676 387.058 127.417 388.148C124.608 390.625 121.024 392.013 117.44 392.409C115.6 392.607 113.759 392.508 112.016 392.211C110.369 391.914 108.626 391.418 107.269 390.328C105.72 388.941 105.913 387.058 107.269 385.571C108.529 384.184 110.175 383.589 111.628 382.499C112.888 381.607 113.953 380.418 114.147 378.733C114.341 377.346 113.856 375.859 112.984 374.67C110.853 371.697 107.269 371.301 103.976 372.192C102.136 372.787 100.392 373.679 98.6486 374.67C97.0019 375.562 95.1615 376.553 93.3211 376.355C91.7713 376.157 90.0277 375.166 89.834 373.382C89.6403 371.697 90.7058 369.814 91.7713 368.526C93.7086 366.048 96.4207 364.463 99.0361 362.877C101.748 361.291 104.654 359.607 106.785 357.228C109.11 354.651 110.563 351.183 109.788 347.714C109.207 344.543 106.785 341.966 103.589 341.768C102.136 341.669 100.683 342.065 99.5204 342.957C98.1643 343.948 97.5831 345.534 97.2925 347.219C97.0019 349.003 96.9051 350.886 96.227 352.57C95.549 354.156 94.3866 355.642 92.9336 356.534C90.6089 358.12 87.7999 358.219 85.4751 356.832C85.3783 357.129 85.2814 357.327 85.1845 357.624C86.0563 358.219 87.1218 358.516 88.0905 358.615C91.287 358.913 94.2897 357.129 96.0333 354.453C97.0019 352.967 97.3894 351.381 97.5831 349.597C97.8737 347.813 97.9706 345.831 99.0361 344.345C101.361 341.57 105.623 342.165 107.56 344.642Z" fill="white"/>
<path d="M83.5379 370.409C84.5065 367.931 84.1191 365.354 83.0536 363.075C82.8599 363.372 82.763 363.769 82.6661 364.066C82.6661 364.066 82.6661 364.165 82.763 364.165C83.8285 366.94 83.6348 371.003 80.8257 372.787C80.2445 373.184 79.5665 373.382 78.9853 373.382C78.8884 373.679 78.7916 373.877 78.6947 374.175C80.8257 374.075 82.6661 372.589 83.5379 370.409Z" fill="white"/>
<path d="M74.917 384.382L80.632 384.184C84.6034 384.085 88.7685 383.589 92.5462 384.977C95.549 386.166 97.9706 389.04 97.7768 392.508C97.68 393.698 97.1957 394.788 96.3239 395.481H97.3894C98.7455 393.797 98.8424 391.319 97.9706 389.238C96.7114 386.067 93.9023 384.283 90.6089 383.589C86.7344 382.796 82.5692 383.292 78.5978 383.391C77.4355 383.391 76.37 383.49 75.2076 383.49C75.1107 383.887 75.0139 384.085 74.917 384.382Z" fill="white"/>
<path d="M111.435 368.427C113.953 368.327 116.472 368.327 118.893 368.625C120.152 368.724 121.315 368.922 122.574 369.219C123.155 369.318 123.833 369.418 124.414 369.517C124.996 369.616 125.674 369.715 126.352 369.616C126.449 369.616 126.449 369.715 126.352 369.715C125.77 369.814 125.189 369.913 124.511 369.913C123.93 369.913 123.349 369.913 122.768 369.814C121.508 369.715 120.249 369.517 118.99 369.319C116.472 369.021 113.953 368.724 111.435 368.625C111.338 368.625 111.338 368.427 111.435 368.427Z" fill="var(--mainBlack)"/>
<path d="M105.623 371.499C107.657 371.003 109.691 370.607 111.725 370.31C112.791 370.21 113.759 370.111 114.825 370.012C115.309 370.012 115.793 370.012 116.278 370.012C116.859 370.012 117.343 370.111 117.924 370.012C118.021 370.012 118.021 370.111 117.924 370.111C117.44 370.111 116.956 370.21 116.375 370.31C115.89 370.409 115.309 370.409 114.825 370.508C113.759 370.607 112.791 370.805 111.725 370.904C109.691 371.102 107.657 371.4 105.623 371.697C105.526 371.697 105.526 371.499 105.623 371.499Z" fill="var(--mainBlack)"/>
<path d="M98.6485 331.66C86.928 340.381 55.5442 376.256 61.7434 385.175C67.9427 394.094 111.435 392.31 124.221 388.941C127.998 387.95 118.99 363.075 114.922 361.787C111.628 360.697 92.643 365.454 92.3524 364.264C91.9649 362.976 96.4207 354.949 103.492 340.282C111.725 323.236 103.879 327.795 98.6485 331.66Z" fill="#AD6359"/>
<path d="M133.616 357.922C142.334 358.417 144.465 359.904 152.02 356.237C156.961 353.859 160.545 356.138 157.154 360.697C151.536 368.228 140.203 370.111 136.038 369.517L133.616 357.922Z" fill="#AD6359"/>
<path d="M109.594 361.787C109.594 361.787 120.152 358.219 129.451 357.823C135.941 357.525 149.986 358.417 160.545 374.967C163.063 378.832 163.935 386.265 157.542 381.409C152.989 377.94 151.149 374.373 148.243 372.886C148.243 372.886 148.243 382.4 144.272 384.778C142.528 385.869 137.685 388.643 133.616 390.328C133.616 390.328 133.035 389.535 132.454 388.346C132.454 388.346 128.58 390.229 122.283 388.346L109.594 361.787Z" fill="#AD6359"/>
<path d="M135.554 358.516C138.169 360.697 143.69 365.354 146.984 370.706C150.568 376.751 155.895 389.337 151.536 392.013C148.34 393.995 145.918 389.337 145.918 389.337C145.918 389.337 147.08 394.986 143.787 396.175C140.784 397.166 139.138 393.499 139.138 393.499C139.138 393.499 139.234 397.067 136.232 397.463C132.551 397.959 132.938 390.427 128.773 387.652C127.805 386.959 135.554 358.516 135.554 358.516Z" fill="#AD6359"/>
<path d="M140.203 373.58C142.334 376.057 145.918 382.895 146.015 389.238C146.015 389.337 145.918 389.436 145.918 389.337C144.271 382.301 141.462 376.157 140.203 373.58C140.106 373.58 140.106 373.58 140.203 373.58Z" fill="var(--mainBlack)"/>
<path d="M134.294 377.445C135.941 379.724 139.234 386.959 139.234 393.4C139.234 393.499 139.138 393.598 139.138 393.499C137.685 386.166 135.457 380.121 134.294 377.445Z" fill="var(--mainBlack)"/>
<path d="M148.146 372.688C150.761 374.075 152.311 375.76 154.345 377.94C155.314 379.03 156.379 380.022 157.445 380.913C158.414 381.805 159.963 382.995 161.319 382.301C162.094 381.904 162.288 380.913 162.288 380.121C162.288 379.229 161.707 377.445 161.416 376.652C161.416 376.652 161.513 376.553 161.513 376.652C161.901 377.346 162.482 379.03 162.676 379.823C162.772 380.517 162.869 381.409 162.482 382.103C161.804 383.589 159.963 383.391 158.801 382.796C158.123 382.4 157.445 381.805 156.864 381.31C156.283 380.814 155.701 380.22 155.12 379.625C153.958 378.436 152.892 377.247 151.73 376.057C150.374 374.67 149.502 373.976 148.146 372.688Z" fill="var(--mainBlack)"/>
<path d="M152.117 383.787C151.73 382.004 149.115 374.571 148.146 372.787C148.146 372.787 148.146 372.688 148.243 372.787C149.986 375.265 152.408 381.508 152.892 383.49C153.377 385.373 153.861 387.851 153.473 389.734C152.892 392.707 150.858 392.905 150.18 392.905C149.308 392.905 148.533 392.607 147.759 392.013C146.984 391.418 146.402 390.328 145.918 389.436C145.918 389.436 145.918 389.337 146.015 389.436C146.79 390.824 148.243 392.31 149.89 392.409C150.568 392.409 151.342 392.31 151.827 391.815C152.408 391.22 152.602 390.328 152.699 389.535C152.892 387.454 152.505 385.571 152.117 383.787Z" fill="var(--mainBlack)"/>
<path d="M109.594 361.787L117.537 393.103C117.537 393.103 63.0997 394.788 60.2906 384.58C57.5784 374.373 84.7003 341.966 95.8396 333.146C108.722 322.939 109.304 327.398 104.945 337.804C100.392 348.705 92.5463 364.264 92.5463 364.264L109.594 361.787Z" fill="var(--mainBlue)"/>
<path d="M105.042 337.507C105.139 337.209 105.235 337.011 105.332 336.714C103.298 334.732 102.039 331.957 103.104 329.083C103.201 328.687 103.395 328.389 103.589 328.092C103.201 328.191 102.814 328.389 102.426 328.687C102.233 329.182 102.039 329.777 101.942 330.371C101.555 333.146 103.008 335.723 105.042 337.507ZM90.0278 369.913C90.7058 368.625 91.5776 367.436 92.6431 366.445C93.7086 365.454 94.7741 364.661 96.0334 363.868L97.9706 363.571C95.7428 364.859 93.5149 366.345 91.8682 368.427C90.8996 369.715 89.8341 371.598 89.9309 373.283C90.1247 375.066 91.7713 376.057 93.418 376.256C95.3553 376.454 97.0989 375.463 98.7455 374.571C100.489 373.58 102.136 372.688 104.073 372.093C107.173 371.201 110.66 371.598 112.791 374.175L114.05 379.229C113.663 380.517 112.791 381.508 111.725 382.301C110.272 383.391 108.626 383.986 107.366 385.373C106.107 386.86 105.913 388.743 107.366 390.13C108.626 391.319 110.466 391.716 112.113 392.013C113.856 392.31 115.6 392.409 117.343 392.211L117.537 393.004C115.503 393.202 113.469 393.103 111.532 392.707C108.819 392.211 104.751 390.526 105.623 386.959C106.495 383.193 111.047 382.895 112.888 380.022C114.728 377.048 112.113 373.382 109.207 372.589C107.173 372.093 105.139 372.391 103.201 373.084C101.264 373.778 99.6173 374.868 97.7769 375.859C96.2271 376.652 94.5804 377.148 92.9337 376.85C91.5776 376.652 90.2215 375.859 89.5435 374.571C88.7686 373.184 89.2529 371.4 90.0278 369.913ZM96.2271 354.354C94.4835 356.931 91.3839 358.814 88.2843 358.516C85.2815 358.219 82.6662 355.94 81.7944 352.967C79.954 347.12 85.8627 343.849 89.7372 341.174C91.6745 339.885 93.8055 338.201 94.4835 335.822C94.6773 335.227 94.7741 334.633 94.7741 334.038C95.0647 333.84 95.2584 333.642 95.4522 333.444C95.6459 334.831 95.3553 336.218 94.6773 337.507C92.1588 341.966 86.4438 343.156 83.5379 347.219C82.763 348.309 82.2787 349.696 82.2787 351.084C82.3756 352.768 83.0536 354.255 84.1191 355.444C86.5407 358.021 90.2215 358.318 93.0306 356.336C94.4835 355.345 95.6459 353.958 96.3239 352.372C97.002 350.687 97.002 348.804 97.3894 347.021C97.68 345.435 98.2612 343.849 99.6173 342.759C100.683 341.966 101.942 341.57 103.201 341.57C103.104 341.867 102.911 342.165 102.814 342.363C101.458 342.462 100.102 342.957 99.2299 344.246C98.1644 345.732 97.9706 347.714 97.7769 349.498C97.5832 351.282 97.1957 352.967 96.2271 354.354ZM83.5379 370.409C82.3756 373.382 79.4696 374.967 76.4669 373.877C72.9798 372.589 70.8488 369.12 69.299 365.85C69.0084 365.354 68.8146 364.859 68.6209 364.264C68.8146 363.967 68.9115 363.769 69.1052 363.472C69.7833 365.255 70.655 366.94 71.6237 368.526C73.4641 371.301 77.1449 374.868 80.632 372.787C83.4411 371.102 83.6348 366.94 82.5693 364.165C81.8912 362.282 80.7289 360.697 79.4697 359.111C78.3073 357.624 77.0481 356.039 75.8857 354.453L75.7888 354.354C75.9826 354.156 76.0794 353.958 76.2731 353.76C76.9512 354.751 77.7261 355.742 78.501 356.733C79.6634 358.219 80.8257 359.607 81.8912 361.192C83.7317 363.967 84.7003 367.237 83.5379 370.409ZM60.1938 381.31C61.7436 382.598 63.584 383.292 65.6181 383.589C67.6523 383.887 69.7833 383.787 71.8174 383.688C74.0453 383.589 76.37 383.49 78.5979 383.49C82.5693 383.391 86.7344 382.896 90.609 383.688C93.8055 384.382 96.7114 386.067 97.9706 389.337C98.455 390.625 98.6487 391.914 98.3581 393.202C98.0675 393.202 97.8738 393.202 97.5832 393.202C97.5832 393.004 97.68 392.806 97.68 392.607C97.9706 389.238 95.4522 386.265 92.4494 385.076C88.6717 383.589 84.4097 384.085 80.5352 384.283L73.7547 384.481C71.6237 384.58 69.4927 384.679 67.4586 384.58C65.5213 384.481 63.6809 384.184 61.8405 383.391C61.1624 383.094 60.5812 382.697 60 382.301C60.0969 381.904 60.1938 381.607 60.1938 381.31Z" fill="white"/>
<path d="M75.1106 369.021C77.8228 367.733 80.7287 366.742 83.6346 365.949C86.4437 365.156 89.4464 364.562 92.3524 364.264C93.999 364.066 95.7426 363.868 97.3893 363.769C97.4861 363.769 97.4861 363.868 97.3893 363.868C94.3865 364.165 91.4806 364.859 88.5747 365.553C85.6687 366.246 82.8597 366.94 79.9538 367.733C78.3071 368.228 76.7573 368.724 75.1106 369.219C75.1106 369.12 75.1106 369.021 75.1106 369.021Z" fill="var(--mainBlack)"/>
<path d="M109.401 361.688C109.11 361.688 93.9023 363.67 93.418 363.868C93.5149 363.67 97.5832 356.435 98.1644 355.345C98.2612 355.246 98.2612 355.147 98.3581 355.048C98.7455 354.552 99.0361 354.156 99.4236 353.66C99.811 353.066 100.295 352.471 100.683 351.877C100.198 352.471 99.811 353.066 99.3267 353.66C99.133 353.958 98.9393 354.255 98.7455 354.453C99.133 353.66 99.5205 352.967 99.9079 352.174C100.489 350.985 101.167 349.696 101.748 348.507C101.748 348.507 101.748 348.408 101.651 348.507C100.489 350.588 99.2299 352.669 98.0675 354.85C96.9051 356.931 92.3525 364.76 92.3525 364.76C92.3525 364.76 109.11 362.183 109.497 362.084C109.594 361.886 109.594 361.688 109.401 361.688Z" fill="var(--mainBlack)"/>
<path d="M106.882 380.616C106.01 377.148 105.139 373.58 104.17 370.111C103.589 368.129 103.008 366.147 102.426 364.165C102.426 364.066 102.233 364.165 102.329 364.165C103.104 367.733 103.782 371.301 104.654 374.769C105.526 378.238 106.398 381.805 107.366 385.274C107.851 387.256 108.529 389.238 109.11 391.121H109.207C108.626 387.652 107.754 384.184 106.882 380.616Z" fill="var(--mainBlack)"/>
<path d="M118.118 393.797C117.731 392.806 117.343 391.418 116.956 390.427C116.859 390.13 116.665 390.229 116.762 390.427C117.053 391.319 117.15 392.31 117.44 393.202C116.665 393.202 115.89 393.202 115.115 393.202C114.244 393.202 113.372 393.202 112.5 393.202C110.757 393.202 109.013 393.202 107.366 393.202C103.879 393.202 100.392 393.103 96.905 392.905C89.9308 392.508 82.9566 391.914 75.9824 390.824C74.0452 390.526 72.1079 390.13 70.1706 389.734C68.2333 389.337 66.1023 388.842 64.5525 388.346C64.4557 388.346 64.4557 388.445 64.5525 388.445C66.1992 389.139 67.6522 389.634 69.3957 390.031C71.1393 390.427 72.8828 390.824 74.6263 391.121C78.1134 391.716 81.6005 392.211 85.0876 392.607C92.0618 393.301 99.036 393.698 106.107 393.797C108.044 393.797 110.078 393.797 112.016 393.797C112.984 393.797 113.953 393.797 115.019 393.797C115.793 393.896 118.118 393.896 118.118 393.797Z" fill="var(--mainBlack)"/>
<path d="M119.862 398.95H184.083V401.923H119.862V398.95Z" fill="var(--lightGray2)"/>
<path d="M184.083 398.95V401.824H140.397L142.625 398.95H184.083Z" fill="var(--darkGray)"/>
<path d="M145.337 401.824H208.008L213.239 358.318H150.568L145.337 401.824Z" fill="var(--lightGray2)"/>
<path d="M175.462 380.121C175.462 382.301 177.108 383.986 179.239 383.986C181.37 383.986 183.114 382.202 183.114 380.121C183.114 377.94 181.467 376.256 179.336 376.256C177.205 376.256 175.462 377.94 175.462 380.121Z" fill="white"/>
<path d="M105.72 329.182C105.913 330.272 110.66 337.507 115.503 337.507C117.053 337.507 117.44 328.687 117.44 328.687L117.634 327.993L119.959 318.975L109.788 311.641L108.335 310.65C108.335 310.65 107.851 313.128 107.27 316.299C107.27 316.398 107.173 316.596 107.173 316.794C107.173 316.993 107.076 317.092 107.076 317.29C106.979 317.785 106.882 318.281 106.785 318.677C106.688 319.074 106.688 319.371 106.592 319.768C106.495 320.164 106.495 320.56 106.398 320.957C105.913 324.822 105.623 328.786 105.72 329.182Z" fill="#AD6359"/>
<path d="M107.27 316.398C109.497 323.732 115.116 327.002 117.634 328.092L119.959 319.074L109.788 311.74L108.335 310.749C108.335 310.749 107.851 313.227 107.27 316.398Z" fill="var(--mainBlack)"/>
<path d="M99.2299 303.812C98.4549 304.01 97.7769 304.01 97.0989 303.614C96.9051 303.515 96.7114 303.317 96.5177 303.217C96.2271 303.019 95.8396 303.019 95.549 303.019C95.1616 303.019 94.7741 303.019 94.3867 302.92C93.2243 302.722 91.9651 302.028 91.6745 300.74C89.931 301.235 87.9937 300.344 87.2188 298.659C87.1219 298.461 87.025 298.163 87.025 297.965C86.9282 297.668 86.9282 297.271 86.7344 296.974C86.5407 296.677 86.1533 296.578 85.8627 296.379C85.6689 296.28 85.3783 296.082 85.1846 295.884C84.7003 295.388 84.4097 294.397 84.894 293.803C83.9254 293.506 83.4411 292.415 83.4411 291.424C83.3442 290.136 83.9254 288.947 84.7972 288.055C83.8285 286.866 84.0223 284.785 85.2815 283.893C84.5066 282.505 85.1846 280.622 86.6376 280.127C86.5407 278.838 87.1219 277.55 88.0905 276.757C88.2843 276.559 88.478 276.361 88.5748 276.163C88.478 275.271 88.5749 274.379 89.2529 273.685C89.931 272.991 90.8996 272.793 91.7714 273.19C91.9651 272.892 92.4494 272.298 93.3212 271.703C94.193 271.208 95.3553 271.108 96.2271 271.604C97.8738 269.622 100.78 269.424 102.523 271.307C103.201 270.217 104.557 269.919 105.72 270.117C107.173 270.415 108.238 271.505 109.013 272.694C109.788 272 110.854 271.802 111.725 272.496C112.403 272.991 112.694 273.784 112.597 274.577C113.372 274.874 114.244 275.271 114.631 276.064C115.019 276.757 114.922 277.649 114.534 278.244C116.472 279.037 116.956 281.712 115.406 283.199C116.665 283.496 117.828 284.388 118.118 285.776C118.506 287.163 117.925 288.65 116.859 289.541C117.925 290.235 118.409 291.523 118.215 292.713C118.021 294.199 116.859 295.289 115.6 295.983C116.181 297.073 115.987 298.461 115.212 299.452C114.534 300.344 113.372 300.74 112.306 300.74C113.372 301.136 114.534 301.037 115.503 300.046C116.568 298.857 116.472 297.172 115.697 295.884C116.665 297.172 116.859 298.956 115.697 300.244C114.631 301.434 112.985 301.434 111.628 300.839C111.822 302.226 111.241 303.713 110.079 304.506C108.916 305.299 107.366 305.299 106.204 304.605C104.364 307.082 100.198 307.182 99.2299 303.812ZM88.6717 275.667C88.6717 275.568 88.6717 275.568 88.6717 275.667C88.7686 275.271 88.8654 275.073 88.9623 274.775C89.2529 274.28 89.7372 273.784 90.3184 273.586C90.609 273.487 90.8996 273.388 91.0933 273.289C91.287 273.289 91.5776 273.289 91.5776 273.289C91.5776 273.289 91.5776 273.289 91.6745 273.19C90.7059 272.991 89.7372 273.289 89.156 274.181C88.7686 274.577 88.6717 275.073 88.6717 275.667ZM112.306 274.379C112.403 273.685 112.21 272.991 111.532 272.496C110.66 271.802 109.788 272.099 109.013 272.694C109.013 272.694 109.013 272.694 109.013 272.793C109.885 272.397 110.854 272.496 111.532 273.19C111.919 273.487 112.21 273.982 112.306 274.379ZM104.945 305.299C103.104 306.389 100.683 305.794 99.5205 303.812C100.489 306.587 103.008 306.587 104.945 305.299Z" fill="var(--mainBlack)"/>
<path d="M131.292 301.83C136.038 317.488 127.417 322.245 124.124 323.236C121.121 324.227 110.757 327.002 104.461 311.938C98.1644 296.875 103.782 289.641 110.563 287.064C117.247 284.487 126.545 286.172 131.292 301.83Z" fill="#AD6359"/>
<path d="M128.289 299.749C127.901 299.848 127.514 299.848 127.223 299.848C126.836 299.848 126.448 299.947 126.061 299.749C125.867 299.65 125.77 299.253 125.867 299.055C126.061 298.56 126.642 298.361 127.127 298.361C127.708 298.262 128.095 298.361 128.579 298.758C129.064 298.956 128.773 299.749 128.289 299.749Z" fill="var(--mainBlack)"/>
<path d="M117.731 302.821C118.118 302.623 118.409 302.524 118.699 302.326C119.087 302.127 119.377 302.028 119.571 301.632C119.668 301.434 119.571 301.037 119.377 300.938C118.893 300.641 118.409 300.74 117.924 301.037C117.44 301.335 117.15 301.632 116.859 302.127C116.665 302.524 117.246 303.019 117.731 302.821Z" fill="var(--mainBlack)"/>
<path d="M121.218 305.992L121.121 306.091C121.509 307.182 121.702 308.47 120.83 309.064V309.164C122.09 308.668 121.799 306.983 121.218 305.992Z" fill="var(--mainBlack)"/>
<path d="M119.959 305.2C118.215 305.596 119.184 309.065 120.734 308.668C122.38 308.371 121.412 304.902 119.959 305.2Z" fill="var(--mainBlack)"/>
<path d="M119.377 305.596C119.087 305.893 118.893 306.29 118.603 306.488C118.215 306.686 117.828 306.389 117.44 306.091C117.44 306.091 117.343 306.091 117.44 306.191C117.634 306.884 118.021 307.479 118.796 307.38C119.474 307.281 119.765 306.587 119.765 305.893C119.571 305.596 119.474 305.497 119.377 305.596Z" fill="var(--mainBlack)"/>
<path d="M127.03 304.208C127.03 304.208 127.127 304.208 127.127 304.308C127.32 305.398 127.805 306.587 128.87 306.686V306.785C127.708 306.884 127.127 305.299 127.03 304.208Z" fill="var(--mainBlack)"/>
<path d="M127.708 302.821C129.355 302.226 130.42 305.695 128.87 306.191C127.32 306.785 126.352 303.317 127.708 302.821Z" fill="var(--mainBlack)"/>
<path d="M128.483 302.821C128.773 302.92 129.161 303.218 129.451 303.118C129.839 303.019 130.032 302.524 130.129 302.127H130.226C130.42 302.821 130.42 303.515 129.839 303.812C129.354 304.109 128.676 303.713 128.386 303.019C128.289 303.019 128.386 302.722 128.483 302.821Z" fill="var(--mainBlack)"/>
<path d="M123.446 314.912C123.736 315.11 124.124 315.407 124.511 315.308C124.899 315.209 125.286 315.011 125.577 314.812H125.674C125.48 315.308 124.996 315.704 124.414 315.704C123.93 315.803 123.543 315.407 123.446 314.912Z" fill="var(--mainBlack)"/>
<path d="M126.739 309.758C126.739 309.758 127.417 311.344 127.611 312.038C127.611 312.137 127.417 312.236 127.223 312.236C125.964 312.83 124.511 312.731 123.446 311.839C123.349 311.74 123.446 311.641 123.543 311.74C124.705 312.236 125.867 312.038 127.03 311.74C127.03 311.542 125.77 309.164 125.964 309.065C126.352 308.866 127.223 308.965 127.708 308.965C126.448 305.695 124.608 302.722 123.446 299.452C123.446 299.353 123.543 299.253 123.639 299.353C125.77 302.425 127.32 306.091 128.676 309.461C128.773 309.956 127.126 309.758 126.739 309.758Z" fill="var(--mainBlack)"/>
<path d="M105.332 311.245C108.335 311.245 108.238 304.209 108.238 304.209C108.238 304.209 120.443 300.443 120.249 289.839C120.249 289.839 123.252 296.181 130.129 298.362C130.129 298.362 128.289 286.965 119.087 285.974C119.087 285.974 107.56 283.298 102.523 293.01C97.4863 302.821 103.395 311.245 105.332 311.245Z" fill="var(--mainBlack)"/>
<path d="M120.153 289.145C120.54 290.731 120.54 292.415 120.153 294.001C119.862 295.587 119.281 297.172 118.312 298.56C118.118 298.956 117.828 299.253 117.537 299.551L117.15 300.046C117.053 300.145 116.859 300.344 116.762 300.443C116.472 300.74 116.181 301.037 115.891 301.235C115.6 301.434 115.212 301.731 114.922 301.929C114.728 302.028 114.631 302.127 114.438 302.226L113.953 302.524L112.888 303.118C112.113 303.416 111.435 303.713 110.66 304.01C111.338 303.614 112.016 303.218 112.694 302.821L113.663 302.127L114.147 301.83C114.341 301.731 114.438 301.533 114.631 301.434C114.922 301.136 115.212 300.938 115.503 300.641C115.794 300.344 116.084 300.046 116.278 299.848L116.665 299.452L117.053 298.956C117.247 298.659 117.537 298.362 117.731 298.064C118.603 296.776 119.184 295.289 119.668 293.803C119.862 293.01 120.056 292.316 120.056 291.523C120.249 290.731 120.249 289.938 120.153 289.145Z" fill="var(--mainBlack)"/>
<path d="M106.591 316.993C106.882 316.993 107.173 317.092 107.366 316.993C107.657 316.993 107.851 316.894 108.141 316.894C108.529 316.794 108.722 316.596 109.013 316.398C109.207 316.2 109.4 316.002 109.497 315.803C109.788 315.308 109.885 314.812 109.885 314.812L108.141 310.749C108.141 310.749 103.685 306.488 101.651 308.272C99.7141 309.956 103.782 316.596 106.591 316.993Z" fill="#AD6359"/>
<path d="M102.911 310.056C102.814 310.056 102.814 310.155 102.911 310.056C104.945 310.452 106.204 312.038 107.27 313.623C106.592 313.029 105.72 312.83 104.945 313.722C104.945 313.722 104.945 313.821 105.042 313.821C105.72 313.524 106.301 313.524 106.979 314.02C107.463 314.416 107.754 314.912 108.141 315.308C108.238 315.407 108.529 315.308 108.432 315.11C107.948 312.632 105.429 309.758 102.911 310.056Z" fill="var(--mainBlack)"/>
<path d="M106.689 316.299C106.882 316.695 107.27 316.894 107.657 316.695C108.045 316.497 108.238 316.101 108.045 315.704C107.851 315.308 107.463 315.11 107.076 315.308C106.689 315.407 106.495 315.903 106.689 316.299Z" fill="white"/>
<path d="M104.945 315.506C105.042 315.803 105.332 315.903 105.623 315.803C105.913 315.704 106.01 315.407 105.913 315.11C105.817 314.812 105.526 314.713 105.235 314.812C104.945 314.912 104.848 315.209 104.945 315.506Z" fill="white"/>
<path d="M105.429 316.596C105.623 317.29 103.008 315.209 102.911 314.812C102.717 314.416 101.167 313.623 100.683 312.929C100.198 312.236 99.133 310.254 98.9393 309.758C98.7456 309.263 97.6801 308.073 97.4863 307.182C97.3895 306.29 96.4208 298.064 100.877 291.821C105.332 285.478 109.982 284.388 109.982 284.388C109.982 284.388 113.178 283.199 117.15 282.902C121.121 282.505 128.095 290.929 128.192 291.127C128.192 291.325 128.095 292.019 128.386 292.514C128.676 293.01 129.354 293.506 129.161 294.1C128.967 294.695 129.936 295.983 130.033 296.479C130.129 297.073 130.033 297.271 130.129 297.569C130.323 297.965 126.836 288.154 114.437 286.568C114.341 286.667 102.233 300.74 105.429 316.596Z" fill="var(--mainBlue)"/>
<path opacity="0.3" d="M122.865 287.956C123.058 288.451 123.736 288.749 124.221 288.451C124.608 288.253 124.802 287.857 124.802 287.46C124.511 287.163 124.124 286.767 123.736 286.469C123.64 286.469 123.446 286.469 123.349 286.568C122.865 286.866 122.671 287.46 122.865 287.956ZM118.215 286.568C118.7 286.37 119.378 286.568 119.571 287.064C119.668 287.361 119.668 287.658 119.571 287.956C118.99 287.758 118.312 287.46 117.634 287.361C117.731 286.965 117.925 286.767 118.215 286.568ZM125.771 290.929C126.255 290.632 126.933 290.929 127.127 291.424C127.32 291.92 127.224 292.514 126.739 292.713C126.352 292.217 125.867 291.821 125.286 291.325C125.383 291.127 125.577 291.028 125.771 290.929ZM104.267 287.956C104.364 288.055 104.557 288.154 104.557 288.352C104.751 288.848 104.557 289.541 104.073 289.74C103.589 289.938 103.104 289.839 102.814 289.442C103.298 288.848 103.783 288.352 104.267 287.956ZM104.945 296.677C105.429 296.479 106.107 296.677 106.301 297.172C106.495 297.668 106.301 298.361 105.817 298.56C105.332 298.758 104.654 298.56 104.461 298.064C104.17 297.569 104.364 296.875 104.945 296.677ZM114.534 283.199C115.116 283.1 115.794 283.001 116.472 282.902C116.665 283.397 116.472 284.091 115.987 284.289C115.503 284.487 114.825 284.289 114.631 283.793C114.534 283.595 114.534 283.397 114.534 283.199ZM110.079 285.676C110.563 285.478 111.241 285.676 111.435 286.172C111.628 286.667 111.435 287.361 110.95 287.559C110.466 287.758 109.788 287.559 109.594 287.064C109.304 286.568 109.497 285.974 110.079 285.676ZM107.948 291.127C108.432 290.929 109.11 291.127 109.304 291.623C109.497 292.118 109.304 292.812 108.819 293.01C108.335 293.208 107.657 293.01 107.463 292.514C107.173 292.019 107.463 291.424 107.948 291.127ZM100.586 293.605C101.07 293.406 101.748 293.605 101.942 294.1C102.136 294.596 101.942 295.289 101.458 295.488C100.973 295.686 100.295 295.488 100.102 294.992C99.8111 294.397 100.005 293.803 100.586 293.605ZM101.748 301.434C102.233 301.235 102.911 301.434 103.104 301.929C103.298 302.425 103.104 303.118 102.62 303.317C102.136 303.515 101.458 303.317 101.264 302.821C100.973 302.326 101.264 301.632 101.748 301.434ZM104.364 312.929C104.557 312.83 104.751 312.83 104.945 312.83C104.945 313.524 105.042 314.218 105.139 314.812C104.654 315.011 104.073 314.713 103.879 314.218C103.686 313.821 103.879 313.227 104.364 312.929ZM105.526 304.209C105.623 304.209 105.72 304.109 105.72 304.109C105.623 304.704 105.429 305.398 105.332 305.992C105.235 305.893 105.042 305.794 104.945 305.596C104.751 305.1 104.945 304.506 105.526 304.209ZM97.8738 298.956C98.2613 298.956 98.6487 299.154 98.8425 299.551C99.0362 300.046 98.8425 300.74 98.3581 300.938C98.0675 301.037 97.777 301.037 97.5832 300.938C97.5832 300.344 97.6801 299.65 97.8738 298.956ZM101.361 307.578C101.845 307.38 102.523 307.578 102.717 308.073C102.911 308.569 102.717 309.263 102.233 309.461C101.748 309.659 101.07 309.461 100.877 308.965C100.683 308.47 100.877 307.875 101.361 307.578ZM100.102 311.344C100.199 311.641 100.199 311.938 100.102 312.236C99.8111 311.74 99.5205 311.245 99.3268 310.749C99.6174 310.749 99.908 310.947 100.102 311.344ZM97.2926 304.704C97.7769 304.605 98.2613 304.803 98.455 305.299C98.6487 305.794 98.455 306.488 97.9707 306.686C97.777 306.785 97.5832 306.785 97.3895 306.785C97.3895 306.389 97.2926 305.695 97.2926 304.704Z" fill="white"/>
<path opacity="0.1" d="M102.911 314.812C102.717 314.119 102.62 313.326 102.523 312.632C102.426 311.938 102.329 311.146 102.329 310.452C102.232 308.965 102.136 307.479 102.039 305.992C102.039 305.596 102.039 305.299 102.039 304.902C102.039 304.506 102.136 304.209 102.232 303.812C102.426 303.118 102.717 302.425 103.007 301.731C103.298 301.037 103.589 300.344 103.782 299.65L104.654 297.668C103.976 298.956 103.395 300.344 102.814 301.731C102.523 302.425 102.232 303.118 102.039 303.812C101.942 304.209 101.845 304.506 101.748 304.902C101.748 305.299 101.748 305.695 101.748 305.992C101.845 307.479 101.942 308.965 102.039 310.452C102.136 311.146 102.232 311.938 102.329 312.632C102.426 313.029 102.426 313.326 102.523 313.722C102.62 314.119 102.717 314.515 102.911 314.812Z" fill="var(--mainBlack)"/>
<path opacity="0.1" d="M101.167 299.65C100.683 300.443 100.295 301.235 100.005 302.028C99.6172 302.821 99.3266 303.713 99.1329 304.506C98.9391 305.398 98.7454 306.29 98.6485 307.182C98.6485 308.073 98.6485 308.965 98.9391 309.857C98.9391 309.659 98.8423 309.461 98.8423 309.164C98.8423 309.064 98.8423 308.965 98.8423 308.866V308.569C98.8423 308.47 98.8423 308.371 98.8423 308.272V307.974C98.8423 307.776 98.8423 307.578 98.8423 307.281L98.9391 306.587L99.036 305.893C99.036 305.695 99.1329 305.497 99.1329 305.299C99.2297 305.1 99.2297 304.902 99.3266 304.704C99.5203 303.812 99.8109 303.019 100.198 302.226C100.392 301.83 100.489 301.434 100.683 301.037C100.78 300.443 100.973 300.046 101.167 299.65Z" fill="var(--mainBlack)"/>
<path opacity="0.1" d="M128.095 292.019C127.611 291.325 127.03 290.731 126.449 290.136C125.867 289.541 125.189 289.046 124.608 288.451C123.93 287.956 123.349 287.361 122.671 286.866C121.993 286.37 121.218 286.073 120.443 285.875C120.83 286.073 121.218 286.172 121.508 286.37C121.896 286.568 122.187 286.767 122.574 287.064C122.865 287.262 123.252 287.559 123.543 287.857L124.511 288.649L126.352 290.235C126.642 290.532 126.933 290.83 127.32 291.028C127.514 291.424 127.805 291.722 128.095 292.019Z" fill="var(--mainBlack)"/>
<path opacity="0.1" d="M129.064 294.497C128.773 294.001 128.386 293.505 127.998 293.01C127.611 292.514 127.223 292.118 126.836 291.623C126.642 291.424 126.448 291.226 126.158 291.028C125.964 290.83 125.673 290.632 125.48 290.532L124.705 290.037C124.414 289.839 124.221 289.74 123.93 289.541C124.124 289.74 124.414 289.938 124.608 290.136L125.286 290.731C125.48 290.929 125.77 291.127 125.964 291.325C126.158 291.523 126.448 291.722 126.642 291.92C127.03 292.316 127.417 292.812 127.901 293.208C128.095 293.406 128.289 293.605 128.483 293.902C128.676 294.001 128.87 294.199 129.064 294.497Z" fill="var(--mainBlack)"/>
<path opacity="0.1" d="M101.845 290.532C103.976 291.127 108.819 292.316 109.885 292.019C110.078 291.92 110.466 291.821 110.853 291.623C112.694 288.451 114.341 286.568 114.341 286.568C115.89 286.767 117.343 287.064 118.603 287.46C119.765 286.469 120.927 284.983 121.315 284.388C119.765 283.298 118.312 282.604 117.15 282.703C113.178 283.1 109.982 284.19 109.982 284.19C109.982 284.19 106.01 285.379 101.845 290.532Z" fill="var(--mainBlack)"/>
<path d="M113.275 284.586C113.275 284.586 116.472 278.64 122.187 277.748C122.187 277.748 122.187 283.496 120.249 285.577C119.281 286.568 114.825 287.163 114.244 286.469C113.759 285.676 113.275 284.586 113.275 284.586Z" fill="var(--mainBlue)"/>
<path opacity="0.3" d="M117.44 279.829C117.731 280.028 118.118 280.127 118.506 279.929C118.893 279.73 119.184 279.235 119.087 278.739C118.409 279.136 117.925 279.433 117.44 279.829ZM121.121 281.811C121.315 281.712 121.605 281.712 121.799 281.712C121.702 282.406 121.508 283.1 121.315 283.694C121.024 283.595 120.83 283.397 120.637 283.1C120.443 282.703 120.637 282.01 121.121 281.811ZM115.115 282.406C115.6 282.208 116.278 282.406 116.472 282.902C116.665 283.397 116.472 284.091 115.987 284.289C115.503 284.487 114.825 284.289 114.631 283.794C114.437 283.298 114.631 282.703 115.115 282.406Z" fill="white"/>
<path opacity="0.1" d="M113.275 284.586C113.275 284.586 113.759 285.676 114.34 286.37L114.437 286.469L114.534 286.568H114.631C115.115 286.767 116.084 286.767 117.149 286.568C116.956 285.776 116.762 284.785 116.471 284.091C116.181 283.496 115.406 283.001 114.728 282.604C113.759 283.694 113.275 284.586 113.275 284.586Z" fill="var(--mainBlack)"/>
<path d="M111.919 285.379C111.919 285.379 103.879 284.487 100.198 286.469C100.198 286.469 102.426 290.632 106.494 291.424C108.335 291.821 113.372 288.253 113.081 287.361C112.694 286.37 111.919 285.379 111.919 285.379Z" fill="var(--mainBlue)"/>
<path opacity="0.3" d="M102.717 289.244C102.911 289.74 103.589 290.037 104.073 289.74C104.557 289.541 104.848 288.848 104.557 288.352C104.363 287.857 103.685 287.559 103.201 287.857C102.717 288.055 102.523 288.65 102.717 289.244ZM110.078 285.676C110.563 285.478 111.241 285.676 111.435 286.172C111.628 286.667 111.435 287.361 110.95 287.559C110.466 287.758 109.788 287.559 109.594 287.064C109.304 286.568 109.497 285.974 110.078 285.676ZM107.947 291.127C108.141 291.028 108.238 291.028 108.432 291.028C108.141 291.127 107.947 291.226 107.657 291.325C107.754 291.226 107.851 291.226 107.947 291.127Z" fill="white"/>
<path opacity="0.1" d="M110.078 285.28C109.981 286.073 109.981 287.163 110.369 287.956C110.563 288.451 111.047 288.848 111.434 289.244C112.403 288.451 113.081 287.758 112.984 287.361C112.694 286.469 111.919 285.379 111.919 285.379C111.919 285.379 111.241 285.28 110.078 285.28Z" fill="var(--mainBlack)"/>
<path d="M111.144 287.262C111.822 288.55 113.469 288.947 114.728 288.253C115.987 287.559 116.375 285.875 115.696 284.586C115.018 283.298 113.372 282.902 112.113 283.595C110.853 284.388 110.466 285.974 111.144 287.262Z" fill="var(--mainBlue)"/>
<path d="M120.927 332.948C120.927 332.948 120.443 339.39 114.534 340.083C108.626 340.777 98.9392 330.867 98.9392 330.867C98.9392 330.867 103.782 326.011 110.563 326.308C116.084 326.506 120.927 332.948 120.927 332.948Z" fill="#AD6359"/>
<path d="M554.502 467.679C554.502 467.679 571.81 463.803 581.324 455.255C590.838 446.707 596.101 431.3 596.101 431.3C596.101 431.3 585.878 433.089 576.668 436.27C575.15 437.86 572.215 441.24 570.798 444.42C570.798 444.42 570.494 441.041 570.798 438.556C568.368 439.649 566.142 440.942 564.623 442.234C556.627 448.993 554.502 467.679 554.502 467.679Z" fill="var(--mainBlue)"/>
<path d="M585.271 438.755C587.599 437.165 590.028 435.574 592.356 433.984C592.457 433.884 592.356 433.686 592.255 433.785C587.802 436.369 583.348 439.152 579.097 442.134C577.579 443.128 576.162 444.222 574.745 445.315C574.846 445.116 574.947 445.017 575.049 444.818C575.555 443.923 576.162 443.128 576.668 442.333C577.781 440.643 578.996 438.954 580.312 437.562C580.413 437.463 580.312 437.463 580.21 437.463C578.895 438.954 577.478 440.544 576.263 442.134C575.656 442.929 575.15 443.725 574.644 444.52C574.34 444.917 574.138 445.414 573.834 445.812C573.733 445.911 573.632 446.11 573.53 446.21C571.304 447.899 569.077 449.688 567.053 451.676C565.737 452.869 564.522 454.062 563.308 455.354C564.016 453.267 564.522 451.179 565.332 449.191C565.332 449.092 565.231 449.092 565.231 449.191C564.522 451.279 563.611 453.465 563.105 455.652C561.789 457.044 560.474 458.535 559.36 460.026C559.36 459.926 559.36 459.827 559.461 459.727C559.664 458.932 559.866 458.137 560.069 457.342C560.474 455.851 560.98 454.261 561.486 452.77C562.599 449.688 564.016 446.707 566.142 444.122C566.142 444.023 566.142 444.023 566.04 444.023C562.7 447.999 560.676 452.67 559.461 457.64C559.259 458.336 559.057 459.131 558.955 459.827C558.854 460.224 558.753 460.622 558.652 461.019C558.146 461.715 557.64 462.411 557.134 463.107C554.097 467.48 551.769 472.251 549.846 477.221C547.619 482.787 545.899 488.453 544.279 494.218C544.279 494.317 544.381 494.416 544.482 494.218C547.822 484.278 551.364 474.14 557.134 465.293C558.348 463.405 559.664 461.616 561.081 459.827C563.915 459.628 566.85 459.032 569.482 458.137C572.417 457.143 575.251 455.851 577.883 454.161C579.401 453.167 580.818 452.074 582.235 450.981C582.336 450.881 582.235 450.881 582.134 450.881C579.806 452.869 576.972 454.36 574.239 455.553C571.405 456.845 568.47 457.739 565.534 458.435C564.219 458.733 563.004 458.932 561.688 459.131C563.308 457.242 565.028 455.354 566.749 453.565C567.356 452.968 567.964 452.471 568.571 451.875C570.595 450.484 572.721 449.291 574.947 448.297C577.781 446.905 580.615 445.514 583.348 444.122C584.968 443.327 586.486 442.532 588.105 441.737C588.206 441.737 588.105 441.637 588.004 441.637C585.17 443.029 582.235 444.222 579.401 445.514C576.668 446.707 573.935 447.999 571.405 449.39C571.304 449.49 571.202 449.49 571.101 449.589C573.429 447.601 575.858 445.713 578.389 443.824C580.514 442.035 582.842 440.345 585.271 438.755Z" fill="var(--mainBlack)"/>
<path d="M584.259 447.502C582.842 448.098 581.425 448.595 580.008 449.291C578.591 449.987 577.174 450.682 575.858 451.478C575.757 451.478 575.858 451.577 575.96 451.577C577.377 450.881 578.692 450.285 580.109 449.688C581.526 448.993 582.842 448.297 584.36 447.601C584.36 447.601 584.36 447.502 584.259 447.502Z" fill="var(--mainBlack)"/>
<path d="M498.227 382C498.227 382 503.085 387.467 503.389 396.114C503.49 397.605 503.186 399.792 502.984 402.277C509.462 405.656 514.32 411.719 514.32 411.719C510.676 409.533 505.615 408.638 502.883 409.036C502.984 410.725 503.186 412.415 503.591 414.105C504.806 414.005 507.134 414.204 510.98 415.496C510.98 415.496 507.235 415.397 504.401 416.788C507.437 426.43 516.648 436.369 541.951 440.544C541.951 440.544 546.81 423.647 537.498 405.557C529.806 390.946 498.227 382 498.227 382Z" fill="var(--mainBlue)"/>
<path d="M550.656 481.893C550.251 477.817 549.644 473.643 549.036 469.568C547.721 461.417 546.101 453.267 543.976 445.216C542.964 441.439 541.749 437.761 540.332 434.083C540.433 433.388 540.433 432.791 540.433 432.095C540.433 431.3 540.433 430.505 540.433 429.71C540.433 428.12 540.332 426.529 540.231 424.939C539.927 421.758 539.522 418.677 538.713 415.596C538.206 413.807 537.7 412.117 537.194 410.328C537.194 410.228 537.093 410.328 537.093 410.328C538.004 413.31 538.51 416.49 538.915 419.671C539.32 422.752 539.623 425.833 539.725 429.014C539.725 429.909 539.725 430.704 539.725 431.598C539.725 431.996 539.725 432.294 539.725 432.692C538.51 429.71 537.093 426.827 535.474 424.044C532.943 419.572 530.008 415.397 526.769 411.322C526.769 410.825 526.668 410.328 526.567 409.93C526.466 409.334 526.364 408.837 526.162 408.24C525.858 407.147 525.656 405.954 525.251 404.861C524.644 402.575 523.834 400.388 523.024 398.201C523.024 398.102 522.923 398.201 522.923 398.201C523.632 400.388 524.036 402.674 524.542 404.96C524.846 406.054 525.049 407.147 525.251 408.24C525.352 408.837 525.453 409.334 525.656 409.93V410.03C524.644 408.737 523.632 407.545 522.518 406.253C517.66 400.686 512.397 395.518 507.032 390.449C506.425 389.852 505.717 389.256 505.008 388.56C505.109 388.56 505.008 388.66 505.109 388.759C510.17 394.027 515.231 399.295 519.988 404.762C521.101 406.054 522.215 407.445 523.328 408.737C522.721 408.34 522.215 407.942 521.607 407.644C520.089 406.65 518.672 405.756 517.154 404.96C515.636 404.066 514.117 403.271 512.498 402.476C510.879 401.68 509.158 401.084 507.538 400.189C507.437 400.189 507.437 400.289 507.437 400.289C509.057 400.985 510.575 401.979 512.093 402.774C513.611 403.668 515.13 404.563 516.648 405.557C518.166 406.451 519.583 407.445 521.101 408.34C522.316 409.135 523.53 410.03 524.846 410.725C527.781 414.403 530.514 418.279 532.943 422.355C534.461 424.939 535.879 427.523 537.093 430.207C536.789 430.107 536.486 429.909 536.182 429.809C535.372 429.511 534.664 429.114 533.854 428.815C532.437 428.02 530.919 427.424 529.401 426.728C526.567 425.535 523.632 424.442 520.899 423.05C519.381 422.255 517.761 421.559 516.344 420.565C516.243 420.565 516.243 420.665 516.243 420.764C521.405 424.243 527.275 426.728 533.044 429.213L535.575 430.306C536.283 430.604 536.992 430.903 537.7 431.201C539.421 434.978 540.838 438.755 541.951 442.731C544.279 450.583 546 458.733 547.417 466.784C548.834 474.935 549.846 483.085 550.656 491.335C550.757 492.329 550.858 493.422 550.959 494.416C550.959 494.814 551.668 494.814 551.668 494.416C551.567 490.142 551.061 485.968 550.656 481.893Z" fill="var(--mainBlack)"/>
<path d="M535.271 413.21C534.765 410.725 534.158 408.24 533.449 405.756C533.449 405.656 533.348 405.756 533.348 405.756C533.955 408.141 534.462 410.626 534.866 413.111C535.372 415.596 535.777 418.18 536.081 420.665H536.182C535.98 418.18 535.676 415.695 535.271 413.21Z" fill="var(--mainBlack)"/>
<path d="M524.34 420.069C522.619 418.876 520.696 417.981 518.874 416.987C517.964 416.49 517.053 416.093 516.04 415.596C515.028 415.099 514.117 414.801 513.105 414.304C513.004 414.304 513.004 414.403 513.004 414.403C513.915 414.9 514.826 415.397 515.737 415.894C516.648 416.391 517.559 416.888 518.571 417.385C520.393 418.379 522.215 419.472 524.138 420.267C524.34 420.367 524.441 420.168 524.34 420.069Z" fill="var(--mainBlack)"/>
<path opacity="0.1" d="M554.806 438.258C554.806 438.258 570.798 434.481 578.186 423.945C585.17 413.906 587.498 396.711 587.7 395.22C587.397 396.611 584.057 411.62 573.227 418.578C564.725 423.846 556.729 428.318 554.806 438.258Z" fill="var(--mainBlack)"/>
<path d="M569.583 411.023C566.749 413.707 564.623 416.788 563.713 420.565C564.927 417.087 566.85 413.707 569.583 411.023Z" fill="var(--mainBlack)"/>
<path d="M554.806 438.258C554.806 438.258 570.798 434.481 578.186 423.945C585.17 413.906 587.498 396.711 587.7 395.22C587.7 395.12 587.7 395.12 587.7 395.12C587.7 395.12 579.907 405.756 571.911 408.539C563.814 411.222 552.478 420.665 554.806 438.258Z" fill="var(--mainBlue)"/>
<path d="M584.765 400.985C583.247 403.867 581.729 406.65 579.806 409.334C577.984 411.918 575.757 414.005 573.227 415.993C571.101 417.683 568.773 419.273 566.547 420.864V420.764C566.951 420.168 567.356 419.572 567.862 418.975C568.875 417.782 569.887 416.788 570.899 415.695C572.923 413.608 574.947 411.52 576.668 409.234C577.68 407.942 578.49 406.65 579.198 405.159C579.198 405.06 579.097 405.06 579.097 405.159C576.466 410.427 571.304 413.906 567.66 418.379C567.154 418.975 566.648 419.671 566.142 420.367C565.838 420.864 565.433 421.361 565.231 421.957C563.207 423.547 561.385 425.336 559.765 427.424C559.866 426.43 560.17 425.336 560.372 424.343C560.777 422.951 561.283 421.659 562.093 420.367C562.093 420.267 561.992 420.267 561.992 420.267C561.283 421.46 560.575 422.852 560.17 424.243C559.866 425.336 559.664 426.529 559.563 427.623C558.753 428.716 558.045 429.809 557.437 430.903C557.538 430.604 557.538 430.207 557.64 429.909C557.943 428.318 558.348 426.827 558.753 425.237C559.563 422.056 560.777 419.075 562.599 416.391C562.599 416.291 562.498 416.291 562.498 416.291C560.676 418.975 559.259 421.858 558.247 424.939C557.741 426.529 557.336 428.02 556.931 429.61C556.729 430.406 556.628 431.201 556.425 431.897C556.324 432.294 556.223 432.692 556.223 433.089C554.603 436.469 553.389 440.146 552.579 443.725C550.96 450.285 549.947 456.944 549.138 463.604C548.328 470.561 547.923 477.718 548.024 484.676C548.024 485.57 548.126 486.465 548.126 487.359C548.126 487.558 548.53 487.657 548.53 487.359C548.733 483.88 548.733 480.402 549.036 476.923C549.239 473.444 549.543 469.965 549.947 466.486C550.656 459.628 551.769 452.869 553.287 446.11C554.603 440.345 556.223 434.58 559.462 429.511C561.081 427.026 563.004 424.74 565.231 422.752C567.458 420.764 569.887 419.075 572.316 417.186C574.644 415.397 576.972 413.409 578.794 411.023C580.818 408.539 582.437 405.756 583.854 402.873C584.158 402.475 584.462 401.68 584.765 400.985C584.968 400.985 584.866 400.885 584.765 400.985Z" fill="var(--mainBlack)"/>
<path d="M582.032 403.271C581.02 405.358 579.806 407.445 578.49 409.433C578.49 409.433 578.49 409.533 578.591 409.433C580.008 407.545 581.121 405.457 582.235 403.271C582.134 403.271 582.032 403.171 582.032 403.271Z" fill="var(--mainBlack)"/>
<path d="M496 431.3C496 431.3 495.696 453.664 509.36 460.125C522.923 466.486 530.211 461.119 539.522 463.306C539.117 462.809 532.539 453.465 522.113 450.881C511.283 448.197 499.239 440.544 496 431.3Z" fill="var(--mainBlue)"/>
<path opacity="0.1" d="M496 431.3C496 431.3 495.696 453.664 509.36 460.125C522.923 466.486 530.211 461.119 539.522 463.306C539.117 463.107 532.437 459.827 524.037 458.833C515.433 457.839 499.036 452.273 496 431.3Z" fill="var(--mainBlack)"/>
<path d="M540.433 463.703C538.814 462.312 536.992 461.019 535.069 460.125C534.765 460.026 534.462 459.827 534.158 459.727C534.057 459.529 533.854 459.33 533.652 459.23C533.247 458.833 532.842 458.435 532.336 458.038C531.526 457.342 530.615 456.646 529.603 456.05C527.377 454.758 524.846 453.863 522.619 452.67C522.518 452.67 522.518 452.77 522.518 452.77C523.632 453.366 524.745 453.962 525.858 454.658C526.972 455.255 528.085 455.851 529.097 456.547C530.008 457.143 530.919 457.839 531.83 458.535C532.032 458.733 532.336 458.932 532.538 459.23C531.02 458.733 529.502 458.336 527.984 458.038C525.453 457.541 522.923 457.242 520.494 456.646C519.279 456.348 518.065 456.05 516.85 455.652C515.737 454.758 514.623 453.863 513.51 452.869C512.194 451.676 511.081 450.384 509.968 448.993C509.968 448.893 509.866 448.993 509.866 449.092C511.587 451.179 513.308 453.366 515.433 455.155C514.826 454.956 514.219 454.658 513.713 454.459C509.057 452.372 505.008 449.092 502.073 445.017C502.073 444.917 501.972 445.017 501.972 445.116C504.502 448.694 507.64 451.676 511.385 453.962C513.206 455.056 515.231 456.05 517.356 456.745C519.785 457.541 522.215 458.038 524.745 458.435C527.174 458.833 529.603 459.33 531.931 460.125C534.057 460.821 536.182 461.914 538.004 463.206C541.547 465.79 544.178 469.269 546.202 473.146C548.733 478.215 550.049 483.88 550.656 489.447C550.656 489.645 551.061 489.645 551.061 489.447C550.352 480.004 547.822 470.263 540.433 463.703Z" fill="var(--mainBlack)"/>
<path d="M524.644 456.447C523.935 455.354 522.923 454.559 521.81 453.962C520.494 453.267 519.381 452.471 518.47 451.279C518.47 451.179 518.368 451.279 518.368 451.378C519.178 452.372 520.19 453.267 521.304 453.962C522.518 454.559 523.733 455.354 524.644 456.447Z" fill="var(--mainBlack)"/>
<path d="M531.83 480.203L532.437 492.528L534.36 530H562.903L564.826 492.528L565.433 480.203H531.83Z" fill="var(--mainBlack)"/>
<path d="M531.83 480.203L532.437 492.528H564.826L565.433 480.203H531.83Z" fill="var(--mainBlack)"/>
<path d="M529.884 486.811H567.435V475.082H529.884V486.811Z" fill="var(--mainBlack)"/>
<path d="M386.715 516.414H420V506H386.715V516.414Z" fill="var(--lightGray2)"/>
<path d="M368.193 529.535L384.98 529.256L393.277 529.163H401.478L400.995 529.628V519.214L401.478 519.678L384.884 519.586L376.587 519.493L368.289 519.4L368.482 519.214L368.193 529.535ZM368.193 529.535L368 519.121V518.935H368.193L376.49 518.842L384.787 518.749L401.381 518.656H401.864V519.121V529.535V530H401.381H392.988L384.594 529.907L368.193 529.535Z" fill="var(--lightGray2)"/>
</svg>
