<svg width="24" height="16" viewBox="0 0 24 16" fill="none" xmlns="http://www.w3.org/2000/svg">
<path d="M22.7353 2.57213C22.6092 2.09454 22.3595 1.65863 22.0112 1.30832C21.663 0.958011 21.2286 0.705683 20.7518 0.576767C18.9807 0.104492 11.997 0.104492 11.997 0.104492C11.997 0.104492 4.98958 0.104492 3.24216 0.576767C2.76615 0.70604 2.33266 0.958586 1.98543 1.30892C1.63821 1.65926 1.38954 2.09498 1.26451 2.57213C0.792236 4.34316 0.792236 7.99739 0.792236 7.99739C0.792236 7.99739 0.792236 11.6693 1.26451 13.4285C1.39063 13.9052 1.63967 14.3403 1.98673 14.6905C2.33379 15.0406 2.76669 15.2935 3.24216 15.4239C5.01319 15.8903 11.997 15.8903 11.997 15.8903C11.997 15.8903 19.0043 15.8903 20.7518 15.4239C21.228 15.2939 21.6619 15.0412 22.01 14.6911C22.358 14.3409 22.6081 13.9056 22.7353 13.4285C23.2017 11.6575 23.2017 7.99739 23.2017 7.99739C23.2017 7.99739 23.2017 4.33135 22.7353 2.57213Z" fill="white"/>
<path d="M9.70654 11.3325V4.66748L15.5628 7.99702L9.70654 11.3325Z" fill="var(--mainBlack)"/>
</svg>
