<svg width="100%" height="100%" viewBox="0 0 20 12" fill="none" xmlns="http://www.w3.org/2000/svg">
<path d="M0.699988 11.3C0.516654 11.1167 0.424988 10.8875 0.424988 10.6125C0.424988 10.3375 0.516654 10.1 0.699988 9.9L6.69999 3.85C6.79999 3.76667 6.90832 3.7 7.02499 3.65C7.14165 3.6 7.26665 3.575 7.39999 3.575C7.53332 3.575 7.66249 3.6 7.78749 3.65C7.91249 3.7 8.01665 3.76667 8.09999 3.85L11.4 7.15L16.6 2H15C14.7167 2 14.4792 1.90417 14.2875 1.7125C14.0958 1.52083 14 1.28333 14 1C14 0.716667 14.0958 0.479167 14.2875 0.2875C14.4792 0.0958333 14.7167 0 15 0H19C19.2833 0 19.5208 0.0958333 19.7125 0.2875C19.9042 0.479167 20 0.716667 20 1V5C20 5.28333 19.9042 5.52083 19.7125 5.7125C19.5208 5.90417 19.2833 6 19 6C18.7167 6 18.4792 5.90417 18.2875 5.7125C18.0958 5.52083 18 5.28333 18 5V3.4L12.1 9.3C12 9.4 11.8917 9.47083 11.775 9.5125C11.6583 9.55417 11.5333 9.575 11.4 9.575C11.2667 9.575 11.1417 9.55417 11.025 9.5125C10.9083 9.47083 10.8 9.4 10.7 9.3L7.39999 6L2.07499 11.325C1.89165 11.5083 1.66665 11.6 1.39999 11.6C1.13332 11.6 0.899988 11.5 0.699988 11.3Z" fill="var(--mainBlue)"/>
</svg>
