<svg width="100%" height="100%" viewBox="0 0 16 20" fill="none" xmlns="http://www.w3.org/2000/svg">
<path d="M10.5 16.5C10.9167 16.5 11.2708 16.3542 11.5625 16.0625C11.8542 15.7708 12 15.4167 12 15C12 14.5833 11.8542 14.2292 11.5625 13.9375C11.2708 13.6458 10.9167 13.5 10.5 13.5C10.0833 13.5 9.72917 13.6458 9.4375 13.9375C9.14583 14.2292 9 14.5833 9 15C9 15.4167 9.14583 15.7708 9.4375 16.0625C9.72917 16.3542 10.0833 16.5 10.5 16.5ZM4.75 15.75C4.93333 15.9333 5.16667 16.025 5.45 16.025C5.73333 16.025 5.96667 15.9333 6.15 15.75L11.25 10.65C11.4333 10.4667 11.525 10.2333 11.525 9.95C11.525 9.66667 11.4333 9.43333 11.25 9.25C11.0667 9.06667 10.8333 8.975 10.55 8.975C10.2667 8.975 10.0333 9.06667 9.85 9.25L4.75 14.35C4.56667 14.5333 4.475 14.7667 4.475 15.05C4.475 15.3333 4.56667 15.5667 4.75 15.75ZM5.5 11.5C5.91667 11.5 6.27083 11.3542 6.5625 11.0625C6.85417 10.7708 7 10.4167 7 10C7 9.58333 6.85417 9.22917 6.5625 8.9375C6.27083 8.64583 5.91667 8.5 5.5 8.5C5.08333 8.5 4.72917 8.64583 4.4375 8.9375C4.14583 9.22917 4 9.58333 4 10C4 10.4167 4.14583 10.7708 4.4375 11.0625C4.72917 11.3542 5.08333 11.5 5.5 11.5ZM2 20C1.45 20 0.979167 19.8042 0.5875 19.4125C0.195833 19.0208 0 18.55 0 18V2C0 1.45 0.195833 0.979167 0.5875 0.5875C0.979167 0.195833 1.45 0 2 0H10L16 6V18C16 18.55 15.8042 19.0208 15.4125 19.4125C15.0208 19.8042 14.55 20 14 20H2ZM14 7L9 2V5C9 5.55 9.19583 6.02083 9.5875 6.4125C9.97917 6.80417 10.45 7 11 7H14Z" fill="var(--mainBlue)"/>
</svg>
