<svg width="100%" height="100%" viewBox="0 0 24 12" fill="none" xmlns="http://www.w3.org/2000/svg">
<path d="M1 12C0.716667 12 0.479167 11.9042 0.2875 11.7125C0.0958333 11.5208 0 11.2833 0 11V10.425C0 9.69167 0.366667 9.10417 1.1 8.6625C1.83333 8.22083 2.8 8 4 8C4.21667 8 4.42083 8.00833 4.6125 8.025C4.80417 8.04167 4.99167 8.06667 5.175 8.1C4.94167 8.43333 4.77083 8.79167 4.6625 9.175C4.55417 9.55833 4.5 9.96667 4.5 10.4V12H1ZM7 12C6.71667 12 6.47917 11.9042 6.2875 11.7125C6.09583 11.5208 6 11.2833 6 11V10.4C6 9.31667 6.55417 8.4375 7.6625 7.7625C8.77083 7.0875 10.2167 6.75 12 6.75C13.8 6.75 15.25 7.0875 16.35 7.7625C17.45 8.4375 18 9.31667 18 10.4V11C18 11.2833 17.9042 11.5208 17.7125 11.7125C17.5208 11.9042 17.2833 12 17 12H7ZM19.5 12V10.4C19.5 9.96667 19.4417 9.55833 19.325 9.175C19.2083 8.79167 19.0417 8.43333 18.825 8.1C19.0083 8.06667 19.1958 8.04167 19.3875 8.025C19.5792 8.00833 19.7833 8 20 8C21.2 8 22.1667 8.22083 22.9 8.6625C23.6333 9.10417 24 9.69167 24 10.425V11C24 11.2833 23.9042 11.5208 23.7125 11.7125C23.5208 11.9042 23.2833 12 23 12H19.5ZM4 7C3.45 7 2.97917 6.80417 2.5875 6.4125C2.19583 6.02083 2 5.55 2 5C2 4.45 2.19583 3.97917 2.5875 3.5875C2.97917 3.19583 3.45 3 4 3C4.55 3 5.02083 3.19583 5.4125 3.5875C5.80417 3.97917 6 4.45 6 5C6 5.55 5.80417 6.02083 5.4125 6.4125C5.02083 6.80417 4.55 7 4 7ZM20 7C19.45 7 18.9792 6.80417 18.5875 6.4125C18.1958 6.02083 18 5.55 18 5C18 4.45 18.1958 3.97917 18.5875 3.5875C18.9792 3.19583 19.45 3 20 3C20.55 3 21.0208 3.19583 21.4125 3.5875C21.8042 3.97917 22 4.45 22 5C22 5.55 21.8042 6.02083 21.4125 6.4125C21.0208 6.80417 20.55 7 20 7ZM12 6C11.1667 6 10.4583 5.70833 9.875 5.125C9.29167 4.54167 9 3.83333 9 3C9 2.16667 9.29167 1.45833 9.875 0.875C10.4583 0.291667 11.1667 0 12 0C12.8333 0 13.5417 0.291667 14.125 0.875C14.7083 1.45833 15 2.16667 15 3C15 3.83333 14.7083 4.54167 14.125 5.125C13.5417 5.70833 12.8333 6 12 6Z" fill="var(--mainBlue)"/>
</svg>
