<svg width="100%" height="100%" viewBox="0 0 640 498" fill="none" xmlns="http://www.w3.org/2000/svg">
<rect width="640" height="498" fill="#FAFAFA"/>
<path d="M184 70H60V154H184V70Z" stroke="#BCBCBC" stroke-miterlimit="10"/>
<path d="M69.2801 75.0047C69.2801 76.3785 68.1941 77.4579 66.8119 77.4579C65.4297 77.4579 64.3438 76.3785 64.3438 75.0047C64.3438 73.6308 65.4297 72.5514 66.8119 72.5514C68.1941 72.5514 69.2801 73.6308 69.2801 75.0047Z" fill="var(--lightBlack)"/>
<path d="M79.449 75.0047C79.449 76.3785 78.363 77.4579 76.9808 77.4579C75.5987 77.4579 74.5127 76.3785 74.5127 75.0047C74.5127 73.6308 75.5987 72.5514 76.9808 72.5514C78.363 72.5514 79.449 73.6308 79.449 75.0047Z" fill="#BCBCBC"/>
<path d="M89.6179 75.0047C89.6179 76.3785 88.532 77.4579 87.1498 77.4579C85.7676 77.4579 84.6816 76.3785 84.6816 75.0047C84.6816 73.6308 85.7676 72.5514 87.1498 72.5514C88.532 72.5514 89.6179 73.6308 89.6179 75.0047Z" fill="#BCBCBC"/>
<path d="M60 79.8131H184" stroke="#BCBCBC" stroke-miterlimit="10"/>
<path d="M222.715 80.4145H256V70H222.715V80.4145Z" fill="var(--lightGray2)"/>
<path d="M204.193 93.5351L220.98 93.2561L229.277 93.1631H237.478L236.995 93.6281V83.2136L237.478 83.6785L220.884 83.5855L212.587 83.4925L204.289 83.3995L204.482 83.2136L204.193 93.5351ZM204.193 93.5351L204 83.1206V82.9346H204.193L212.49 82.8416L220.787 82.7486L237.381 82.6557H237.864V83.1206V93.5351V94H237.381H228.988L220.594 93.907L204.193 93.5351Z" fill="var(--lightGray2)"/>
<path d="M439.998 74.0551C439.998 87.209 429.014 97.8295 415.41 97.8295C409.968 97.8295 404.829 96.0756 400.798 93.1526L388.806 96.0756L393.845 85.2602C392.031 81.9474 390.922 78.05 390.922 74.0551C390.922 60.9012 401.906 50.2807 415.511 50.2807C429.014 50.2807 439.998 60.9012 439.998 74.0551Z" fill="white"/>
<path d="M439.998 74.0551C439.998 78.4397 438.789 82.8243 436.37 86.5269C435.866 87.5013 435.06 88.2808 434.455 89.2551C433.649 90.0346 432.944 90.9115 432.138 91.5936C430.525 93.1526 428.611 94.3218 426.595 95.3936C424.58 96.4654 422.363 97.05 420.146 97.5372C419.038 97.7321 417.929 97.9269 416.72 97.9269C415.611 98.0244 414.402 98.0244 413.294 97.9269C408.759 97.6346 404.325 95.9782 400.596 93.3474L400.899 93.4449L388.907 96.4654L388 96.7577L388.403 95.8808L393.341 85.0654V85.4551C389.612 79.0243 389.411 70.9371 392.535 64.214C394.046 60.9012 396.465 57.8807 399.387 55.5422C402.309 53.2037 405.736 51.5473 409.363 50.6704C412.991 49.7935 416.821 49.7935 420.549 50.573C424.177 51.3525 427.603 53.0089 430.626 55.2499C436.572 59.732 440.099 66.8448 439.998 74.0551ZM439.998 74.0551C439.998 66.8448 436.37 59.732 430.525 55.4448C427.603 53.3012 424.177 51.7422 420.549 51.0602C416.921 50.3781 413.193 50.4755 409.565 51.3525C406.038 52.2294 402.612 53.8858 399.891 56.2243C397.069 58.4653 394.852 61.3884 393.442 64.6038C391.93 67.8192 391.325 71.4243 391.426 74.932C391.527 78.4397 392.535 81.9474 394.248 85.0654L394.349 85.2602L394.248 85.4551L389.209 96.2705L388.705 95.6859L400.798 92.7628H400.999L401.1 92.8602C404.627 95.491 408.96 97.1474 413.394 97.5372C414.503 97.6346 415.611 97.6346 416.72 97.6346C417.828 97.6346 418.937 97.4397 420.045 97.2449C422.262 96.7577 424.378 96.1731 426.394 95.1987C428.409 94.2244 430.324 93.0551 431.936 91.4961C432.843 90.8141 433.549 89.9372 434.254 89.1577C434.959 88.2807 435.665 87.4038 436.169 86.5269C438.789 82.8243 439.998 78.4397 439.998 74.0551Z" fill="var(--mainBlack)"/>
<path d="M422.06 67.7217V74.8346H419.944V67.7217C419.944 64.9935 417.828 62.8499 415.208 62.8499C412.588 62.8499 410.472 65.091 410.472 67.7217V74.8346H408.355V67.7217C408.355 63.8243 411.379 60.7063 415.107 60.7063C418.836 60.7063 422.06 63.8243 422.06 67.7217Z" fill="var(--lightGray2)"/>
<path d="M408.557 69.573L410.573 69.6705V74.8346H408.557V69.573Z" fill="#BCBCBC"/>
<path d="M422.061 70.0602V74.8346H420.045V70.0602H422.061Z" fill="#BCBCBC"/>
<path d="M424.781 72.2038H405.836V87.4038H424.781V72.2038Z" fill="var(--mainBlue)"/>
<path d="M416.115 79.7064L416.921 83.3115H413.596L414.402 79.7064C413.898 79.4141 413.596 78.9269 413.596 78.3423C413.596 77.4653 414.301 76.6859 415.309 76.6859C416.216 76.6859 417.022 77.3679 417.022 78.3423C416.921 78.9269 416.619 79.4141 416.115 79.7064Z" fill="var(--mainBlack)"/>
<path d="M468 99.7083L620 99.7083V92.9501L468 92.9501V99.7083Z" fill="var(--lightGray2)"/>
<path d="M611.489 99.7081H604.811V122H611.489V99.7081Z" fill="var(--lightGray2)"/>
<path d="M611.489 99.7081H604.811V106.567H611.489V99.7081Z" fill="var(--lightGray2)"/>
<path d="M483.111 99.7081H476.433V122H483.111V99.7081Z" fill="var(--lightGray2)"/>
<path d="M483.111 99.7081H476.433V106.567H483.111V99.7081Z" fill="var(--lightGray2)"/>
<path d="M591.644 92.9434V49.9735H580.979V92.9434H591.644Z" fill="#BCBCBC"/>
<path d="M591.591 52.4416V47.7008H580.926V52.4416H591.591Z" fill="var(--lightGray2)"/>
<path d="M591.605 60.122V58.4073H580.94V60.122H591.605Z" fill="var(--lightGray2)"/>
<path d="M591.656 87.3453V82.6045H579.596V87.3453H591.656Z" fill="var(--lightGray2)"/>
<path d="M580.91 92.9131V42.7815H573.435V92.9131H580.91Z" fill="var(--lightGray2)"/>
<path d="M579.421 66.7289V47.463H574.936V66.7289H579.421Z" fill="var(--lightGray2)"/>
<path d="M525.53 92.9566L560.76 57.7141L555.505 52.3338L520.274 87.5763L525.53 92.9566Z" fill="#BCBCBC"/>
<path d="M532.688 83.543L546.227 69.9991L543.074 66.7709L529.535 80.3148L532.688 83.543Z" fill="var(--lightGray2)"/>
<path d="M573.404 93.0175V54.8893H560.746V93.0175H573.404Z" fill="var(--darkGray)"/>
<path d="M573.427 88.9046V85.3742H560.768V88.9046H573.427Z" fill="#BCBCBC"/>
<path d="M573.472 83.1008V81.6887H560.814V83.1008H573.472Z" fill="#BCBCBC"/>
<path d="M600.358 92.9489V57.1407H591.587V92.9489H600.358Z" fill="var(--darkGray)"/>
<path d="M600.39 89.1484V85.8198H591.619V89.1484H600.39Z" fill="#BCBCBC"/>
<path d="M600.38 67.8549V64.5262H591.608V67.8549H600.38Z" fill="#BCBCBC"/>
<path d="M600.442 71.448V70.1367H591.671V71.448H600.442Z" fill="#BCBCBC"/>
<path d="M498.66 47.0548C506.136 54.5191 507.432 65.9172 505.837 76.004C505.837 76.2058 505.438 76.2058 505.438 76.004C505.438 73.6841 505.538 71.465 505.538 69.145C505.538 69.0441 505.438 68.9433 505.438 68.8424C503.445 67.4302 501.651 65.8163 500.554 63.5972C499.258 61.0755 498.86 58.3521 497.863 55.7295C497.763 55.5278 498.062 55.5278 498.162 55.7295C502.747 59.159 504.142 62.7903 505.438 67.632C505.338 65.1103 505.139 62.5886 504.641 60.0668C503.644 55.4269 501.75 50.787 498.461 47.3574C498.361 47.1557 498.561 46.954 498.66 47.0548Z" fill="var(--darkGray)"/>
<path d="M497.265 47.9627C495.969 47.9627 495.172 50.0809 494.175 50.6861C493.677 50.9887 493.079 50.9887 492.78 50.4844C491.783 49.0722 493.178 47.3574 494.474 46.3488C493.577 46.7522 492.78 47.3574 491.783 47.5592C491.185 47.66 490.686 47.4583 490.587 46.8531C490.188 44.9366 492.481 44.1297 494.175 44.0288C493.378 43.4236 491.085 42.0114 492.281 41.2045C493.477 40.4984 496.168 42.6166 497.065 43.3227C498.361 44.3314 499.856 45.9453 499.956 47.5592C499.956 49.4757 498.262 48.3661 497.265 47.9627Z" fill="var(--lightGray2)"/>
<path d="M497.664 48.2653C495.969 47.4583 492.88 48.5679 492.581 47.9627C492.082 46.6514 494.574 45.8444 495.969 45.6427C494.674 45.3401 492.282 44.7349 492.381 43.5245C492.481 42.0114 496.069 43.3227 497.863 44.7349C500.156 46.5505 500.156 48.2653 499.757 48.5679C499.259 49.0722 497.963 48.3661 497.664 48.2653Z" fill="var(--lightGray2)"/>
<path d="M515.704 46.3487C507.93 53.5104 506.235 64.9085 507.431 74.9954C507.431 75.1971 507.83 75.1971 507.83 74.9954C507.93 72.6754 507.93 70.4563 508.029 68.1363C508.029 68.0354 508.129 67.9346 508.129 67.8337C510.123 66.5224 512.016 64.9085 513.212 62.6894C514.508 60.2686 515.106 57.4443 516.203 54.9226C516.302 54.7208 516.003 54.7208 515.904 54.8217C511.219 58.0495 509.624 61.6807 508.129 66.5224C508.328 64.0007 508.528 61.479 509.225 58.9573C510.422 54.3173 512.515 49.8791 515.904 46.5505C516.103 46.4496 515.904 46.2479 515.704 46.3487Z" fill="var(--darkGray)"/>
<path d="M517.1 47.2566C518.395 47.3574 519.093 49.4757 520.09 50.0809C520.588 50.3835 521.086 50.3835 521.485 49.8791C522.482 48.467 521.186 46.7522 519.99 45.7435C520.887 46.147 521.585 46.8531 522.582 47.0548C523.18 47.1557 523.678 46.954 523.778 46.3487C524.276 44.4322 521.984 43.5244 520.289 43.4236C521.086 42.9192 523.379 41.5071 522.283 40.7001C521.086 39.8932 518.395 42.0114 517.498 42.6166C516.203 43.6253 514.608 45.1383 514.508 46.7522C514.408 48.7696 516.103 47.66 517.1 47.2566Z" fill="var(--lightGray2)"/>
<path d="M516.701 47.5592C518.395 46.8531 521.485 48.0635 521.784 47.4583C522.382 46.147 519.89 45.2392 518.495 45.0375C519.791 44.7349 522.183 44.3314 522.183 43.0201C522.183 41.5071 518.495 42.7175 516.601 44.0288C514.209 45.7435 514.209 47.4583 514.508 47.7609C515.106 48.2653 516.502 47.66 516.701 47.5592Z" fill="var(--lightGray2)"/>
<path d="M507.83 65.1103C507.232 68.8424 506.534 72.7763 505.438 76.4075C505.338 76.7101 504.84 76.6093 504.94 76.3067C505.438 72.8771 506.335 69.4476 506.933 65.9172C507.431 62.3868 507.73 58.8564 507.531 55.326C507.232 49.4757 505.637 43.2218 501.85 38.6828C501.75 38.5819 501.949 38.3802 502.049 38.481C509.624 47.3575 508.428 58.3521 508.428 59.2599C509.524 55.5278 510.621 51.3922 514.608 47.5592C514.807 47.3575 514.907 47.4583 514.907 47.7609C514.209 54.62 512.315 58.1504 508.428 61.7816C508.129 62.992 508.029 64.1016 507.83 65.1103Z" fill="var(--darkGray)"/>
<path d="M501.651 39.6914C500.255 39.0862 498.461 40.801 497.066 40.9019C496.368 41.0027 495.87 40.7001 495.67 39.8932C495.371 37.9767 497.664 36.8671 499.458 36.4637C498.361 36.3628 497.165 36.6654 496.069 36.3628C495.371 36.1611 494.973 35.6567 495.172 34.9506C495.67 32.7315 498.561 33.0341 500.255 33.8411C499.757 32.8324 498.162 30.1089 499.757 30.0081C501.352 29.8063 503.046 33.4376 503.644 34.648C504.441 36.3628 505.239 38.7836 504.441 40.4984C503.644 42.7175 502.548 40.5993 501.651 39.6914Z" fill="var(--lightGray2)"/>
<path d="M501.949 40.2967C500.654 38.6828 496.766 38.1784 496.866 37.3715C496.966 35.7576 499.956 36.1611 501.451 36.6654C500.355 35.6567 498.062 33.8411 498.76 32.6307C499.557 31.1176 502.647 34.2446 503.843 36.6654C505.338 39.6914 504.441 41.5071 503.943 41.6079C503.145 41.8097 502.149 40.4984 501.949 40.2967Z" fill="var(--lightGray2)"/>
<path d="M512.814 67.2285L516.103 92.9499H495.869C496.268 90.63 500.056 67.2285 500.056 67.2285H512.814Z" fill="var(--lightGray2)"/>
<path d="M541.285 40.4145L508 40.4145V30L541.285 30V40.4145Z" fill="var(--lightGray2)"/>
<path d="M559.807 53.5351L543.02 53.2561L534.723 53.1631H526.522L527.005 53.6281V43.2136L526.522 43.6785L543.116 43.5855L551.413 43.4925L559.711 43.3995L559.518 43.2136L559.807 53.5351ZM559.807 53.5351L560 43.1206V42.9346H559.807L551.51 42.8416L543.213 42.7486L526.619 42.6557H526.136V43.1206V53.5351V54H526.619H535.012L543.406 53.907L559.807 53.5351Z" fill="var(--lightGray2)"/>
<path d="M586.715 194.414H620V184H586.715V194.414Z" fill="var(--lightGray2)"/>
<path d="M568.193 207.535L584.98 207.256L593.277 207.163H601.478L600.995 207.628V197.214L601.478 197.678L584.884 197.586L576.587 197.493L568.289 197.4L568.482 197.214L568.193 207.535ZM568.193 207.535L568 197.121V196.935H568.193L576.49 196.842L584.787 196.749L601.381 196.656H601.864V197.121V207.535V208H601.381H592.988L584.594 207.907L568.193 207.535Z" fill="var(--lightGray2)"/>
<rect x="80" y="108" width="480" height="299.065" rx="8" fill="var(--lightGray2)"/>
<rect x="84" y="111.988" width="472" height="291.09" rx="4" fill="#3A3A3A"/>
<rect x="104" y="131.925" width="432" height="251.215" rx="4" fill="white"/>
<path d="M536 252.603V383.14H104V191.738C123.081 195.35 137.297 200.635 147.124 206.976C177.94 226.883 216.198 270.66 299.297 284.489C387.643 299.198 443.17 251.017 536 252.603Z" fill="#EAF6F7"/>
<path d="M536 323.327V383.14H104V345.862C114.876 340.597 128.233 336.49 145.025 334.068C227.933 322.169 316.088 356.393 377.625 363.132C428.954 368.608 485.053 358.499 536 323.327Z" fill="#D7EEF0"/>
<circle cx="340" cy="208" r="16" fill="var(--lightGray1)"/>
<circle cx="292" cy="235" r="12" fill="var(--lightGray1)"/>
<path d="M335.77 251.089C333.183 252.737 330.285 253.973 327.077 254.695C318.903 256.652 310.728 255.107 304.209 251.089C297.793 247.071 292.826 240.683 290.86 232.75C286.928 216.678 296.862 200.503 312.901 196.588C328.94 192.673 345.186 202.46 349.118 218.532C352.326 231.411 346.531 244.392 335.77 251.089Z" fill="var(--lightGray2)"/>
<path d="M329.147 222.241C329.147 227.29 325.111 231.308 320.041 231.308C314.97 231.308 310.935 227.29 310.935 222.241C310.935 217.193 314.97 213.175 320.041 213.175C325.111 213.175 329.147 217.193 329.147 222.241Z" fill="white"/>
<path d="M335.77 247.277V250.986C333.183 252.634 330.286 253.87 327.078 254.591C318.903 256.549 310.728 255.004 304.209 250.986V247.277C304.209 238.622 311.246 231.617 319.938 231.617C328.733 231.617 335.77 238.622 335.77 247.277Z" fill="white"/>
<rect x="290" y="267.502" width="60" height="0.996885" rx="0.498442" fill="var(--lightGray2)"/>
<rect x="270.5" y="276.974" width="99" height="10.9626" rx="1.5" fill="white" stroke="var(--lightGray2)"/>
<rect x="270.5" y="292.924" width="99" height="10.9626" rx="1.5" fill="white" stroke="var(--lightGray2)"/>
<rect x="270" y="308.374" width="100" height="11.9626" rx="2" fill="var(--mainBlack)"/>
<rect x="70" y="407.065" width="500" height="19.9377" fill="#BCBCBC"/>
<rect x="60" y="427.003" width="520" height="0.996885" fill="var(--mainBlack)"/>
<path d="M353.714 441.561C351.182 442.469 276.828 443.707 273.933 442.139C273.571 441.974 273.662 439.003 272.576 431.245C272.486 430.915 270.858 429.429 268.144 427.449C258.194 419.856 234.856 403.845 234.856 403.845L271.31 376.032L307.944 406.651L317.261 415.069C317.261 415.069 347.654 430.007 350.639 431.988C353.624 433.968 356.247 440.653 353.714 441.561Z" fill="#AD6359"/>
<path d="M353.715 441.561C351.182 442.469 276.828 443.707 273.933 442.139C273.662 441.974 273.752 439.003 272.577 431.245C272.486 430.915 270.858 429.429 268.144 427.449C264.707 424.808 263.079 423.57 257.923 419.938L305.05 404.093L307.854 406.651L317.171 415.069C317.171 415.069 347.564 430.007 350.549 431.988C353.624 433.886 356.247 440.653 353.715 441.561Z" fill="var(--lightGray2)"/>
<path d="M358.78 442.469C356.157 443.294 277.009 444.119 274.114 442.469C273.481 442.056 272.848 437.93 272.305 432.153C272.214 431.41 264.254 425.55 263.169 424.477L311.653 409.539L317.804 414.821C317.804 414.821 353.533 430.007 356.428 432.07C359.413 434.133 361.403 441.644 358.78 442.469Z" fill="var(--mainBlue)"/>
<path d="M357.694 439.745C345.211 439.58 290.034 440.076 277.732 440.818C277.641 440.818 277.641 440.901 277.732 440.901C290.034 441.314 345.211 440.406 357.694 439.993C357.965 439.993 357.965 439.745 357.694 439.745Z" fill="var(--mainBlack)"/>
<path d="M321.874 415.317C316.99 414.574 311.02 415.317 307.311 418.535C307.13 418.7 307.401 418.865 307.492 418.783C312.286 417.38 316.809 416.389 321.874 415.894C322.236 415.894 322.236 415.399 321.874 415.317Z" fill="var(--mainBlack)"/>
<path d="M325.402 417.215C320.518 416.472 314.548 417.215 310.839 420.433C310.658 420.599 310.93 420.764 311.02 420.681C315.814 419.278 320.337 418.288 325.402 417.793C325.764 417.793 325.764 417.297 325.402 417.215Z" fill="var(--mainBlack)"/>
<path d="M328.93 419.113C324.045 418.37 318.075 419.113 314.367 422.332C314.186 422.497 314.457 422.662 314.547 422.579C319.342 421.176 323.864 420.186 328.93 419.691C329.292 419.691 329.292 419.195 328.93 419.113Z" fill="var(--mainBlack)"/>
<path d="M332.548 421.011C327.663 420.268 321.693 421.011 317.985 424.23C317.804 424.395 318.075 424.56 318.166 424.477C322.96 423.074 327.482 422.084 332.548 421.589C332.91 421.589 332.91 421.094 332.548 421.011Z" fill="var(--mainBlack)"/>
<path d="M330.739 404.918C328.749 402.524 325.221 403.68 323.231 405.248C319.975 407.806 317.08 411.85 315.814 415.564C315.814 415.647 315.814 415.729 315.904 415.729C315.904 416.059 316.266 416.39 316.719 416.307C320.699 414.904 325.221 413.831 328.659 411.355C330.649 409.87 332.639 407.146 330.739 404.918ZM322.327 413.006C320.337 413.749 318.347 414.409 316.447 415.152C317.894 413.171 319.251 411.108 320.879 409.209C321.694 408.302 322.508 407.394 323.412 406.651C324.859 405.413 330.558 402.772 329.744 407.724C329.382 410.365 324.679 412.098 322.327 413.006Z" fill="var(--mainBlack)"/>
<path d="M303.331 414.491C307.402 415.977 312.015 415.894 316.357 416.224C316.809 416.224 316.99 415.812 316.9 415.482C316.99 415.482 316.99 415.399 316.99 415.317C314.638 412.015 310.658 408.962 306.769 407.311C304.326 406.321 300.527 406.156 299.442 408.879C298.266 411.52 300.979 413.583 303.331 414.491ZM301.07 411.355C298.809 406.816 305.14 407.889 306.859 408.714C307.944 409.209 309.03 409.87 310.115 410.53C312.286 411.933 314.186 413.501 316.176 415.069C314.095 414.821 312.015 414.656 309.844 414.491C307.402 414.244 302.336 413.831 301.07 411.355Z" fill="var(--mainBlack)"/>
<path d="M308.397 404.835L262.627 426.541C262.627 426.541 215.861 390.723 211.52 390.393C207.268 390.145 142.864 429.842 110.572 430.007C77.1034 430.172 75.3848 398.068 75.3848 398.068L124.23 387.834C159.508 371.988 196.142 343.516 220.203 346.157C246.164 349.045 308.397 404.835 308.397 404.835Z" fill="#3A3A3A"/>
<path d="M297.271 399.306C289.491 402.772 291.662 401.699 283.974 405.248C280.175 406.981 261.269 415.729 258.013 417.875C257.923 417.958 258.013 418.04 258.104 418.04C261.903 416.885 280.627 407.806 284.335 405.991C291.934 402.277 289.763 403.267 297.271 399.553C297.451 399.471 297.361 399.223 297.271 399.306Z" fill="var(--mainBlack)"/>
<path d="M254.485 416.472C245.53 409.292 217.127 389.402 215.951 388.494C214.956 387.752 214.052 386.844 212.876 386.431C211.881 386.019 210.976 386.266 210.072 386.679C208.715 387.257 207.358 387.917 206.001 388.494C203.378 389.65 200.665 390.888 198.041 392.043C187.729 396.582 177.598 401.287 167.196 405.743C157.246 410.035 150.1 413.996 139.698 417.297C129.386 420.516 118.712 422.992 107.767 424.23C106.41 424.395 105.054 424.477 103.697 424.643C103.606 424.643 103.606 424.808 103.697 424.808C114.37 424.312 124.863 422.332 135.085 419.443C145.396 416.555 152.362 412.841 162.131 408.714C172.262 404.423 182.302 399.884 192.252 395.344C197.499 392.951 202.835 390.558 208.082 388.164C209.258 387.669 210.976 386.431 212.333 387.009C212.966 387.257 213.419 387.669 213.871 388.082C214.414 388.494 215.047 388.99 215.59 389.402C217.851 391.135 252.857 415.812 254.033 416.637C254.395 416.72 254.576 416.555 254.485 416.472Z" fill="var(--mainBlack)"/>
<path d="M107.677 337.491C112.471 354.74 121.969 375.29 125.949 378.591C130.924 382.717 163.307 389.897 164.935 390.062C168.915 390.31 176.242 364.066 171.991 363.57C165.478 362.828 142.05 362.167 140.603 360.847C139.155 359.526 128.934 348.302 118.441 335.675C111.205 326.845 104.783 326.762 107.677 337.491Z" fill="#AD6359"/>
<path d="M161.769 388.659C162.221 388.907 169.096 391.796 173.257 392.868C176.423 393.611 185.468 395.592 186.734 392.538C187.639 390.475 182.393 388.742 178.774 387.422C176.875 386.761 174.523 384.946 174.975 383.873C175.88 381.892 180.855 383.79 184.111 385.358C190.443 388.494 198.855 394.271 202.564 391.3C204.011 390.145 202.293 388.247 199.76 386.349C203.74 388.494 207.991 390.31 209.62 389.155C210.524 388.494 210.524 387.587 209.981 386.596C211.248 386.926 212.243 386.844 213.057 386.101C214.323 384.863 213.6 383.047 212.152 381.232C212.605 381.149 212.966 380.984 213.328 380.489C215.951 376.61 202.112 366.046 197.318 365.138C183.388 362.415 168.824 363.24 168.824 363.24C163.487 367.284 161.678 388.659 161.769 388.659Z" fill="#AD6359"/>
<path d="M181.85 376.61C185.106 377.023 188.363 378.096 191.167 379.664C194.695 381.727 197.137 384.12 200.122 386.596C200.212 386.679 200.122 386.761 200.032 386.679C198.584 385.523 192.705 381.149 191.167 380.241C188.272 378.426 185.197 377.188 181.85 376.61C181.76 376.693 181.76 376.61 181.85 376.61Z" fill="var(--mainBlack)"/>
<path d="M184.292 371.163C187.911 371.988 191.71 372.814 195.147 374.382C198.856 376.032 201.841 378.756 204.735 381.397C206.454 382.965 208.173 384.615 209.891 386.266C209.982 386.349 209.891 386.431 209.801 386.349C206.816 383.625 203.831 380.984 200.665 378.426C197.68 376.032 194.423 374.217 190.715 372.979C188.544 372.319 186.373 371.823 184.292 371.163C184.202 371.246 184.202 371.163 184.292 371.163Z" fill="var(--mainBlack)"/>
<path d="M188.001 366.459C191.529 367.037 194.695 367.532 197.861 369.182C202.021 371.411 206.182 375.125 207.63 376.528C209.258 378.013 210.705 379.499 212.243 381.067C212.333 381.149 212.152 381.232 212.152 381.149C208.715 377.766 205.007 374.547 201.117 371.658C199.217 370.255 197.227 369.017 194.966 368.192C192.705 367.367 190.353 366.872 188.001 366.459Z" fill="var(--mainBlack)"/>
<path d="M168.282 361.755L159.779 391.465C159.779 391.465 131.919 385.523 126.672 380.819C121.426 376.115 110.752 351.026 107.406 338.811C103.968 326.597 110.843 326.597 117.627 334.107C124.321 341.617 141.055 359.774 141.959 360.104C142.683 360.599 168.282 361.755 168.282 361.755Z" fill="var(--mainBlue)"/>
<path d="M156.794 378.013C157.698 374.794 158.693 371.493 159.508 368.192C159.96 366.294 160.412 364.478 160.864 362.58C160.864 362.498 160.774 362.498 160.683 362.58C159.598 365.799 158.513 369.017 157.608 372.319C156.703 375.62 155.708 378.838 154.894 382.14C154.442 384.038 153.99 385.853 153.628 387.752C153.628 387.752 153.718 387.834 153.718 387.752C154.894 384.533 155.889 381.232 156.794 378.013Z" fill="var(--mainBlack)"/>
<path opacity="0.1" d="M160.593 388.577L159.779 391.465C159.779 391.465 131.919 385.523 126.673 380.819C121.336 376.197 110.662 351.108 107.315 338.894C103.968 326.68 110.753 326.68 117.537 334.19C119.527 336.418 122.421 339.637 125.497 343.02L160.593 388.577Z" fill="var(--mainBlack)"/>
<path d="M74.5703 400.709C74.5703 400.709 70.138 429.759 86.4199 440.653C102.702 451.547 218.665 446.595 236.123 440.818C253.581 435.124 253.128 409.127 233.681 403.762C215.137 398.646 137.165 398.233 135.175 397.573C134.723 397.408 141.959 393.116 141.869 392.868L123.959 388.494L74.5703 400.709Z" fill="#3A3A3A"/>
<path d="M98.541 399.306C98.541 399.223 98.2696 399.223 98.2696 399.306C98.4505 402.607 97.1842 406.073 94.9228 408.632C92.2996 411.52 88.41 413.253 84.8823 415.069C84.5205 415.234 84.7918 415.729 85.1536 415.647C87.3246 414.987 89.4955 414.079 91.395 412.923C93.2041 411.933 94.8323 410.695 96.0082 409.127C98.4505 406.238 99.3551 402.772 98.541 399.306Z" fill="var(--mainBlack)"/>
<path d="M133.728 394.602C132.914 393.694 132.009 392.786 131.105 391.961C129.024 389.897 126.944 387.752 124.773 385.771C124.592 385.606 124.23 385.853 124.411 386.101C125.858 387.752 127.396 389.32 128.934 390.888C129.748 391.713 130.472 392.538 131.286 393.281C132.009 394.024 132.914 394.767 133.457 395.675C133.999 396.582 133.366 397.408 132.281 397.573C131.376 397.655 130.472 397.243 129.748 396.83C128.029 395.757 126.672 394.106 125.316 392.786C124.411 391.961 123.597 391.135 122.692 390.31C121.788 389.402 120.793 388.577 119.798 387.752C119.707 387.669 119.617 387.752 119.707 387.834C120.521 388.825 121.336 389.815 122.15 390.723C122.964 391.713 123.778 392.621 124.682 393.611C125.497 394.519 126.311 395.344 127.125 396.252C127.848 396.995 128.662 397.655 129.657 398.15C131.195 398.893 133.818 398.976 134.542 397.243C134.904 396.17 134.361 395.262 133.728 394.602Z" fill="var(--mainBlack)"/>
<path d="M233.681 441.066C227.62 441.396 221.56 441.891 215.499 442.139C209.529 442.469 203.469 442.634 197.499 442.799C185.378 443.047 173.347 443.047 161.226 442.634C149.015 442.221 135.808 441.561 123.687 440.406C117.898 439.828 112.019 439.415 106.23 438.508C101.074 437.682 96.2796 435.867 92.2996 432.565C84.2491 425.88 80.8118 415.729 79.1836 406.073C79.0027 404.753 78.8218 403.432 78.6409 402.194C78.6409 402.112 78.46 402.112 78.46 402.194C79.5454 412.181 81.6259 422.497 88.7718 430.337C91.8473 433.721 95.7369 436.444 100.26 437.93C105.777 439.745 111.747 439.993 117.537 440.571C129.748 441.726 142.954 442.469 155.256 442.964C167.558 443.459 179.95 443.624 192.252 443.377C204.554 443.129 216.947 442.634 229.248 441.726C230.786 441.644 232.233 441.479 233.771 441.314C233.771 441.149 233.771 441.066 233.681 441.066Z" fill="var(--mainBlack)"/>
<path d="M193.88 399.718C190.081 399.306 186.191 398.976 182.392 398.728C178.503 398.48 174.613 398.315 170.724 398.068C163.035 397.738 155.346 397.408 147.567 397.325C143.225 397.243 138.793 397.408 134.451 397.573C134.27 397.573 134.361 397.738 134.451 397.738C142.14 398.15 149.919 398.315 157.608 398.563C165.296 398.811 172.985 399.141 180.764 399.636C185.106 399.884 189.538 400.049 193.88 400.214C194.151 400.296 194.242 399.801 193.88 399.718Z" fill="var(--mainBlack)"/>
<path d="M142.773 392.538C139.698 393.776 136.894 395.427 134.09 397.16C131.376 398.811 128.572 400.626 126.13 402.607C126.039 402.69 126.13 402.772 126.22 402.69C129.205 401.369 132.009 399.636 134.813 398.068C137.618 396.417 140.422 394.849 142.954 392.868C143.135 392.786 143.045 392.456 142.773 392.538Z" fill="var(--mainBlack)"/>
<path d="M74.3893 403.597L136.17 386.761L129.115 366.459C129.115 366.459 133.728 359.857 131.376 353.749C129.205 348.385 114.28 332.622 111.295 330.558C106.229 327.01 97.3649 326.102 92.7517 331.466C73.8466 353.584 74.3893 403.597 74.3893 403.597Z" fill="var(--lightGray2)"/>
<path d="M94.2897 329.981L103.064 327.67C103.245 327.67 103.426 327.67 103.607 327.752L93.8375 330.311C94.0184 330.146 94.1993 330.063 94.2897 329.981ZM88.6815 337.161L112.019 331.054C111.928 330.971 111.928 330.971 111.838 330.889L88.8624 336.913C88.772 336.996 88.6815 337.078 88.6815 337.161ZM85.2442 343.516L116.451 335.345C116.361 335.263 116.361 335.263 116.27 335.18L85.3347 343.268C85.3347 343.351 85.2442 343.433 85.2442 343.516ZM82.7115 349.623L120.612 339.719C120.522 339.637 120.522 339.637 120.431 339.554L82.802 349.375C82.802 349.458 82.802 349.54 82.7115 349.623ZM80.812 355.648L124.592 344.258C124.592 344.176 124.502 344.176 124.411 344.093L80.812 355.4C80.812 355.482 80.812 355.565 80.812 355.648ZM79.1838 361.507L128.21 348.715C128.21 348.633 128.12 348.633 128.12 348.55L79.2742 361.26C79.1838 361.342 79.1838 361.425 79.1838 361.507ZM77.9174 367.284L131.195 353.419C131.195 353.337 131.105 353.254 131.105 353.254L77.9174 367.119C77.9174 367.202 77.9174 367.202 77.9174 367.284ZM76.8319 373.061L131.919 358.701C131.919 358.619 131.919 358.536 131.919 358.454L76.8319 372.814C76.9224 372.896 76.9224 372.979 76.8319 373.061ZM76.0178 378.756L130.11 364.643C130.11 364.561 130.2 364.478 130.2 364.396L76.0178 378.508C76.0178 378.591 76.0178 378.673 76.0178 378.756ZM75.3847 384.368L130.291 370.09L130.2 369.925L75.3847 384.203C75.3847 384.203 75.3847 384.285 75.3847 384.368ZM74.9324 389.98L132.1 375.125L132.009 374.96L74.9324 389.815C74.9324 389.815 74.9324 389.897 74.9324 389.98ZM74.5706 395.509L133.819 380.076L133.728 379.911L74.5706 395.262C74.5706 395.427 74.5706 395.509 74.5706 395.509ZM74.3896 400.874C74.3896 400.956 74.3896 401.039 74.3896 401.122L135.537 385.193L135.447 385.028L74.3896 400.874Z" fill="var(--mainBlack)"/>
<path d="M119.707 364.148C116.903 365.221 114.189 366.376 111.566 367.862C110.3 368.605 109.034 369.348 107.858 370.173C107.224 370.585 106.591 370.916 105.958 371.328C105.325 371.741 104.601 372.071 103.878 372.319C103.787 372.319 103.878 372.401 103.878 372.401C104.601 372.236 105.325 372.071 105.958 371.741C106.591 371.493 107.224 371.163 107.858 370.833C109.124 370.09 110.481 369.348 111.747 368.605C114.37 367.119 116.994 365.634 119.707 364.313C119.979 364.231 119.888 364.066 119.707 364.148Z" fill="var(--mainBlack)"/>
<path d="M127.667 364.396C125.225 364.808 122.783 365.386 120.431 366.129C119.255 366.459 118.079 366.872 116.903 367.367C116.36 367.614 115.818 367.779 115.275 368.027C114.642 368.275 114.099 368.605 113.556 368.852C113.466 368.852 113.556 368.935 113.556 368.935C114.099 368.687 114.732 368.605 115.365 368.44C115.999 368.275 116.541 368.11 117.175 367.862C118.35 367.532 119.526 367.119 120.702 366.789C123.054 366.046 125.406 365.304 127.758 364.643C127.848 364.561 127.758 364.396 127.667 364.396Z" fill="var(--mainBlack)"/>
<path d="M97.9982 328.248C97.9982 328.248 104.421 346.404 105.235 361.755C106.411 386.596 110.752 421.836 112.109 431.492C113.376 441.148 80.9022 471.189 72.309 467.723C68.1481 465.99 65.0726 445.192 69.324 404.835C70.8617 389.815 77.6458 353.254 87.415 337.408C94.1991 326.432 97.9982 328.248 97.9982 328.248Z" fill="var(--mainBlue)"/>
<path d="M102.612 408.962C100.531 410.53 98.451 412.181 96.5514 413.914C94.7423 415.482 92.9332 417.132 91.0337 418.618C89.1341 420.103 87.2346 421.506 85.1541 422.744C83.0736 423.982 80.8122 424.973 78.4604 425.715C78.37 425.715 78.37 425.88 78.4604 425.88C86.4205 425.22 92.7523 419.526 97.9082 414.491C99.6269 412.758 101.346 411.025 102.883 409.209C103.064 409.044 102.793 408.797 102.612 408.962Z" fill="var(--mainBlack)"/>
<path d="M102.702 412.015C100.35 414.821 97.9079 417.545 95.0133 419.938C92.2092 422.249 89.0433 424.23 85.6964 425.88C83.7969 426.871 81.7164 427.696 79.7264 428.439C79.636 428.521 79.636 428.686 79.8169 428.604C87.5055 427.283 94.561 422.909 99.3551 417.215C100.712 415.564 101.978 413.914 102.883 412.015C102.883 411.933 102.792 411.933 102.702 412.015Z" fill="var(--mainBlack)"/>
<path d="M102.973 415.894C103.426 420.846 103.335 429.347 103.154 431.245C102.973 432.978 102.611 434.711 101.707 436.197C99.9882 439.003 96.6414 441.231 93.4755 442.552C90.4905 443.789 86.6009 444.532 83.7063 442.799C81.8972 441.809 81.445 439.828 80.9927 438.095C80.3595 435.949 79.9072 433.803 79.7263 431.575C79.7263 431.493 79.5454 431.493 79.5454 431.575C79.6359 433.556 79.8168 435.619 80.1786 437.6C80.45 439.415 80.6309 441.396 81.9877 442.882C84.2491 445.523 88.41 445.688 91.6664 444.862C93.6564 444.367 95.6464 443.459 97.365 442.386C98.9932 441.396 100.531 440.158 101.797 438.755C103.064 437.352 103.697 435.702 104.24 434.051C105.144 431.41 104.511 420.516 103.245 415.894C103.064 415.812 102.973 415.812 102.973 415.894Z" fill="var(--mainBlack)"/>
<path d="M109.667 329.568C115.727 334.602 127.848 351.851 129.296 355.73C131.195 360.599 129.115 366.459 129.115 366.459L136.17 386.761L130.743 366.624C130.743 366.624 134.542 361.177 132.733 354.492C130.833 347.807 115.547 333.777 113.466 331.796C111.386 329.816 109.667 329.568 109.667 329.568Z" fill="var(--mainBlue)"/>
<path d="M99.1742 327.835C99.0837 328.908 102.431 336.831 107.586 337.904C109.305 338.234 111.747 329.981 111.747 329.981L112.109 329.403L116.813 321.398L107.767 312.237L106.411 310.999C106.32 310.999 99.1742 327.422 99.1742 327.835Z" fill="#AD6359"/>
<path d="M106.32 310.999C106.32 310.999 104.602 314.878 102.702 319.417C103.969 324.369 110.662 329.073 112.019 329.403L116.723 321.398L107.677 312.237L106.32 310.999Z" fill="var(--mainBlack)"/>
<path d="M103.425 307.45C104.782 308.523 106.682 308.853 108.31 308.193C109.938 307.615 110.933 306.13 111.114 304.562C112.561 305.634 114.551 305.965 116.27 304.892C117.989 303.736 118.26 301.756 117.355 300.105C117.989 301.673 117.717 303.571 116.089 304.644C114.732 305.552 113.285 305.387 112.019 304.727C113.375 304.892 114.823 304.727 115.908 303.901C117.084 302.993 117.717 301.508 117.265 300.187C118.984 299.775 120.612 298.784 121.245 297.216C121.788 295.896 121.516 294.328 120.34 293.42C121.878 292.677 122.964 291.109 122.873 289.541C122.783 288.056 121.607 286.735 120.069 286.157C122.33 284.919 122.421 281.866 120.25 280.545C120.974 279.968 121.245 279.06 120.974 278.235C120.702 277.244 119.798 276.584 118.803 276.089C119.074 275.263 118.893 274.273 118.169 273.53C117.265 272.622 115.818 272.54 114.732 273.2C114.009 271.715 112.923 270.229 111.204 269.651C109.848 269.156 108.129 269.239 107.043 270.229C105.325 267.753 101.616 267.258 99.1739 269.156C98.1789 268.331 96.7316 268.166 95.4652 268.579C94.1989 268.991 93.4752 269.569 93.2039 269.816C92.2089 269.156 90.9425 269.156 89.9475 269.816C88.9525 270.477 88.5907 271.385 88.5002 272.375C88.3193 272.622 88.1384 272.788 87.7766 272.953C86.3293 273.695 85.3343 274.851 85.1534 276.336C83.2538 276.584 81.9874 278.565 82.6206 280.215C80.8115 281.041 80.0879 283.186 81.0829 284.754C79.7261 285.497 78.8215 286.735 78.6406 288.221C78.4597 289.294 78.8215 290.614 79.907 291.192C79.1833 291.687 79.2738 292.842 79.7261 293.503C79.907 293.75 80.1783 293.998 80.4497 294.245C80.7211 294.493 81.2638 294.74 81.4447 295.071C81.6256 295.401 81.5352 295.896 81.5352 296.226C81.5352 296.474 81.6256 296.804 81.6256 297.051C82.1684 299.032 84.3393 300.518 86.6007 300.353C86.6911 301.838 88.0479 302.828 89.4952 303.324C89.9475 303.489 90.3998 303.571 90.9425 303.654C91.3948 303.736 91.7566 303.819 92.1184 304.149C92.2993 304.314 92.4802 304.562 92.6611 304.727C93.3848 305.387 94.2893 305.469 95.2843 305.469C95.5557 309.183 100.712 310.009 103.425 307.45ZM89.7666 270.147C90.6711 269.321 91.9375 269.156 93.1134 269.651C93.023 269.734 93.023 269.734 93.023 269.734C93.023 269.734 92.6611 269.651 92.3898 269.651C92.028 269.651 91.6661 269.651 91.3043 269.734C90.5807 269.899 89.857 270.312 89.4048 270.807C89.2238 271.054 89.0429 271.302 88.862 271.55C88.862 271.55 88.862 271.632 88.7716 271.632C89.0429 271.137 89.2238 270.559 89.7666 270.147ZM117.898 274.191C117.265 273.283 115.999 272.87 114.823 273.2V273.118C115.908 272.705 117.084 272.54 117.989 273.53C118.622 274.191 118.712 275.016 118.441 275.759C118.35 275.181 118.169 274.686 117.898 274.191ZM95.3748 305.222C96.3698 307.698 99.2644 308.853 101.797 308.11C99.0834 309.101 96.0984 308.523 95.3748 305.222Z" fill="var(--mainBlack)"/>
<path d="M131.286 310.256C130.743 326.184 120.251 327.67 116.542 327.587C113.105 327.505 101.526 326.762 100.26 310.916C98.9032 294.988 107.135 290.201 115.004 290.036C122.783 289.871 131.829 294.328 131.286 310.256Z" fill="#AD6359"/>
<path d="M128.934 308.358C128.572 308.275 128.21 308.11 127.848 307.945C127.396 307.78 127.034 307.698 126.763 307.368C126.582 307.202 126.672 306.872 126.853 306.707C127.305 306.377 127.848 306.46 128.391 306.625C128.934 306.79 129.386 307.037 129.657 307.533C130.019 307.945 129.476 308.44 128.934 308.358Z" fill="var(--mainBlack)"/>
<path d="M117.175 307.12C117.627 307.12 117.989 307.037 118.351 307.037C118.803 306.955 119.165 307.037 119.527 306.707C119.707 306.542 119.798 306.212 119.617 306.047C119.255 305.634 118.712 305.552 118.17 305.552C117.537 305.552 117.084 305.717 116.632 306.13C116.27 306.46 116.632 307.12 117.175 307.12Z" fill="var(--mainBlack)"/>
<path d="M119.527 310.834C119.527 310.751 119.437 310.916 119.437 310.916C119.346 311.989 119.075 313.227 117.989 313.475V313.557C119.256 313.475 119.617 311.824 119.527 310.834Z" fill="var(--mainBlack)"/>
<path d="M118.532 309.596C116.632 309.266 116.09 312.732 117.899 313.062C119.617 313.31 120.16 309.843 118.532 309.596Z" fill="var(--mainBlack)"/>
<path d="M117.808 309.678C117.446 309.843 117.085 310.174 116.632 310.091C116.18 310.091 115.909 309.678 115.637 309.266H115.547C115.456 309.926 115.637 310.669 116.361 310.834C117.085 310.999 117.627 310.504 117.899 309.843C117.989 309.843 117.899 309.596 117.808 309.678Z" fill="var(--mainBlack)"/>
<path d="M126.22 311.411L126.311 311.494C126.13 312.567 126.22 313.805 127.215 314.3V314.383C125.949 314.052 125.859 312.402 126.22 311.411Z" fill="var(--mainBlack)"/>
<path d="M127.396 310.339C129.296 310.339 129.115 313.887 127.396 313.805C125.587 313.805 125.768 310.339 127.396 310.339Z" fill="var(--mainBlack)"/>
<path d="M128.21 310.586C128.482 310.751 128.753 311.164 129.115 311.164C129.567 311.246 129.839 310.834 130.11 310.504H130.2C130.2 311.164 129.929 311.824 129.205 311.989C128.572 312.072 128.12 311.494 127.939 310.834C127.939 310.751 128.029 310.504 128.21 310.586Z" fill="var(--mainBlack)"/>
<path d="M117.265 319.499C117.446 319.83 117.627 320.242 117.989 320.407C118.351 320.572 118.893 320.49 119.255 320.49C119.255 320.49 119.346 320.572 119.255 320.572C118.803 320.902 118.079 320.985 117.627 320.737C117.175 320.49 116.994 319.995 117.084 319.582C117.175 319.417 117.265 319.417 117.265 319.499Z" fill="var(--mainBlack)"/>
<path d="M123.597 316.611C123.597 316.611 123.416 318.261 123.235 319.004C123.235 319.087 123.054 319.087 122.693 319.004C121.245 318.922 119.888 318.096 119.346 316.858C119.346 316.776 119.436 316.693 119.527 316.776C120.431 317.766 121.517 318.179 122.783 318.509C122.873 318.344 123.054 315.703 123.145 315.703C123.597 315.786 124.411 316.281 124.863 316.528C125.406 313.145 125.316 309.761 125.858 306.377C125.858 306.295 126.039 306.295 126.039 306.377C126.401 309.926 125.949 313.887 125.497 317.354C125.406 317.766 123.868 316.776 123.597 316.611Z" fill="var(--mainBlack)"/>
<path d="M122.241 318.757C122.241 318.757 121.246 319.499 120.16 319.499C119.798 319.499 119.346 319.499 118.984 319.252C118.17 318.839 118.441 318.096 118.713 317.519C118.984 317.024 119.436 316.693 119.436 316.693C119.436 316.693 120.251 318.096 122.241 318.757Z" fill="var(--mainBlack)"/>
<path d="M120.069 319.499C119.707 319.499 119.255 319.499 118.893 319.252C118.079 318.839 118.351 318.096 118.622 317.519C119.527 317.931 120.25 318.674 120.069 319.499Z" fill="white"/>
<path d="M102.34 312.732C105.596 313.145 106.501 306.377 106.501 306.377C106.501 306.377 117.717 305.634 121.155 295.401C121.155 295.401 123.959 300.683 131.105 303.736C131.105 303.736 130.743 292.512 120.974 290.201C120.974 290.201 108.943 286.075 101.978 294.823C95.0132 303.489 100.169 312.402 102.34 312.732Z" fill="var(--mainBlack)"/>
<path d="M121.064 294.575C121.064 296.143 120.703 297.712 119.979 299.197C119.255 300.683 118.26 302.003 116.994 303.076C116.723 303.406 116.361 303.571 115.999 303.819L115.456 304.231C115.275 304.314 115.094 304.479 114.913 304.562C114.552 304.727 114.19 304.974 113.737 305.139C113.376 305.304 112.923 305.469 112.562 305.634C112.381 305.717 112.2 305.799 111.928 305.882L111.295 306.047L110.029 306.377C109.215 306.542 108.31 306.625 107.496 306.707C108.31 306.46 109.124 306.295 109.938 306.047L111.114 305.634L111.747 305.469C111.928 305.387 112.109 305.304 112.29 305.222C112.652 305.057 113.014 304.892 113.376 304.727C113.737 304.562 114.099 304.314 114.461 304.149L115.004 303.819L115.456 303.489C115.727 303.241 116.089 302.993 116.361 302.746C117.627 301.756 118.532 300.435 119.346 299.115C119.708 298.454 120.069 297.712 120.341 296.969C120.703 296.143 120.974 295.318 121.064 294.575Z" fill="var(--mainBlack)"/>
<path d="M104.059 312.402C104.059 312.402 100.893 307.037 98.2697 308.028C95.6465 309.018 97.546 316.446 100.35 317.766C103.064 319.087 104.421 316.776 104.421 316.776L104.059 312.402Z" fill="#AD6359"/>
<path d="M98.9028 310.174C98.8123 310.256 98.8123 310.174 98.9028 310.174C100.802 311.164 101.616 313.062 102.159 314.878C101.616 314.135 100.893 313.64 99.8074 314.218C99.7169 314.218 99.8074 314.3 99.8074 314.3C100.621 314.218 101.255 314.383 101.707 315.125C102.069 315.621 102.25 316.198 102.431 316.693C102.521 316.859 102.883 316.776 102.792 316.611C102.792 316.611 102.792 316.611 102.792 316.528C103.245 314.218 101.616 310.669 98.9028 310.174Z" fill="var(--mainBlack)"/>
<path d="M98.9936 316.446C98.9936 317.189 96.8227 314.465 96.7322 314.052C96.6418 313.64 95.104 312.402 94.7422 311.659C94.3804 310.916 93.7472 308.688 93.7472 308.11C93.7472 307.615 92.8427 306.212 92.9331 305.304C93.0236 304.396 94.1995 296.226 100.803 291.274C107.406 286.322 112.743 286.405 112.743 286.405C112.743 286.405 116.542 286.075 120.884 286.735C125.226 287.395 130.653 297.299 130.653 297.547C130.653 297.794 130.291 298.372 130.472 298.95C130.653 299.527 131.196 300.187 130.834 300.683C130.472 301.178 131.196 302.663 131.105 303.241C131.015 303.819 130.834 303.984 130.924 304.396C131.015 304.809 129.929 294.41 116.813 289.789C116.904 289.706 99.8981 300.27 98.9936 316.446Z" fill="var(--mainBlue)"/>
<path d="M130.924 304.231V304.315C131.014 304.315 131.014 304.315 130.924 304.231Z" fill="var(--mainBlue)"/>
<path d="M130.924 304.231V304.315C131.014 304.315 131.014 304.315 130.924 304.231Z" fill="var(--mainBlue)"/>
<path opacity="0.3" d="M126.763 291.934C126.944 291.934 127.124 291.934 127.215 291.934C127.486 292.347 127.848 292.76 128.119 293.172C128.029 293.585 127.667 293.915 127.215 293.998C126.582 294.08 125.949 293.75 125.858 293.172C125.677 292.595 126.129 292.017 126.763 291.934ZM120.34 291.192C121.064 291.522 121.697 291.934 122.24 292.265C122.421 292.017 122.511 291.769 122.421 291.439C122.33 290.862 121.697 290.531 121.064 290.614C120.793 290.697 120.521 290.862 120.34 291.192ZM127.577 296.969C128.029 297.547 128.391 298.124 128.753 298.702C129.295 298.537 129.657 298.042 129.567 297.547C129.476 296.969 128.843 296.639 128.21 296.721C127.939 296.721 127.758 296.804 127.577 296.969ZM103.697 289.376C103.878 289.871 104.42 290.119 104.963 290.036C105.596 289.954 105.958 289.376 105.868 288.798C105.868 288.633 105.777 288.468 105.596 288.303C104.963 288.633 104.33 288.963 103.697 289.376ZM102.973 298.207C103.063 298.784 103.697 299.115 104.33 299.032C104.963 298.95 105.325 298.372 105.234 297.794C105.144 297.216 104.511 296.886 103.878 296.969C103.335 297.051 102.883 297.629 102.973 298.207ZM117.989 286.983C118.079 287.56 118.712 287.891 119.345 287.808C119.979 287.725 120.34 287.148 120.25 286.57C119.526 286.488 118.803 286.405 118.079 286.322C117.989 286.57 117.898 286.818 117.989 286.983ZM111.566 288.881C111.657 289.459 112.29 289.789 112.923 289.706C113.556 289.624 113.918 289.046 113.828 288.468C113.737 287.891 113.104 287.56 112.471 287.643C111.838 287.725 111.476 288.303 111.566 288.881ZM107.767 293.668C107.858 294.245 108.491 294.575 109.124 294.493C109.757 294.41 110.119 293.833 110.028 293.255C109.938 292.677 109.305 292.347 108.672 292.43C108.038 292.512 107.677 293.09 107.767 293.668ZM99.0834 294.08C99.1739 294.658 99.8071 294.988 100.44 294.906C101.073 294.823 101.435 294.245 101.345 293.668C101.254 293.09 100.621 292.76 99.988 292.842C99.3548 293.007 98.993 293.503 99.0834 294.08ZM98.2693 302.003C98.3598 302.581 98.993 302.911 99.6262 302.828C100.259 302.746 100.621 302.168 100.531 301.59C100.44 301.013 99.8071 300.683 99.1739 300.765C98.5407 300.93 98.0884 301.425 98.2693 302.003ZM97.998 313.887C98.0884 314.383 98.6312 314.795 99.1739 314.713C99.2643 314.052 99.3548 313.392 99.5357 312.732C99.3548 312.649 99.0834 312.649 98.9025 312.649C98.2693 312.732 97.9075 313.31 97.998 313.887ZM101.526 305.717C101.526 305.882 101.616 306.047 101.797 306.212C102.068 305.634 102.43 305.057 102.702 304.479C102.611 304.479 102.521 304.479 102.43 304.479C101.888 304.562 101.435 305.139 101.526 305.717ZM94.6511 299.362C94.9225 299.527 95.1939 299.61 95.5557 299.527C96.1889 299.445 96.5507 298.867 96.4602 298.289C96.3698 297.877 96.008 297.547 95.5557 297.464C95.2843 298.124 94.9225 298.702 94.6511 299.362ZM96.1889 307.945C96.2793 308.523 96.9125 308.853 97.5457 308.771C98.1789 308.688 98.5407 308.11 98.4502 307.533C98.3598 306.955 97.7266 306.625 97.0934 306.707C96.4602 306.79 96.0984 307.368 96.1889 307.945ZM94.018 309.183C94.1084 309.678 94.2893 310.256 94.4702 310.751C94.6511 310.504 94.7416 310.256 94.6511 309.926C94.6511 309.596 94.3798 309.348 94.018 309.183ZM93.0229 304.892C93.2039 304.974 93.3848 304.974 93.6561 304.974C94.2893 304.892 94.6511 304.314 94.5607 303.736C94.4702 303.241 94.018 302.911 93.4752 302.911C93.2039 303.819 93.1134 304.479 93.0229 304.892Z" fill="white"/>
<path opacity="0.1" d="M96.7321 314.053C96.6416 313.31 96.8225 312.567 96.913 311.824C97.0034 311.081 97.1843 310.339 97.2748 309.596C97.5462 308.11 97.8175 306.707 98.1793 305.222C98.2698 304.892 98.3602 304.479 98.4507 304.149C98.5412 303.819 98.8125 303.489 98.9934 303.159C99.4457 302.498 99.898 301.921 100.35 301.343C100.803 300.765 101.345 300.105 101.798 299.527L103.245 297.712C102.159 298.867 101.164 300.022 100.169 301.178C99.6266 301.756 99.1743 302.333 98.7221 302.994C98.5412 303.324 98.2698 303.654 98.1793 303.984C98.0889 304.314 97.9984 304.727 97.908 305.057C97.5462 306.542 97.2748 307.945 97.0034 309.431C96.913 310.174 96.8225 310.916 96.7321 311.659C96.7321 311.989 96.6416 312.402 96.6416 312.815C96.7321 313.31 96.6416 313.722 96.7321 314.053Z" fill="var(--mainBlack)"/>
<path opacity="0.1" d="M99.0838 298.867C98.3602 299.445 97.727 300.187 97.0938 300.848C96.4606 301.508 95.9179 302.251 95.4656 303.076C95.0133 303.819 94.561 304.644 94.2897 305.552C94.0183 306.377 93.8374 307.285 93.8374 308.193C93.8374 307.945 93.9279 307.78 93.9279 307.533C93.9279 307.45 93.9279 307.285 94.0183 307.203L94.1088 306.872C94.1088 306.79 94.1992 306.625 94.1992 306.542L94.2897 306.212C94.3801 305.965 94.3801 305.8 94.561 305.552L94.8324 304.974L95.1038 304.397C95.1942 304.231 95.2847 303.984 95.4656 303.819C95.556 303.654 95.6465 303.406 95.8274 303.241C96.2797 302.498 96.8224 301.756 97.3651 301.013C97.6365 300.683 97.9079 300.27 98.2697 299.94C98.4506 299.61 98.722 299.28 99.0838 298.867Z" fill="var(--mainBlack)"/>
<path opacity="0.1" d="M130.381 298.454C130.019 297.629 129.567 296.969 129.024 296.226C128.572 295.483 128.029 294.823 127.486 294.163C126.944 293.503 126.401 292.76 125.768 292.182C125.134 291.522 124.411 291.027 123.597 290.614C123.958 290.862 124.32 291.109 124.682 291.439C125.044 291.687 125.315 292.017 125.677 292.347C125.949 292.677 126.22 293.007 126.491 293.337L127.305 294.328L128.934 296.391C129.205 296.721 129.476 297.051 129.748 297.464C129.929 297.712 130.2 298.042 130.381 298.454Z" fill="var(--mainBlack)"/>
<path opacity="0.1" d="M130.743 301.013C130.562 300.435 130.291 299.857 130.02 299.28C129.748 298.702 129.387 298.207 129.115 297.629C128.934 297.381 128.753 297.134 128.572 296.886C128.392 296.639 128.12 296.391 127.939 296.226L127.306 295.566C127.125 295.318 126.854 295.153 126.673 294.906C126.854 295.153 127.035 295.401 127.216 295.648L127.849 296.391C128.03 296.639 128.211 296.886 128.482 297.134C128.663 297.381 128.844 297.629 129.025 297.877C129.387 298.372 129.658 298.95 130.02 299.445C130.201 299.692 130.382 299.94 130.472 300.27C130.472 300.435 130.562 300.765 130.743 301.013Z" fill="var(--mainBlack)"/>
<path opacity="0.1" d="M102.25 290.284C104.421 291.357 109.396 293.75 110.572 293.75C110.843 293.75 111.295 293.75 111.748 293.668C114.642 291.109 116.904 289.706 116.904 289.706C118.532 290.284 119.979 290.944 121.246 291.687C122.783 291.027 124.411 289.871 125.045 289.376C123.688 287.973 122.241 286.9 120.884 286.735C116.542 286.075 112.743 286.405 112.743 286.405C112.743 286.405 108.13 286.24 102.25 290.284Z" fill="var(--mainBlack)"/>
<path d="M116.36 287.313C116.36 287.313 121.426 282.361 127.848 282.939C127.848 282.939 126.31 288.551 123.687 290.036C122.421 290.779 117.355 290.201 116.994 289.376C116.541 288.551 116.36 287.313 116.36 287.313Z" fill="var(--mainBlue)"/>
<path opacity="0.3" d="M124.14 283.269C124.14 283.764 123.778 284.177 123.235 284.259C122.783 284.342 122.421 284.177 122.15 283.929C122.783 283.599 123.416 283.351 124.14 283.269ZM124.683 287.891C124.773 288.221 124.954 288.468 125.225 288.633C125.678 288.056 126.039 287.478 126.311 286.818C126.13 286.735 125.858 286.653 125.587 286.735C124.954 286.818 124.592 287.313 124.683 287.891ZM117.989 286.983C118.079 287.56 118.712 287.891 119.346 287.808C119.979 287.726 120.341 287.148 120.25 286.57C120.16 285.992 119.527 285.662 118.893 285.745C118.26 285.91 117.898 286.405 117.989 286.983Z" fill="white"/>
<path opacity="0.1" d="M116.36 287.395C116.36 287.395 116.541 288.551 116.994 289.376C116.994 289.376 116.994 289.459 117.084 289.459L117.174 289.541L117.265 289.624C117.808 289.954 118.803 290.119 119.979 290.284C119.979 289.459 119.979 288.468 119.888 287.725C119.798 287.065 119.074 286.405 118.35 285.827C117.084 286.653 116.36 287.395 116.36 287.395Z" fill="var(--mainBlack)"/>
<path d="M114.642 287.808C114.642 287.808 106.139 284.919 101.616 285.827C101.616 285.827 102.973 290.449 107.134 292.265C109.034 293.09 115.456 290.944 115.365 289.954C115.184 289.046 114.642 287.808 114.642 287.808Z" fill="var(--mainBlue)"/>
<path opacity="0.3" d="M104.511 287.973C105.144 287.891 105.777 288.221 105.868 288.798C105.958 289.376 105.597 289.954 104.963 290.036C104.33 290.119 103.697 289.789 103.607 289.211C103.516 288.633 103.878 288.056 104.511 287.973ZM111.567 288.881C111.657 289.459 112.29 289.789 112.923 289.706C113.557 289.624 113.918 289.046 113.828 288.468C113.737 287.891 113.104 287.56 112.471 287.643C111.838 287.725 111.476 288.303 111.567 288.881ZM108.401 292.512C108.672 292.512 108.943 292.512 109.305 292.43C109.124 292.347 108.943 292.347 108.762 292.43C108.582 292.43 108.491 292.43 108.401 292.512Z" fill="white"/>
<path opacity="0.1" d="M112.651 287.23C112.29 287.973 112.018 288.963 112.199 289.871C112.29 290.366 112.651 290.944 113.013 291.439C114.28 290.944 115.275 290.366 115.184 290.036C115.094 289.046 114.551 287.891 114.551 287.891C114.551 287.891 113.918 287.56 112.651 287.23Z" fill="var(--mainBlack)"/>
<path d="M113.285 289.459C113.737 290.862 115.366 291.687 116.903 291.274C118.441 290.862 119.346 289.376 118.984 287.973C118.532 286.57 116.903 285.745 115.366 286.157C113.737 286.57 112.833 288.056 113.285 289.459Z" fill="var(--mainBlue)"/>
<path d="M87.0532 337.739C73.6658 360.022 61.5449 402.772 68.2385 409.044C75.7463 416.059 94.2896 384.781 93.7468 383.378C93.2946 382.305 95.5559 357.711 97.5459 339.719C99.4455 321.81 90.3095 332.209 87.0532 337.739Z" fill="white"/>
<path d="M93.9278 383.378C94.0182 380.819 97.365 348.22 97.9982 337.986C98.6314 328.825 95.8273 325.854 89.8573 332.952C78.9122 346.157 60.4594 382.47 60.0071 398.811C59.6453 414.574 73.1231 412.346 81.8972 402.855C88.9527 395.097 93.9278 383.378 93.9278 383.378Z" fill="var(--mainBlue)"/>
<path d="M93.4756 387.587C94.1088 375.537 95.2847 362.993 96.9129 351.026C96.2797 363.075 95.1038 375.62 93.4756 387.587Z" fill="var(--mainBlack)"/>
<path d="M96.3701 358.123C96.4606 356.473 97.0033 354.987 97.9079 353.502C97.9983 355.152 97.3651 356.72 96.3701 358.123Z" fill="var(--mainBlack)"/>
<path d="M69.2337 408.384C76.4701 410.86 86.9629 405.578 114.913 394.519C118.803 392.951 114.28 365.221 110.119 366.624C104.783 368.44 84.611 376.528 83.1638 377.27C71.4046 383.708 64.3491 406.734 69.2337 408.384Z" fill="#AD6359"/>
<path d="M110.934 362.828C119.617 359.196 122.512 359.526 128.03 352.924C131.738 348.632 136.261 348.88 135.176 354.492C133.366 363.653 123.235 370.42 118.984 371.906L110.934 362.828Z" fill="#AD6359"/>
<path d="M89.4048 377.27C89.4048 377.27 97.9076 369.347 106.772 364.726C112.923 361.507 126.491 356.885 145.487 365.304C150.462 367.532 153.447 373.969 145.216 372.153C139.155 370.833 136.08 369.017 132.461 369.1C132.461 369.1 137.165 377.353 134.542 381.314C133.366 383.047 130.019 387.752 126.853 391.053C126.853 391.053 125.858 390.64 124.682 389.897C124.682 389.897 121.878 393.364 114.823 394.602L89.4048 377.27Z" fill="#AD6359"/>
<path d="M113.194 362.497C116.813 363.158 124.501 364.643 130.381 367.862C136.803 371.411 148.2 379.911 145.306 384.285C143.135 387.422 138.522 384.533 138.522 384.533C138.522 384.533 142.411 388.99 139.788 391.465C137.346 393.694 133.909 391.3 133.909 391.3C133.909 391.3 135.808 394.354 133.004 396.087C129.657 398.233 126.31 391.465 120.883 390.97C119.617 390.888 113.194 362.497 113.194 362.497Z" fill="#AD6359"/>
<path d="M125.044 373.474C128.391 374.629 135.175 378.921 138.431 384.45C138.522 384.615 138.431 384.698 138.341 384.615C133.366 379.251 127.577 375.125 125.044 373.474Z" fill="var(--mainBlack)"/>
<path d="M121.245 379.581C123.959 380.819 130.833 385.523 133.909 391.218C133.999 391.383 133.909 391.465 133.818 391.383C128.843 385.523 123.687 381.314 121.245 379.581Z" fill="var(--mainBlack)"/>
<path d="M103.606 365.881L101.526 406.568C101.526 406.568 70.2285 412.758 64.168 409.209C59.8262 406.651 69.7762 384.863 82.5304 377.353L103.606 365.881Z" fill="var(--mainBlue)"/>
<path d="M70.9521 391.135C71.6758 388.494 75.294 381.809 82.6208 377.353C82.7113 377.353 82.8018 377.435 82.7113 377.435C77.6458 381.232 72.0376 388.659 71.1331 391.135C71.0426 391.218 70.9521 391.135 70.9521 391.135Z" fill="var(--mainBlack)"/>
<path d="M94.1992 402.524C94.0183 398.563 94.1087 394.684 94.2897 390.723C94.3801 386.761 94.4706 382.8 94.7419 378.921C94.8324 376.693 94.9228 374.464 95.1942 372.236C95.1942 372.154 95.2847 372.154 95.2847 372.236C95.4656 376.197 95.3751 380.076 95.2847 384.038C95.1942 387.999 95.1037 391.961 94.9228 395.84C94.8324 398.068 94.7419 400.296 94.4706 402.524C94.3801 402.607 94.1992 402.69 94.1992 402.524Z" fill="var(--mainBlack)"/>
<path d="M103.425 365.634C101.888 366.211 100.44 367.037 98.9931 367.779C97.5459 368.522 96.0986 369.347 94.6513 370.173C91.8472 371.741 85.6058 374.877 80.9926 378.508C80.9021 378.508 81.4449 378.591 81.4449 378.508C83.5253 376.693 101.978 367.119 103.425 366.211C103.425 366.294 103.516 366.459 103.516 366.541C103.516 366.624 103.697 366.624 103.697 366.541C103.787 366.294 103.787 366.129 103.787 365.881C103.787 365.716 103.606 365.551 103.425 365.634Z" fill="var(--mainBlack)"/>
<path d="M102.068 399.636C102.068 402.029 101.978 404.423 101.888 406.816C95.4653 408.136 88.9525 409.127 82.3493 409.787C77.917 410.117 66.3388 411.603 63.1729 408.632C66.5197 411.438 82.1684 408.879 87.053 408.384C91.7566 407.806 96.8221 406.981 101.435 406.238L101.164 406.486C101.435 404.258 101.707 401.947 102.068 399.636Z" fill="var(--mainBlack)"/>
<path d="M183.569 399.471H112.652V402.359H183.569V399.471Z" fill="#BCBCBC"/>
<path d="M143.136 399.471L140.693 402.442H198.856V399.471H143.136Z" fill="var(--darkGray)"/>
<path d="M146.211 402.442H215.319L229.339 359.609H160.231L146.211 402.442Z" fill="var(--darkGray)"/>
<path d="M148.562 402.442H217.67L231.691 359.609H162.583L148.562 402.442Z" fill="#BCBCBC"/>
<path d="M187.277 380.984C186.825 383.13 188.363 384.863 190.624 384.863C192.976 384.863 195.237 383.13 195.69 380.984C196.142 378.838 194.604 377.105 192.343 377.105C189.991 377.188 187.73 378.838 187.277 380.984Z" fill="white"/>
<path d="M566.983 275.814C566.983 275.814 541.659 272.778 547.586 246.651C547.478 246.651 575.819 252.079 566.983 275.814Z" fill="var(--mainBlue)"/>
<path opacity="0.1" d="M566.983 275.814C566.983 275.814 541.659 272.778 547.586 246.651C547.478 246.651 575.819 252.079 566.983 275.814Z" fill="var(--mainBlack)"/>
<path d="M565.689 270.294C565.151 269.006 564.612 267.718 563.965 266.431C563.965 266.247 563.965 266.063 563.858 265.971C563.858 265.603 563.75 265.235 563.75 264.867C563.642 264.131 563.642 263.303 563.534 262.567C563.427 261.003 563.319 259.439 563.319 257.875C563.319 257.783 563.211 257.783 563.211 257.875C563.211 259.439 563.211 261.003 563.211 262.567C563.211 263.303 563.319 264.131 563.319 264.867C563.319 265.051 563.319 265.235 563.319 265.419C561.918 262.843 560.194 260.359 558.254 257.967C557.392 256.955 556.422 255.943 555.452 254.931C554.483 254.011 553.405 252.999 552.435 252.079C552.327 251.987 552.22 252.079 552.327 252.171C554.159 253.827 555.776 255.759 557.177 257.691C557.931 258.703 558.685 259.715 559.332 260.727C559.224 260.727 559.224 260.635 559.116 260.635C558.793 260.543 558.47 260.451 558.254 260.359C557.608 260.175 556.853 259.899 556.207 259.715C554.806 259.255 553.513 258.887 552.112 258.427C552.004 258.427 552.004 258.519 552.004 258.519C553.405 258.979 554.698 259.439 555.991 259.991C556.638 260.267 557.284 260.451 557.931 260.727C558.254 260.819 558.577 261.003 558.901 261.095C559.116 261.187 559.332 261.279 559.547 261.279C560.086 262.107 560.517 262.843 561.056 263.671C562.241 265.695 563.319 267.81 564.181 269.926C564.289 270.11 564.289 270.202 564.396 270.386C563.75 270.018 562.996 269.834 562.349 269.558C561.487 269.19 560.625 268.914 559.763 268.546C558.039 267.81 556.207 267.167 554.483 266.339C554.375 266.339 554.267 266.431 554.375 266.431C556.099 267.259 557.823 268.086 559.547 268.914C560.409 269.282 561.271 269.742 562.241 270.11C562.996 270.386 563.75 270.846 564.612 270.938C565.366 272.962 566.121 274.986 566.228 277.102C566.552 280.046 566.444 282.99 566.552 286.026C566.552 286.118 566.659 286.118 566.659 286.026C566.875 283.358 567.09 280.598 567.09 277.93C567.198 275.17 566.552 272.778 565.689 270.294Z" fill="var(--mainBlack)"/>
<path d="M561.703 254.931C561.487 256.495 561.379 257.967 561.487 259.531H561.595C561.703 257.967 561.703 256.495 561.918 254.931C561.918 254.931 561.81 254.839 561.703 254.931Z" fill="var(--mainBlack)"/>
<path d="M554.483 256.219C553.405 255.851 552.22 255.391 551.25 254.839C551.142 254.747 551.142 254.931 551.142 254.931C552.22 255.575 553.297 256.127 554.483 256.219C554.59 256.311 554.483 256.403 554.483 256.219Z" fill="var(--mainBlack)"/>
<path d="M567.737 317.213C567.737 314.821 567.629 312.429 567.629 310.037C567.629 302.125 567.522 294.121 567.306 286.21C567.198 279.862 566.983 273.606 566.767 267.259C566.767 267.259 566.767 267.167 566.659 267.167C566.659 265.419 566.659 263.763 566.659 262.015L566.552 261.923C566.444 261.923 566.444 261.923 566.444 262.015C566.444 263.763 566.444 265.419 566.444 267.167C566.444 267.167 566.336 267.167 566.336 267.259C566.013 278.482 565.582 289.706 565.582 300.929C565.582 303.229 565.582 305.529 565.582 307.737C565.474 315.097 565.474 322.364 565.474 329.724C565.474 330.92 565.474 332.024 565.474 333.22C565.474 339.936 565.582 346.651 565.582 353.275C565.582 353.643 566.013 353.827 566.552 353.827C567.091 353.827 567.737 353.643 567.737 353.275C567.737 345.915 567.845 338.464 567.845 331.104C567.737 326.596 567.737 321.904 567.737 317.213Z" fill="var(--mainBlack)"/>
<path d="M557.177 309.945C557.177 309.945 545 302.217 533.362 307.461C521.832 312.705 520 332.76 520 332.76C520 332.76 537.026 334.876 547.694 326.136C558.039 317.765 557.177 309.945 557.177 309.945Z" fill="var(--mainBlue)"/>
<path d="M560.517 310.497C558.362 309.669 555.884 309.485 553.405 309.669C552.866 309.577 552.435 309.577 551.896 309.577C551.358 309.577 550.711 309.485 550.172 309.485C548.987 309.393 547.802 309.301 546.616 309.301C544.246 309.117 541.767 309.025 539.396 308.841C539.289 308.841 539.289 308.933 539.396 308.933C541.767 309.209 544.138 309.485 546.509 309.669C547.694 309.761 548.987 309.853 550.172 309.945C550.496 309.945 550.711 309.945 551.034 310.037C550.711 310.129 550.28 310.221 549.957 310.221C548.017 310.681 546.185 311.325 544.461 312.153C543.491 312.337 542.521 312.521 541.552 312.705C540.043 312.981 538.534 313.349 537.026 313.717C534.116 314.361 531.099 315.097 528.19 315.833C528.082 315.833 528.19 316.017 528.19 315.925C531.099 315.281 534.116 314.729 537.026 314.177C538.427 313.901 539.935 313.625 541.336 313.257C541.659 313.165 542.09 313.073 542.414 313.073C539.181 314.821 536.164 317.029 533.793 319.512C531.315 321.996 529.483 324.756 527.759 327.608C527.759 327.7 527.866 327.792 527.866 327.7C529.806 324.756 532.284 321.996 535.194 319.512C535.194 319.696 535.086 319.788 535.086 319.972C534.871 320.616 534.655 321.168 534.44 321.812C534.009 323.008 533.578 324.296 533.146 325.492C533.146 325.584 533.254 325.584 533.254 325.492C533.793 324.296 534.224 323.1 534.763 321.904C534.978 321.352 535.194 320.708 535.517 320.156C535.625 319.88 535.733 319.512 535.84 319.236C535.84 319.144 535.948 319.052 535.948 318.96C537.349 317.856 538.75 316.753 540.259 315.833C542.306 314.545 544.461 313.533 546.724 312.705C546.724 312.889 546.616 313.073 546.616 313.257C546.509 313.717 546.401 314.177 546.293 314.637C546.078 315.649 545.862 316.569 545.646 317.581C545.215 319.604 544.892 321.628 544.461 323.652C544.461 323.744 544.569 323.744 544.569 323.652C545.108 321.628 545.862 319.604 546.401 317.581C546.616 316.569 546.94 315.557 547.155 314.545C547.263 314.085 547.371 313.625 547.478 313.073C547.586 312.797 547.586 312.521 547.694 312.245C547.909 312.153 548.125 312.061 548.34 311.969C551.573 310.957 555.021 310.221 558.47 310.773C561.703 311.325 564.504 313.165 565.797 315.833C565.905 316.017 566.336 315.925 566.228 315.649C565.582 313.257 563.103 311.417 560.517 310.497Z" fill="var(--mainBlack)"/>
<path d="M541.767 319.052C541.444 320.34 541.12 321.72 540.689 323.008C540.366 324.296 539.935 325.584 539.827 326.872C539.827 326.964 539.935 326.964 539.935 326.872C540.474 325.676 540.689 324.296 541.012 323.008C541.336 321.72 541.659 320.432 541.875 319.144C541.982 318.96 541.875 318.96 541.767 319.052Z" fill="var(--mainBlack)"/>
<path d="M530.022 322.364C528.513 323.008 527.004 323.836 525.388 324.388C525.28 324.388 525.388 324.572 525.496 324.48C527.004 323.836 528.621 323.284 530.022 322.364Z" fill="var(--mainBlack)"/>
<path d="M559.871 295.777C559.871 295.777 545 296.605 537.996 288.234C531.099 279.862 532.608 267.902 532.608 267.902C532.608 267.902 548.233 269.558 554.483 275.538C560.733 281.518 559.871 295.777 559.871 295.777Z" fill="var(--mainBlue)"/>
<path d="M566.875 308.381C566.336 307.001 565.69 305.713 565.151 304.333C564.612 303.045 563.966 301.757 563.319 300.561C562.026 297.985 560.517 295.501 558.901 293.109C557.823 291.546 556.746 290.074 555.56 288.602C555.56 288.418 555.453 288.142 555.453 287.958C555.345 287.59 555.345 287.13 555.237 286.762C555.129 285.934 554.914 285.198 554.806 284.37C554.483 282.622 554.052 280.874 553.728 279.126C553.728 279.034 553.513 279.034 553.621 279.126C553.944 280.874 554.159 282.622 554.375 284.37C554.483 285.198 554.698 286.118 554.806 286.946C554.914 287.222 554.914 287.59 555.022 287.866C552.759 285.014 550.28 282.346 547.694 279.678C547.371 279.31 546.94 278.942 546.616 278.666C546.616 278.574 546.509 278.482 546.509 278.39C546.401 278.114 546.293 277.93 546.185 277.654C545.97 277.194 545.754 276.642 545.539 276.182C545.108 275.17 544.784 274.158 544.461 273.146C544.461 273.054 544.246 273.146 544.353 273.146C544.677 274.158 545 275.262 545.323 276.274C545.539 276.734 545.647 277.286 545.862 277.746C545.862 277.838 545.97 277.93 545.97 278.022C544.03 276.274 542.091 274.526 540.043 272.87C539.935 272.778 539.828 272.87 539.935 272.962C543.815 276.366 547.263 280.138 550.496 284.002C550.172 283.91 549.741 283.818 549.418 283.726C548.233 283.542 547.155 283.358 545.97 283.266C543.491 282.99 541.121 282.714 538.75 282.438C538.642 282.438 538.642 282.53 538.75 282.53C541.013 282.898 543.384 283.358 545.647 283.818C546.724 284.002 547.802 284.186 548.879 284.37C549.741 284.554 550.603 284.738 551.466 285.014C551.681 285.29 552.004 285.566 552.22 285.934C553.297 287.314 554.375 288.694 555.345 290.074C554.806 289.982 554.375 289.89 553.836 289.798C552.651 289.614 551.573 289.43 550.388 289.246C548.125 288.97 545.862 288.602 543.599 288.142C543.491 288.142 543.491 288.234 543.599 288.234C545.862 288.694 548.125 289.246 550.388 289.706C551.466 289.982 552.543 290.166 553.728 290.35C554.267 290.442 554.806 290.534 555.345 290.626C555.56 290.626 555.776 290.718 555.991 290.718C558.147 293.753 560.194 296.789 562.134 300.009C562.996 301.389 563.75 302.769 564.504 304.241C565.259 305.713 566.013 307.185 566.767 308.657C566.444 308.841 566.983 308.657 566.875 308.381Z" fill="var(--mainBlack)"/>
<path d="M551.681 279.126C551.358 277.93 551.142 276.734 550.819 275.538C550.819 275.446 550.603 275.538 550.711 275.538C551.034 276.734 551.25 277.93 551.465 279.126C551.681 280.322 551.896 281.518 552.327 282.714C552.22 281.518 551.896 280.322 551.681 279.126Z" fill="var(--mainBlack)"/>
<path d="M542.952 278.758C542.306 278.482 541.551 278.206 540.797 278.022C540.366 277.93 540.043 277.746 539.72 277.654C539.504 277.562 539.289 277.562 539.181 277.47C538.965 277.378 538.75 277.378 538.534 277.194C538.426 277.102 538.319 277.286 538.426 277.286C538.642 277.286 538.858 277.47 539.073 277.47C539.289 277.562 539.396 277.654 539.612 277.654C539.935 277.838 540.366 277.93 540.689 278.114C541.444 278.39 542.09 278.666 542.845 278.85C542.952 278.942 543.06 278.85 542.952 278.758Z" fill="var(--mainBlack)"/>
<path d="M575.172 285.842C575.172 285.842 584.224 271.49 597.909 269.19C611.595 266.983 620 279.034 620 279.034C620 279.034 609.978 289.982 597.371 291.822C584.763 293.753 575.172 285.842 575.172 285.842Z" fill="var(--mainBlue)"/>
<path d="M607.069 275.63C603.513 275.17 599.849 275.262 596.293 275.722C596.508 275.63 596.724 275.538 596.939 275.446C597.909 274.986 598.987 274.526 599.957 274.066C602.112 273.146 604.159 272.134 606.422 271.398C606.53 271.398 606.422 271.214 606.314 271.306C604.159 272.134 601.896 272.87 599.741 273.698C598.664 274.158 597.586 274.526 596.508 275.078C595.862 275.354 595.108 275.63 594.461 275.998C591.444 276.55 588.534 277.378 585.733 278.482C586.271 277.93 586.918 277.378 587.457 276.918C588.75 275.722 590.043 274.434 591.444 273.422C591.552 273.33 591.444 273.238 591.336 273.33C589.935 274.434 588.427 275.446 587.026 276.642C586.379 277.194 585.733 277.746 585.086 278.39C584.763 278.666 584.439 279.034 584.116 279.31C578.189 282.07 573.125 286.302 569.677 291.27C567.737 294.121 566.444 297.249 565.689 300.469C565.689 300.561 565.797 300.561 565.797 300.469C567.629 295.041 571.185 289.982 575.927 285.934C580.991 281.518 587.349 278.39 594.353 276.826C598.448 275.906 602.758 275.63 607.069 275.814C607.284 275.906 607.284 275.63 607.069 275.63Z" fill="var(--mainBlack)"/>
<path opacity="0.1" d="M620 279.034C620 279.034 609.979 289.982 597.371 291.822C587.78 293.293 579.914 288.97 576.681 286.854L576.035 285.934C576.035 285.934 582.5 281.242 594.785 278.574C607.069 275.906 620 279.034 620 279.034Z" fill="var(--mainBlack)"/>
<path d="M599.095 270.57C598.018 271.122 597.048 271.674 596.078 272.318C595.108 272.962 594.246 273.606 593.384 274.342C593.276 274.434 593.384 274.526 593.492 274.434C594.354 273.79 595.324 273.054 596.293 272.41C597.263 271.766 598.125 271.122 599.203 270.662C599.311 270.57 599.203 270.478 599.095 270.57Z" fill="var(--mainBlack)"/>
<path d="M606.638 272.962C606.099 273.146 605.56 273.33 605.129 273.514C604.59 273.698 604.159 273.882 603.621 274.066C603.513 274.066 603.513 274.25 603.621 274.25C604.159 274.066 604.59 273.882 605.129 273.698C605.668 273.514 606.099 273.33 606.638 273.146C606.746 273.054 606.746 272.962 606.638 272.962Z" fill="var(--mainBlack)"/>
<path d="M573.34 303.873C573.34 303.873 575.711 318.132 588.319 323.1C600.927 328.068 616.228 323.1 616.228 323.1C616.228 323.1 610.194 292.282 573.34 303.873Z" fill="var(--mainBlue)"/>
<path d="M607.5 313.901C606.315 313.809 605.237 313.625 604.052 313.441C603.513 313.349 602.974 313.257 602.328 313.165C602.004 313.073 601.789 313.073 601.466 312.981C601.142 312.705 600.819 312.429 600.496 312.153C598.125 310.405 595.539 308.749 592.845 307.369C591.336 306.633 589.828 305.989 588.211 305.345C588.319 305.345 588.319 305.345 588.427 305.345C589.828 305.437 591.228 305.437 592.522 305.529C595.323 305.621 598.017 305.713 600.819 305.805C600.927 305.805 600.927 305.713 600.819 305.713C598.017 305.529 595.323 305.253 592.522 305.069C591.228 304.977 589.828 304.885 588.534 304.793C587.888 304.701 587.134 304.701 586.487 304.609C586.272 304.609 586.164 304.609 585.948 304.517C585.194 304.333 584.547 304.057 583.793 303.873C580.345 302.953 576.681 302.585 573.125 303.413C570 304.149 566.767 305.897 566.013 308.749C566.013 308.841 566.121 308.933 566.228 308.841C567.414 306.449 570.539 305.253 573.341 304.793C575.172 304.425 577.112 304.517 579.052 304.701C579.159 305.437 579.483 306.173 579.698 306.817C580.022 307.829 580.345 308.841 580.776 309.853C581.53 311.877 582.284 313.809 582.931 315.833C582.931 315.925 583.147 315.833 583.039 315.833C582.5 313.809 581.961 311.785 581.422 309.761C581.099 308.749 580.884 307.829 580.56 306.817C580.345 306.173 580.237 305.437 579.914 304.793C580.991 304.977 582.069 305.161 583.147 305.437C585.086 305.897 587.026 306.541 588.858 307.185C589.073 308.197 589.289 309.209 589.612 310.221C589.935 311.509 590.366 312.705 590.797 313.993C590.797 314.085 590.905 313.993 590.905 313.993C590.905 313.901 590.905 313.809 590.797 313.717C590.474 312.521 590.259 311.417 589.935 310.221C589.72 309.301 589.504 308.381 589.289 307.369C590.797 308.013 592.414 308.657 593.922 309.393C593.922 309.669 594.03 309.945 594.138 310.221C594.246 310.681 594.353 311.233 594.461 311.693C594.677 312.797 595 313.901 595.216 315.005C595.862 317.121 596.509 319.236 597.371 321.168V321.26C597.371 321.26 597.371 321.352 597.478 321.352C597.586 321.444 597.586 321.352 597.586 321.26C597.047 319.144 596.293 317.029 595.754 314.913C595.431 313.809 595.216 312.797 595 311.693C594.892 311.141 594.784 310.589 594.677 310.129C594.677 309.945 594.569 309.853 594.569 309.669C596.293 310.497 597.909 311.417 599.418 312.429C602.112 314.177 604.698 316.109 606.961 318.224C607.069 318.316 607.177 318.225 607.177 318.133C606.207 317.029 605.237 316.017 604.159 315.005C603.513 314.453 602.866 313.901 602.22 313.349C602.328 313.349 602.328 313.349 602.435 313.349C602.974 313.441 603.621 313.533 604.159 313.533C605.345 313.625 606.53 313.809 607.608 313.901C607.608 313.993 607.608 313.901 607.5 313.901Z" fill="var(--mainBlack)"/>
<path d="M598.771 318.776C598.771 318.684 598.771 318.5 598.664 318.408C598.664 318.224 598.556 318.132 598.556 317.949C598.34 317.029 598.125 316.017 597.909 315.097C597.909 315.005 597.802 315.005 597.802 315.097C597.694 316.293 598.125 317.581 598.771 318.776Z" fill="var(--mainBlack)"/>
<path d="M588.211 318.5C587.78 317.213 587.457 315.925 587.133 314.637C587.026 313.993 586.81 313.257 586.702 312.613C586.595 312.245 586.595 311.877 586.487 311.509C586.379 311.233 586.379 310.865 586.164 310.589C586.164 310.497 586.056 310.589 586.056 310.589C585.948 311.233 586.271 311.877 586.379 312.521C586.487 313.257 586.702 313.901 586.918 314.637C587.241 316.017 587.672 317.489 588.211 318.868C588.211 318.96 588.427 318.96 588.427 318.868C588.211 318.684 588.211 318.592 588.211 318.5Z" fill="var(--mainBlack)"/>
<path d="M606.423 309.761C604.16 309.485 601.789 309.209 599.526 308.933C599.418 308.933 599.418 309.025 599.526 309.025C601.789 309.301 604.16 309.577 606.423 309.853C606.423 309.945 606.53 309.761 606.423 309.761Z" fill="var(--mainBlack)"/>
<path d="M566.875 270.478C566.875 270.478 559.224 241.684 595.431 230C595.431 230 605.56 267.902 566.875 270.478Z" fill="var(--mainBlue)"/>
<path d="M574.741 254.103C574.849 254.011 574.957 253.919 575.172 253.919C575.819 253.643 576.573 253.275 577.22 252.907L581.422 250.883C584.224 249.595 586.918 248.215 589.72 246.927C589.827 246.927 589.72 246.743 589.612 246.835C586.81 248.123 584.008 249.319 581.207 250.607L577.004 252.447C576.465 252.723 575.819 252.999 575.28 253.183C576.465 251.251 577.758 249.319 579.159 247.479C581.099 244.995 583.146 242.695 585.301 240.396C585.409 240.304 585.194 240.12 585.086 240.212C581.853 242.787 579.159 245.823 576.681 248.951C576.681 248.859 576.681 248.767 576.681 248.675C576.681 247.939 576.789 247.203 576.789 246.559C576.789 245.179 576.681 243.707 576.789 242.328C576.789 242.236 576.681 242.236 576.681 242.328C576.573 243.707 576.465 245.087 576.357 246.467C576.357 247.203 576.25 247.847 576.25 248.583C576.25 248.951 576.142 249.411 576.25 249.779C575.495 250.791 574.741 251.803 574.095 252.907C572.909 254.747 571.832 256.679 570.862 258.703C570.862 257.967 570.754 257.231 570.754 256.587C570.646 255.023 570.431 253.459 570.323 251.895C570.323 251.803 570.215 251.803 570.215 251.895C570.215 253.459 570.215 255.023 570.215 256.587C570.215 257.415 570.323 258.151 570.323 258.979C570.323 259.255 570.323 259.531 570.431 259.899C569.245 262.475 568.383 265.143 567.737 267.81C566.982 270.662 566.767 273.606 566.336 276.55C566.659 273.974 567.414 271.306 568.276 268.822C568.707 267.443 569.245 266.155 569.676 264.775C571.185 264.131 572.586 263.395 574.095 262.751C575.603 262.015 577.112 261.371 578.62 260.635C581.638 259.255 584.655 257.783 587.78 256.495C587.888 256.495 587.78 256.311 587.672 256.403C584.547 257.599 581.314 258.795 578.189 260.083C576.681 260.727 575.172 261.463 573.664 262.199C572.37 262.843 571.077 263.395 569.892 264.131C570.215 263.211 570.646 262.383 570.97 261.463C572.155 258.795 573.34 256.403 574.741 254.103Z" fill="var(--mainBlack)"/>
<path d="M571.724 247.571C571.724 247.479 571.616 247.479 571.616 247.571C571.724 249.227 571.832 250.883 572.047 252.539C572.047 252.631 572.263 252.631 572.263 252.539C572.047 250.791 571.832 249.135 571.724 247.571Z" fill="var(--mainBlack)"/>
<path d="M589.073 252.999C586.81 253.735 584.547 254.563 582.284 255.299C582.177 255.299 582.284 255.391 582.284 255.391C584.547 254.655 586.81 253.827 589.073 253.091C589.181 253.091 589.181 252.999 589.073 252.999Z" fill="var(--mainBlack)"/>
<path d="M592.521 239.752C590.258 240.672 588.103 241.592 586.056 242.695C585.948 242.787 586.056 242.879 586.164 242.879C588.319 241.868 590.366 240.856 592.629 239.936C592.629 239.844 592.629 239.752 592.521 239.752Z" fill="var(--mainBlack)"/>
<path d="M591.983 332.76H539.72V379.77H591.983V332.76Z" fill="var(--mainBlack)"/>
<path d="M538.75 349.411H536.056V430H538.75V349.411Z" fill="var(--mainBlack)"/>
<path d="M595.323 349.411H592.629V430H595.323V349.411Z" fill="var(--mainBlack)"/>
<path d="M568.491 349.411H565.797V430H568.491V349.411Z" fill="var(--mainBlack)"/>
<path d="M593.922 376.734H537.457V383.266H593.922V376.734Z" fill="var(--mainBlack)"/>
</svg>
