<svg width="100%" height="100%" viewBox="0 0 14 17" fill="none" xmlns="http://www.w3.org/2000/svg">
<path d="M7 16.3335C7.91666 16.3335 8.66666 15.5835 8.66666 14.6668H5.33333C5.33333 15.5835 6.075 16.3335 7 16.3335ZM12 11.3335V7.16683C12 4.6085 10.6333 2.46683 8.25 1.90016V1.3335C8.25 0.641829 7.69166 0.0834961 7 0.0834961C6.30833 0.0834961 5.75 0.641829 5.75 1.3335V1.90016C3.35833 2.46683 2 4.60016 2 7.16683V11.3335L0.924997 12.4085C0.399997 12.9335 0.766664 13.8335 1.50833 13.8335H12.4833C13.225 13.8335 13.6 12.9335 13.075 12.4085L12 11.3335Z" fill="var(--darkGray)"/>
</svg>
