<svg width="100%" height="100%" viewBox="0 0 21 20" fill="none" xmlns="http://www.w3.org/2000/svg">
<path d="M16.525 6.3002C16.4417 6.3002 16.3542 6.2752 16.2625 6.2252C16.1708 6.1752 16.1083 6.1002 16.075 6.0002L15.425 4.6002L14.025 3.9502C13.925 3.91686 13.85 3.85436 13.8 3.7627C13.75 3.67103 13.725 3.58353 13.725 3.5002C13.725 3.41686 13.75 3.32936 13.8 3.2377C13.85 3.14603 13.925 3.08353 14.025 3.0502L15.425 2.4002L16.075 1.0002C16.1083 0.900195 16.1708 0.825195 16.2625 0.775195C16.3542 0.725195 16.4417 0.700195 16.525 0.700195C16.6083 0.700195 16.6958 0.725195 16.7875 0.775195C16.8792 0.825195 16.9417 0.900195 16.975 1.0002L17.625 2.4002L19.025 3.0502C19.125 3.08353 19.2 3.14603 19.25 3.2377C19.3 3.32936 19.325 3.41686 19.325 3.5002C19.325 3.58353 19.3 3.67103 19.25 3.7627C19.2 3.85436 19.125 3.91686 19.025 3.9502L17.625 4.6002L16.975 6.0002C16.9417 6.1002 16.8792 6.1752 16.7875 6.2252C16.6958 6.2752 16.6083 6.3002 16.525 6.3002ZM18.525 13.3252C18.4417 13.3252 18.3583 13.3002 18.275 13.2502C18.1917 13.2002 18.125 13.1335 18.075 13.0502L17.725 12.3002L16.975 11.9502C16.925 11.9169 16.8333 11.7669 16.7 11.5002C16.7 11.4169 16.725 11.3335 16.775 11.2502C16.825 11.1669 16.8917 11.1002 16.975 11.0502L17.725 10.7002L18.075 9.9502C18.1083 9.9002 18.2583 9.80853 18.525 9.6752C18.6083 9.6752 18.6917 9.7002 18.775 9.7502C18.8583 9.8002 18.925 9.86686 18.975 9.9502L19.325 10.7002L20.075 11.0502C20.125 11.0835 20.2167 11.2335 20.35 11.5002C20.35 11.5835 20.325 11.6669 20.275 11.7502C20.225 11.8335 20.1583 11.9002 20.075 11.9502L19.325 12.3002L18.975 13.0502C18.9417 13.1002 18.7917 13.1919 18.525 13.3252ZM6.4 20.0002C6.15 20.0002 5.93333 19.9169 5.75 19.7502C5.56667 19.5835 5.45833 19.3752 5.425 19.1252L5.225 17.6502C5.09167 17.6002 4.9625 17.5335 4.8375 17.4502C4.7125 17.3669 4.60834 17.2835 4.525 17.2002L3.15 17.8002C2.91667 17.9002 2.67917 17.9127 2.4375 17.8377C2.19584 17.7627 2.00834 17.6085 1.875 17.3752L0.275002 14.5752C0.141668 14.3419 0.100002 14.1044 0.150002 13.8627C0.200002 13.621 0.333335 13.4252 0.550002 13.2752L1.725 12.4002V11.6002L0.550002 10.7252C0.333335 10.5752 0.200002 10.3794 0.150002 10.1377C0.100002 9.89603 0.141668 9.65853 0.275002 9.4252L1.875 6.6252C2.00834 6.39186 2.19584 6.2377 2.4375 6.1627C2.67917 6.0877 2.91667 6.1002 3.15 6.2002L4.525 6.8002C4.60834 6.71686 4.7125 6.63353 4.8375 6.5502C4.9625 6.46686 5.09167 6.4002 5.225 6.3502L5.425 4.8752C5.45833 4.6252 5.56667 4.41686 5.75 4.2502C5.93333 4.08353 6.15 4.0002 6.4 4.0002H9.65C9.9 4.0002 10.1167 4.08353 10.3 4.2502C10.4833 4.41686 10.5917 4.6252 10.625 4.8752L10.825 6.3502C10.9583 6.4002 11.0875 6.46686 11.2125 6.5502C11.3375 6.63353 11.4417 6.71686 11.525 6.8002L12.9 6.2002C13.1333 6.1002 13.3708 6.0877 13.6125 6.1627C13.8542 6.2377 14.0417 6.39186 14.175 6.6252L15.775 9.4252C15.9083 9.65853 15.95 9.89603 15.9 10.1377C15.85 10.3794 15.7167 10.5752 15.5 10.7252L14.325 11.6002V12.4002L15.5 13.2752C15.7167 13.4252 15.85 13.621 15.9 13.8627C15.95 14.1044 15.9083 14.3419 15.775 14.5752L14.175 17.3752C14.0417 17.6085 13.8542 17.7627 13.6125 17.8377C13.3708 17.9127 13.1333 17.9002 12.9 17.8002L11.525 17.2002C11.4417 17.2835 11.3375 17.3669 11.2125 17.4502C11.0875 17.5335 10.9583 17.6002 10.825 17.6502L10.625 19.1252C10.5917 19.3752 10.4833 19.5835 10.3 19.7502C10.1167 19.9169 9.9 20.0002 9.65 20.0002H6.4ZM8.025 15.0002C8.85833 15.0002 9.56667 14.7085 10.15 14.1252C10.7333 13.5419 11.025 12.8335 11.025 12.0002C11.025 11.1669 10.7333 10.4585 10.15 9.8752C9.56667 9.29186 8.85833 9.0002 8.025 9.0002C7.19167 9.0002 6.48334 9.29186 5.9 9.8752C5.31667 10.4585 5.025 11.1669 5.025 12.0002C5.025 12.8335 5.31667 13.5419 5.9 14.1252C6.48334 14.7085 7.19167 15.0002 8.025 15.0002Z" fill="var(--mainBlue)"/>
</svg>
