   <svg width="20" height="20" viewBox="0 0 20 20" fill="none" xmlns="http://www.w3.org/2000/svg">
<path d="M15 13.4C14.3667 13.4 13.8 13.65 13.3667 14.0417L7.425 10.5833C7.46667 10.3917 7.5 10.2 7.5 10C7.5 9.8 7.46667 9.60833 7.425 9.41666L13.3 5.99166C13.75 6.40833 14.3417 6.66666 15 6.66666C16.3833 6.66666 17.5 5.55 17.5 4.16666C17.5 2.78333 16.3833 1.66666 15 1.66666C13.6167 1.66666 12.5 2.78333 12.5 4.16666C12.5 4.36666 12.5333 4.55833 12.575 4.75L6.7 8.175C6.25 7.75833 5.65833 7.5 5 7.5C3.61667 7.5 2.5 8.61666 2.5 10C2.5 11.3833 3.61667 12.5 5 12.5C5.65833 12.5 6.25 12.2417 6.7 11.825L12.6333 15.2917C12.5917 15.4667 12.5667 15.65 12.5667 15.8333C12.5667 17.175 13.6583 18.2667 15 18.2667C16.3417 18.2667 17.4333 17.175 17.4333 15.8333C17.4333 14.4917 16.3417 13.4 15 13.4Z" fill="var(--darkGray)"/>
</svg>