<svg width="100%" height="100%" viewBox="0 0 16 20" fill="none" xmlns="http://www.w3.org/2000/svg">
<path d="M8 19.8499C7.81667 19.8499 7.64583 19.8374 7.4875 19.8124C7.32917 19.7874 7.18333 19.7499 7.05 19.6999C4.98333 18.9332 3.29167 17.5666 1.975 15.5999C0.658333 13.6332 0 11.4666 0 9.0999V4.3749C0 3.95824 0.120833 3.58324 0.3625 3.2499C0.604167 2.91657 0.916667 2.6749 1.3 2.5249L7.3 0.274902C7.53333 0.191569 7.76667 0.149902 8 0.149902C8.23333 0.149902 8.46667 0.191569 8.7 0.274902L14.7 2.5249C15.0833 2.6749 15.3958 2.91657 15.6375 3.2499C15.8792 3.58324 16 3.95824 16 4.3749V9.0999C16 11.4666 15.3417 13.6332 14.025 15.5999C12.7083 17.5666 11.0167 18.9332 8.95 19.6999C8.81667 19.7499 8.67083 19.7874 8.5125 19.8124C8.35417 19.8374 8.18333 19.8499 8 19.8499ZM8 17.8999C9.61667 17.3999 10.9667 16.4124 12.05 14.9374C13.1333 13.4624 13.7667 11.8166 13.95 9.9999H8V2.1249L2 4.3749V9.5499C2 9.66657 2.01667 9.81657 2.05 9.9999H8V17.8999Z" fill="var(--mainBlue)"/>
</svg>
