      <svg
                  width="100%"
                  height="100%"
                  viewBox="0 0 20 20"
                  fill="none"
                  xmlns="http://www.w3.org/2000/svg"
                >
                  <path
                    d="M14.5557 7.21012C13.6385 6.45665 12.9404 5.48878 12.5294 4.40059C12.1184 3.3124 12.0084 2.14091 12.2102 1C10.6546 2.08243 9.4112 3.52492 8.59626 5.19256C8.50053 5.38859 8.41099 5.5878 8.32764 5.79019C7.80417 7.05901 7.53627 8.41123 7.53808 9.77544C7.53808 9.9203 7.54125 10.0647 7.54669 10.2091C7.20396 10.1277 6.88145 9.98211 6.59776 9.78079C6.31406 9.57946 6.07478 9.32637 5.89372 9.0361C5.71266 8.74584 5.59338 8.42413 5.54277 8.08953C5.49217 7.75492 5.51122 7.41404 5.59885 7.08652C4.48001 7.95262 3.6671 9.12778 3.27079 10.452C2.87447 11.7763 2.914 13.1853 3.38398 14.4873C3.85397 15.7892 4.73158 16.9209 5.89737 17.7283C7.06315 18.5356 8.46047 18.9795 9.89912 18.9993C11.3378 19.0192 12.7479 18.6141 13.9375 17.8392C15.1271 17.0644 16.0384 15.9574 16.5474 14.6689C17.0564 13.3804 17.1383 11.9731 16.782 10.6385C16.4257 9.30384 15.6485 8.10674 14.5562 7.21012H14.5557ZM11.9207 17.2858C11.6317 17.61 11.2579 17.855 10.8376 17.9958C10.2751 18.1836 9.66141 18.1755 9.10454 17.9728C8.54767 17.7701 8.08334 17.3858 7.7933 16.8876C7.50326 16.3894 7.40609 15.8091 7.51891 15.2491C7.63174 14.689 7.94731 14.185 8.41008 13.8258C8.39017 13.901 8.38013 13.9784 8.38018 14.056C8.38015 14.2628 8.45244 14.4636 8.58554 14.6264C8.71863 14.7892 8.90485 14.9046 9.11447 14.9542C9.11221 14.9022 9.1113 14.8501 9.1113 14.7977C9.11056 14.3046 9.2074 13.8159 9.39668 13.3574C9.42658 13.2845 9.4592 13.2121 9.49362 13.1405C9.78797 12.538 10.2371 12.0167 10.7991 11.6256C10.7259 12.0379 10.7655 12.4614 10.914 12.8547C11.0626 13.248 11.315 13.5978 11.6467 13.87C12.1557 14.2884 12.4703 14.8833 12.5213 15.5238C12.5723 16.1643 12.3554 16.7979 11.9185 17.2854L11.9207 17.2858Z"
                    fill="#F44336"
                  />
                </svg>