<svg width="16" height="14" viewBox="0 0 16 14" fill="none" xmlns="http://www.w3.org/2000/svg">
<path d="M0.540771 11.6843C1.8843 12.5457 3.43884 13.021 5.03436 13.0583C6.62988 13.0955 8.20491 12.6932 9.58716 11.8955C10.9694 11.0977 12.1056 9.93513 12.8715 8.53496C13.6375 7.1348 14.0035 5.55097 13.9298 3.95672C14.5285 3.52332 15.046 2.98775 15.4588 2.3746C14.8961 2.6229 14.2989 2.78414 13.6877 2.85278C14.3279 2.47094 14.8065 1.86843 15.0337 1.1585C14.4345 1.51754 13.7772 1.76926 13.0915 1.90233C12.6302 1.41039 12.0195 1.08439 11.354 0.974877C10.6886 0.865363 10.0056 0.978453 9.41102 1.29661C8.8164 1.61477 8.34337 2.12023 8.06526 2.7346C7.78716 3.34897 7.71952 4.03793 7.87284 4.69465C6.6559 4.63518 5.46524 4.31942 4.37876 3.76804C3.29227 3.21666 2.33445 2.44208 1.56797 1.49499C1.17634 2.16933 1.05602 2.96744 1.23145 3.72727C1.40688 4.48709 1.8649 5.15168 2.51252 5.58607C2.02617 5.57015 1.55061 5.43861 1.12521 5.20235C1.11767 5.91549 1.35866 6.609 1.8068 7.16379C2.25494 7.71858 2.88227 8.10002 3.58104 8.24262C3.13043 8.36506 2.65755 8.38123 2.19964 8.28985C2.39409 8.89872 2.77411 9.43154 3.28646 9.81369C3.79881 10.1958 4.41785 10.4082 5.0569 10.421C3.77739 11.4219 2.15391 11.8761 0.540771 11.6843Z" fill="white"/>
</svg>
