<svg width="100%" height="100%" viewBox="0 0 22 22" fill="none" xmlns="http://www.w3.org/2000/svg">
<path fill-rule="evenodd" clip-rule="evenodd" d="M18.6344 3.53501C16.6654 1.56377 14.0469 0.477705 11.2571 0.476562C5.50889 0.476562 0.830427 5.15464 0.828183 10.9046C0.827379 12.7428 1.30761 14.5368 2.22027 16.1184L0.740723 21.5225L6.26924 20.0723C7.79247 20.9031 9.50752 21.3411 11.253 21.3417H11.2572C11.2569 21.3417 11.2575 21.3417 11.2572 21.3417C17.0048 21.3417 21.6837 16.6631 21.6861 10.913C21.6871 8.12635 20.6033 5.50618 18.6344 3.53501ZM11.2572 19.5804H11.2536C9.69831 19.5798 8.17275 19.1619 6.84188 18.3721L6.52539 18.1843L3.24469 19.0449L4.1204 15.8462L3.91428 15.5182C3.04662 14.1382 2.58836 12.5431 2.58904 10.9052C2.5909 6.12606 6.47946 2.23792 11.2607 2.23792C13.5759 2.23864 15.7523 3.14148 17.3888 4.77991C19.0254 6.41833 19.9261 8.59617 19.9252 10.9123C19.9232 15.6918 16.0348 19.5804 11.2572 19.5804Z" fill="var(--mainBlue)"/>
<path fill-rule="evenodd" clip-rule="evenodd" d="M16.0118 13.0877C15.7512 12.9573 14.47 12.327 14.2312 12.2399C13.9924 12.153 13.8186 12.1095 13.6449 12.3704C13.4712 12.6312 12.9718 13.2182 12.8198 13.3921C12.6678 13.5659 12.5158 13.5878 12.2553 13.4573C11.9947 13.3268 11.1551 13.0517 10.1598 12.1639C9.38506 11.4729 8.86211 10.6197 8.71005 10.3587C8.55807 10.0979 8.69388 9.9569 8.82435 9.82693C8.94157 9.71014 9.08495 9.5226 9.21526 9.37041C9.34552 9.21831 9.38895 9.10951 9.47582 8.93573C9.56269 8.76179 9.51929 8.6096 9.4541 8.47921C9.38895 8.34878 8.86783 7.06617 8.6507 6.54433C8.43912 6.03629 8.22432 6.10512 8.06434 6.09703C7.91258 6.08946 7.73863 6.08789 7.56494 6.08789C7.39124 6.08789 7.10888 6.15313 6.87008 6.41394C6.63123 6.67484 5.95801 7.30531 5.95801 8.5878C5.95801 9.87045 6.89175 11.1095 7.02205 11.2834C7.15231 11.4574 8.85953 14.0893 11.4735 15.2181C12.0952 15.4866 12.5806 15.6469 12.959 15.767C13.5833 15.9653 14.1514 15.9373 14.6003 15.8702C15.101 15.7954 16.1421 15.2399 16.3592 14.6313C16.5764 14.0225 16.5764 13.5007 16.5112 13.3921C16.4461 13.2834 16.2723 13.2182 16.0118 13.0877Z" fill="var(--mainBlue)"/>
</svg>
