<svg width="100%" height="100%" viewBox="0 0 14 18" fill="none" xmlns="http://www.w3.org/2000/svg">
<path d="M7.975 0.666504H2C1.08333 0.666504 0.333332 1.4165 0.333332 2.33317V15.6665C0.333332 16.5832 1.08333 17.3332 2 17.3332H12C12.9167 17.3332 13.6667 16.5832 13.6667 15.6665V6.35817C13.6667 5.9165 13.4917 5.4915 13.175 5.18317L9.15 1.15817C8.84167 0.841504 8.41667 0.666504 7.975 0.666504ZM7 7.33317C7.91667 7.33317 8.66667 8.08317 8.66667 8.99984C8.66667 9.9165 7.91667 10.6665 7 10.6665C6.08333 10.6665 5.33333 9.9165 5.33333 8.99984C5.33333 8.08317 6.08333 7.33317 7 7.33317ZM10.3333 13.9998H3.66667V13.5248C3.66667 12.8498 4.06667 12.2498 4.68333 11.9832C5.39167 11.6748 6.175 11.4998 7 11.4998C7.825 11.4998 8.60833 11.6748 9.31666 11.9832C9.93333 12.2498 10.3333 12.8498 10.3333 13.5248V13.9998Z" fill="var(--darkGray)"/>
</svg>
