<svg width="100%" height="100%" viewBox="0 0 16 19" fill="none" xmlns="http://www.w3.org/2000/svg">
<path d="M12 2.50016H9.35C9 1.5335 8.08333 0.833496 7 0.833496C5.91667 0.833496 5 1.5335 4.65 2.50016H2C1.08333 2.50016 0.333332 3.25016 0.333332 4.16683V16.6668C0.333332 17.5835 1.08333 18.3335 2 18.3335H7.09166C6.6 17.8585 6.2 17.2918 5.90833 16.6668H2V4.16683H3.66667V5.00016C3.66667 5.91683 4.41667 6.66683 5.33333 6.66683H8.66667C9.58333 6.66683 10.3333 5.91683 10.3333 5.00016V4.16683H12V8.40016C12.5917 8.4835 13.15 8.6585 13.6667 8.90016V4.16683C13.6667 3.25016 12.9167 2.50016 12 2.50016ZM7 4.16683C6.54167 4.16683 6.16667 3.79183 6.16667 3.3335C6.16667 2.87516 6.54167 2.50016 7 2.50016C7.45833 2.50016 7.83333 2.87516 7.83333 3.3335C7.83333 3.79183 7.45833 4.16683 7 4.16683ZM11.1667 10.0002C8.86666 10.0002 7 11.8668 7 14.1668C7 16.4668 8.86666 18.3335 11.1667 18.3335C13.4667 18.3335 15.3333 16.4668 15.3333 14.1668C15.3333 11.8668 13.4667 10.0002 11.1667 10.0002ZM12.2417 15.8335L10.8667 14.4585C10.7917 14.3835 10.7417 14.2752 10.7417 14.1668V12.0918C10.7417 11.8585 10.925 11.6752 11.1583 11.6752C11.3917 11.6752 11.575 11.8585 11.575 12.0918V14.0002L12.825 15.2502C12.9917 15.4168 12.9917 15.6752 12.825 15.8418C12.6667 16.0002 12.4083 16.0002 12.2417 15.8335Z" fill="var(--darkGray)"/>
</svg>
