<svg width="100%" height="100%" viewBox="0 0 14 18" fill="none" xmlns="http://www.w3.org/2000/svg">
<path d="M9.15833 1.15817C8.84167 0.841504 8.41667 0.666504 7.975 0.666504H2C1.08333 0.666504 0.333332 1.4165 0.333332 2.33317V15.6665C0.333332 16.5832 1.075 17.3332 1.99167 17.3332H12C12.9167 17.3332 13.6667 16.5832 13.6667 15.6665V6.35817C13.6667 5.9165 13.4917 5.4915 13.175 5.18317L9.15833 1.15817ZM9.5 13.9998H4.5C4.04167 13.9998 3.66667 13.6248 3.66667 13.1665C3.66667 12.7082 4.04167 12.3332 4.5 12.3332H9.5C9.95833 12.3332 10.3333 12.7082 10.3333 13.1665C10.3333 13.6248 9.95833 13.9998 9.5 13.9998ZM9.5 10.6665H4.5C4.04167 10.6665 3.66667 10.2915 3.66667 9.83317C3.66667 9.37484 4.04167 8.99984 4.5 8.99984H9.5C9.95833 8.99984 10.3333 9.37484 10.3333 9.83317C10.3333 10.2915 9.95833 10.6665 9.5 10.6665ZM7.83333 5.6665V1.9165L12.4167 6.49984H8.66667C8.20833 6.49984 7.83333 6.12484 7.83333 5.6665Z" fill="var(--darkGray)"/>
</svg>
