<svg width="100%" height="100%" viewBox="0 0 16 18" fill="none" xmlns="http://www.w3.org/2000/svg">
<path d="M13.8333 2.50016H10.35C10 1.5335 9.08333 0.833496 8 0.833496C6.91667 0.833496 6 1.5335 5.65 2.50016H2.16667C1.25 2.50016 0.5 3.25016 0.5 4.16683V15.8335C0.5 16.7502 1.25 17.5002 2.16667 17.5002H13.8333C14.75 17.5002 15.5 16.7502 15.5 15.8335V4.16683C15.5 3.25016 14.75 2.50016 13.8333 2.50016ZM8 2.50016C8.45833 2.50016 8.83333 2.87516 8.83333 3.3335C8.83333 3.79183 8.45833 4.16683 8 4.16683C7.54167 4.16683 7.16667 3.79183 7.16667 3.3335C7.16667 2.87516 7.54167 2.50016 8 2.50016ZM8.83333 14.1668H4.66667C4.20833 14.1668 3.83333 13.7918 3.83333 13.3335C3.83333 12.8752 4.20833 12.5002 4.66667 12.5002H8.83333C9.29167 12.5002 9.66667 12.8752 9.66667 13.3335C9.66667 13.7918 9.29167 14.1668 8.83333 14.1668ZM11.3333 10.8335H4.66667C4.20833 10.8335 3.83333 10.4585 3.83333 10.0002C3.83333 9.54183 4.20833 9.16683 4.66667 9.16683H11.3333C11.7917 9.16683 12.1667 9.54183 12.1667 10.0002C12.1667 10.4585 11.7917 10.8335 11.3333 10.8335ZM11.3333 7.50016H4.66667C4.20833 7.50016 3.83333 7.12516 3.83333 6.66683C3.83333 6.2085 4.20833 5.8335 4.66667 5.8335H11.3333C11.7917 5.8335 12.1667 6.2085 12.1667 6.66683C12.1667 7.12516 11.7917 7.50016 11.3333 7.50016Z" fill="var(--darkGray)"/>
</svg>
