<svg width="100%" height="100%" viewBox="0 0 18 16" fill="none" xmlns="http://www.w3.org/2000/svg">
<path d="M4.41667 15.5H1.5C1.04167 15.5 0.666668 15.125 0.666668 14.6667V6.33333C0.666668 5.875 1.04167 5.5 1.5 5.5H4.41667C4.875 5.5 5.25 5.875 5.25 6.33333V14.6667C5.25 15.125 4.875 15.5 4.41667 15.5ZM10.4583 0.5H7.54167C7.08333 0.5 6.70833 0.875 6.70833 1.33333V14.6667C6.70833 15.125 7.08333 15.5 7.54167 15.5H10.4583C10.9167 15.5 11.2917 15.125 11.2917 14.6667V1.33333C11.2917 0.875 10.9167 0.5 10.4583 0.5ZM16.5 7.16667H13.5833C13.125 7.16667 12.75 7.54167 12.75 8V14.6667C12.75 15.125 13.125 15.5 13.5833 15.5H16.5C16.9583 15.5 17.3333 15.125 17.3333 14.6667V8C17.3333 7.54167 16.9583 7.16667 16.5 7.16667Z" fill="var(--darkGray)"/>
</svg>
