<svg width="90" height="24" viewBox="0 0 90 24" fill="none" xmlns="http://www.w3.org/2000/svg">
<path d="M45.3728 16.7497H33.1784C33.4816 19.6732 34.9971 21.5209 37.795 21.5209C39.707 21.5209 41.2691 20.6087 42.3883 19.182L44.7199 20.445C43.2277 22.6669 40.7562 23.9532 37.8184 23.9532C33.1085 23.9532 29.9375 20.6555 29.9375 15.6972C29.9375 10.6687 33.0152 7.32419 37.7018 7.32419C42.3417 7.32419 45.4194 10.5752 45.4194 15.4399C45.4194 15.8375 45.4194 16.3988 45.3728 16.7497ZM33.1784 14.6447H42.2951C42.0153 11.5809 40.3365 9.75657 37.7018 9.75657C35.0671 9.75657 33.4349 11.6276 33.1784 14.6447Z" fill="#091e25"/>
<path d="M47.9141 15.6504C47.9141 10.6687 51.2716 7.32419 56.3079 7.32419C58.4063 7.32419 60.1783 7.97906 61.6473 9.12509L59.8986 11.23C58.8726 10.3881 57.7768 9.96706 56.3312 9.96706C53.1835 9.96706 51.0851 12.2591 51.0851 15.6504C51.0851 19.0417 53.1835 21.3338 56.3545 21.3338C57.94 21.3338 59.339 20.8192 60.3649 19.7434L62.1369 21.8249C60.6447 23.275 58.5462 24 56.2146 24C51.2483 23.9766 47.9141 20.6321 47.9141 15.6504Z" fill="#091e25"/>
<path d="M74.635 20.7957V23.2514C73.4925 23.766 72.1402 23.9765 70.6712 23.9765C67.9199 23.9765 66.0546 22.082 66.0546 19.252V10.154H63.3267V7.62808H66.0546V2.95043H69.1091V7.62808H74.3785V10.154H69.1091V18.6206C69.1091 20.2343 70.135 21.3336 71.6272 21.3336C72.6531 21.3336 73.6557 21.1699 74.635 20.7957Z" fill="#091e25"/>
<path d="M90.0001 13.5689V23.6726H87.0389L86.969 20.8426C85.8498 22.8306 83.7746 23.9766 81.513 23.9766C78.3187 23.9766 76.127 22.0588 76.127 19.1586C76.127 16.1649 78.785 14.1769 82.8187 14.1769C84.1011 14.1769 85.57 14.3173 86.9456 14.6213V13.8963C86.9456 11.347 85.2902 9.75657 82.6088 9.75657C80.8601 9.75657 79.5777 10.2945 78.5052 11.3236L77.1529 9.4993C78.7384 8.096 80.6969 7.32419 83.355 7.32419C87.342 7.32419 90.0001 9.82673 90.0001 13.5689ZM86.9456 16.7263C85.6866 16.4456 84.3809 16.3053 83.1917 16.3053C80.8601 16.3053 79.3213 17.4279 79.3213 19.0651C79.3213 20.6789 80.4404 21.7314 82.3757 21.7314C84.614 21.7547 86.9223 19.9071 86.9456 16.7263Z" fill="#091e25"/>
<path d="M25.7337 6.04073e-05L22.8425 0.00784683L22.9058 23.7235L25.797 23.7157L25.7337 6.04073e-05Z" fill="#091e25"/>
<path d="M9.06039 5.15729e-05L6.16919 0.00779533L6.23284 23.7235L9.12404 23.7157L9.06039 5.15729e-05Z" fill="#091e25"/>
<path d="M23.5493 13.7788H0V16.6792H23.5493V13.7788Z" fill="#091e25"/>
</svg>
